<?xml version="1.0" standalone="no"?>
<!DOCTYPE svg PUBLIC "-//W3C//DTD SVG 20010904//EN"
 "http://www.w3.org/TR/2001/REC-SVG-20010904/DTD/svg10.dtd">
<svg version="1.0" xmlns="http://www.w3.org/2000/svg"
 width="350.000000pt" height="350.000000pt" viewBox="0 0 350.000000 350.000000"
 preserveAspectRatio="xMidYMid meet">
<metadata>
Created by potrace 1.14, written by Peter Selinger 2001-2017
</metadata>
<g transform="translate(0.000000,350.000000) scale(0.100000,-0.100000)"
fill="#000000" stroke="none">
<path d="M0 1750 l0 -1750 1750 0 1750 0 0 1750 0 1750 -1750 0 -1750 0 0
-1750z m958 445 c95 -29 153 -100 171 -211 12 -76 0 -151 -35 -214 -25 -46
-85 -100 -112 -100 -7 0 -12 -2 -12 -3 0 -2 38 -86 85 -186 47 -100 85 -184
85 -186 0 -3 -37 -5 -83 -5 l-83 0 -79 178 c-78 173 -81 177 -112 180 l-33 3
-2 -178 -3 -178 -72 -3 -73 -3 0 251 0 250 150 0 c94 0 159 4 175 12 36 16 55
57 55 117 0 103 -29 130 -150 138 l-80 6 0 -117 0 -116 -75 0 -75 0 0 190 0
190 153 0 c109 0 168 -4 205 -15z m421 -286 l54 -297 -33 -156 c-18 -86 -34
-155 -36 -153 -2 2 -194 893 -194 902 0 3 35 5 78 3 l77 -3 54 -296z m455 -21
c38 -175 73 -315 77 -310 3 4 30 138 58 297 29 160 55 300 58 313 5 21 10 22
85 22 60 0 79 -3 76 -12 -3 -7 -49 -212 -103 -455 l-98 -443 -88 0 -88 0 -11
58 c-62 300 -119 564 -122 567 -2 3 -35 -137 -73 -309 l-68 -314 -36 -6 c-42
-7 -91 -8 -91 -2 0 6 179 862 186 892 6 24 9 25 87 22 l81 -3 70 -317z m777
306 c180 -53 278 -210 279 -444 0 -155 -46 -277 -135 -359 -87 -79 -132 -91
-335 -91 l-170 0 0 74 0 74 163 4 c162 3 164 3 213 33 37 24 56 45 79 90 28
55 30 65 30 174 0 100 -3 123 -23 166 -47 102 -102 134 -229 135 l-83 0 0
-275 0 -275 -75 0 -75 0 0 348 c0 192 3 352 7 355 14 15 298 7 354 -9z"/>
</g>
</svg>
