<svg xmlns="http://www.w3.org/2000/svg" viewBox="0 0 217.5 217.29"><defs><style>.cls-1{fill:#231f20;}</style></defs><g id="Layer_2" data-name="Layer 2"><g id="Layer_2-2" data-name="Layer 2"><path class="cls-1" d="M44.24,21l9.34,11.29L51.31,34.2l-4-4.81-4.84,4,4,4.81-2.26,1.87-9.34-11.3,2.26-1.87L41,31.55l4.84-4L42,22.9Z"/><path class="cls-1" d="M61.82,24l-5,3,.6,2.89-2.66,1.58-3-15.31,2.94-1.75,12,9.91-2.67,1.59Zm-1.89-1.62-5-4.18,1.32,6.36Z"/><path class="cls-1" d="M79.71,19,77,20.11l-9.92-6.87,3.74,9.34-2.73,1.09L62.62,10,65.35,9l9.92,6.89L71.53,6.48l2.73-1.09Z"/><path class="cls-1" d="M87.84,2.89a6.42,6.42,0,0,1,3.22,1.9,7.84,7.84,0,0,1,1.79,3.57,7.58,7.58,0,0,1-.08,4,6.58,6.58,0,0,1-2.07,3.09,8.87,8.87,0,0,1-3.77,1.78l-5,1.14L78.68,4l5-1.13A8.73,8.73,0,0,1,87.84,2.89Zm1.64,9.88A4.81,4.81,0,0,0,89.92,9a4.9,4.9,0,0,0-2-3.21,4.75,4.75,0,0,0-3.77-.47l-2,.46,2.15,9.44,2-.46A4.86,4.86,0,0,0,89.48,12.77Z"/><path class="cls-1" d="M104.4,5.92l.21,2.47-8.87.74-.21-2.47Z"/><path class="cls-1" d="M108.84,3.24a7,7,0,0,1,2.83-2.5,8,8,0,0,1,8.06.79,6.63,6.63,0,0,1,2.37,3.64L118.72,5a3.44,3.44,0,0,0-1.32-1.66,4,4,0,0,0-2.07-.65,4.25,4.25,0,0,0-2.31.46,4.09,4.09,0,0,0-1.66,1.59,5.64,5.64,0,0,0-.71,2.52,5.62,5.62,0,0,0,.41,2.58,4,4,0,0,0,1.44,1.8,4.42,4.42,0,0,0,2.24.73,4.07,4.07,0,0,0,2.14-.41,3.55,3.55,0,0,0,1.51-1.49l3.38.2A6.58,6.58,0,0,1,119,14a8.07,8.07,0,0,1-8.11-.2,7,7,0,0,1-2.5-2.81,7.62,7.62,0,0,1-.74-3.92A7.69,7.69,0,0,1,108.84,3.24Z"/><path class="cls-1" d="M126.54,15.42a7.18,7.18,0,0,1-2.06-3.22,7.61,7.61,0,0,1-.11-4,7.46,7.46,0,0,1,1.85-3.53,7.22,7.22,0,0,1,3.26-2,7.57,7.57,0,0,1,3.9-.09,7.48,7.48,0,0,1,3.48,1.79,7.12,7.12,0,0,1,2,3.22,7.44,7.44,0,0,1,.1,4,7.52,7.52,0,0,1-1.84,3.55,7.1,7.1,0,0,1-3.25,2,7.83,7.83,0,0,1-7.37-1.7ZM133,14.6a4.12,4.12,0,0,0,1.92-1.31,5.61,5.61,0,0,0,1.14-2.39,5.49,5.49,0,0,0,0-2.64,4,4,0,0,0-1.15-2,4.6,4.6,0,0,0-2.14-1.1,4.66,4.66,0,0,0-2.41,0,4,4,0,0,0-1.93,1.29,5.56,5.56,0,0,0-1.13,2.38,5.62,5.62,0,0,0,0,2.64,4.09,4.09,0,0,0,1.16,2,4.56,4.56,0,0,0,2.15,1.11A4.42,4.42,0,0,0,133,14.6Z"/><path class="cls-1" d="M152.6,10.13a6.51,6.51,0,0,1,1.53,3.41,7.73,7.73,0,0,1-.59,3.95,7.56,7.56,0,0,1-2.35,3.2A6.47,6.47,0,0,1,147.72,22a8.71,8.71,0,0,1-4.1-.71l-4.74-1.94,5.56-13.56,4.74,1.94A8.77,8.77,0,0,1,152.6,10.13Zm-4.35,9a4.82,4.82,0,0,0,2.51-2.8,4.91,4.91,0,0,0,.2-3.79A4.73,4.73,0,0,0,148.14,10l-1.92-.79-3.68,9,1.93.79A4.79,4.79,0,0,0,148.25,19.15Z"/><path class="cls-1" d="M160.92,16l-1.84,3.18,4.28,2.47-1.17,2-4.27-2.48L156,24.57l4.82,2.78-1.2,2.08-7.36-4.26,7.35-12.71,7.36,4.26-1.2,2.07Z"/><path class="cls-1" d="M177.18,25.32a6.39,6.39,0,0,1,.57,3.69,7.69,7.69,0,0,1-1.62,3.65A7.6,7.6,0,0,1,173,35.12a6.5,6.5,0,0,1-3.71.36,8.74,8.74,0,0,1-3.76-1.77l-4.06-3.14,9-11.59,4.05,3.14A8.76,8.76,0,0,1,177.18,25.32Zm-6.59,7.54a4.81,4.81,0,0,0,3.17-2,4.9,4.9,0,0,0,1.19-3.6,4.73,4.73,0,0,0-2-3.21l-1.64-1.27-5.93,7.65L167,31.67A4.85,4.85,0,0,0,170.59,32.86Z"/><path class="cls-1" d="M217.39,101.34l-14.55,1.81-.36-2.92,6.19-.77-.77-6.23-6.19.77-.37-2.92,14.55-1.81.36,2.92-6,.75.78,6.23,6-.75Z"/><path class="cls-1" d="M205.48,114.6l.17-5.83-2.76-1,.09-3.09,14.52,5.71-.11,3.42-14.83,4.83.1-3.11Zm2.37-.72,6.19-1.94-6.06-2.3Z"/><path class="cls-1" d="M200,132.34l.55-2.89,11.12-4.67-9.89-1.87.55-2.89,14.43,2.72-.55,2.89-11.14,4.67,9.91,1.87-.55,2.89Z"/><path class="cls-1" d="M209.26,147.86a6.47,6.47,0,0,1-3.34,1.69,7.68,7.68,0,0,1-4-.41,7.49,7.49,0,0,1-3.3-2.19,6.48,6.48,0,0,1-1.49-3.41,8.68,8.68,0,0,1,.52-4.14l1.72-4.82,13.8,4.94-1.72,4.82A8.72,8.72,0,0,1,209.26,147.86Zm-9.21-3.93a4.81,4.81,0,0,0,2.92,2.39,4.92,4.92,0,0,0,3.79,0,4.78,4.78,0,0,0,2.42-2.93l.7-2-9.12-3.26-.7,2A4.84,4.84,0,0,0,200.05,143.93Z"/><path class="cls-1" d="M197.8,160.2l-2.19-1.15,4.15-7.88,2.19,1.15Z"/><path class="cls-1" d="M197.67,165.39a6.92,6.92,0,0,1,.6,3.72,8,8,0,0,1-5,6.37,6.58,6.58,0,0,1-4.34.05l2-2.74a3.56,3.56,0,0,0,2.11-.22,4.17,4.17,0,0,0,1.66-1.4,4.32,4.32,0,0,0,.86-2.2,4.09,4.09,0,0,0-.46-2.25,5.49,5.49,0,0,0-1.74-1.95,5.58,5.58,0,0,0-2.4-1.05,4,4,0,0,0-2.28.26,4.29,4.29,0,0,0-1.83,1.49,4,4,0,0,0-.8,2,3.56,3.56,0,0,0,.45,2.08l-2,2.74a6.63,6.63,0,0,1-1.32-4.14,8.09,8.09,0,0,1,4.52-6.73,7,7,0,0,1,3.72-.6,8.14,8.14,0,0,1,6.26,4.55Z"/><path class="cls-1" d="M177.89,173.77a7.18,7.18,0,0,1,3.82,0,7.91,7.91,0,0,1,5.42,5.51,7.22,7.22,0,0,1-.07,3.83,7.59,7.59,0,0,1-2,3.33,7.48,7.48,0,0,1-3.38,2,7.14,7.14,0,0,1-3.81,0,8,8,0,0,1-5.41-5.51,7,7,0,0,1,.06-3.81,7.57,7.57,0,0,1,2-3.34A7.47,7.47,0,0,1,177.89,173.77Zm-2.78,5.89a4.18,4.18,0,0,0,.08,2.32,6.19,6.19,0,0,0,3.61,3.68,4.06,4.06,0,0,0,2.31.1,4.49,4.49,0,0,0,2.08-1.21,4.64,4.64,0,0,0,1.26-2.06,4.08,4.08,0,0,0-.06-2.32,5.46,5.46,0,0,0-1.4-2.23,5.69,5.69,0,0,0-2.21-1.45,4.13,4.13,0,0,0-2.33-.11,4.91,4.91,0,0,0-3.34,3.28Z"/><path class="cls-1" d="M168.35,198.58a6.38,6.38,0,0,1-3.69-.54,8.21,8.21,0,0,1-4.45-6.31,6.41,6.41,0,0,1,.74-3.65,8.74,8.74,0,0,1,2.8-3.08l4.19-2.95,8.44,12L172.19,197A8.62,8.62,0,0,1,168.35,198.58Zm-5.27-8.51a4.82,4.82,0,0,0,1,3.63,4.94,4.94,0,0,0,3.09,2.2,4.79,4.79,0,0,0,3.66-1l1.7-1.2L167,185.78l-1.7,1.2A4.88,4.88,0,0,0,163.08,190.07Z"/><path class="cls-1" d="M158.93,202.45l-1.7-3.26-4.38,2.27-1.07-2.06,4.38-2.28-1.79-3.45-4.94,2.57-1.11-2.13,7.55-3.92,6.77,13-7.55,3.92L154,205Z"/><path class="cls-1" d="M142.34,211.15a6.41,6.41,0,0,1-3.42-1.5,7.63,7.63,0,0,1-2.21-3.33,7.49,7.49,0,0,1-.4-3.95,6.46,6.46,0,0,1,1.69-3.31,8.73,8.73,0,0,1,3.52-2.23l4.82-1.73,4.95,13.8-4.82,1.73A8.78,8.78,0,0,1,142.34,211.15Zm-2.82-9.61a4.82,4.82,0,0,0,0,3.77,4.88,4.88,0,0,0,2.39,2.94,4.75,4.75,0,0,0,3.8,0l2-.7-3.27-9.11-1.95.7A4.86,4.86,0,0,0,139.52,201.54Z"/><path class="cls-1" d="M63.29,207.57l5.37-13.64L71.4,195l-2.29,5.8,5.85,2.3,2.28-5.8L80,198.39,74.61,212,71.87,211l2.21-5.61L68.24,203,66,208.65Z"/><path class="cls-1" d="M57.34,190.77l5,2.94,2.25-1.92,2.66,1.56-12,10-3-1.72,2.86-15.34,2.68,1.57Zm-.49,2.43-1.27,6.37,4.93-4.23Z"/><path class="cls-1" d="M44.37,177.5l2.28,1.86-1.21,12,6.36-7.79,2.28,1.86L44.79,196.8l-2.28-1.86,1.23-12-6.38,7.81-2.28-1.87Z"/><path class="cls-1" d="M26.32,178.18a6.4,6.4,0,0,1,.12-3.73,7.69,7.69,0,0,1,2.25-3.29,7.62,7.62,0,0,1,3.51-1.86,6.48,6.48,0,0,1,3.71.33,8.67,8.67,0,0,1,3.38,2.43l3.41,3.82-10.93,9.76-3.41-3.82A8.72,8.72,0,0,1,26.32,178.18Zm7.86-6.2a4.77,4.77,0,0,0-3.49,1.42,4.87,4.87,0,0,0-1.83,3.32,4.8,4.8,0,0,0,1.41,3.53l1.39,1.55,7.22-6.45L37.5,173.8A4.8,4.8,0,0,0,34.18,172Z"/><path class="cls-1" d="M21,162.22,23,160.85,28,168.26l-2.06,1.37Z"/><path class="cls-1" d="M16.47,159.63a7,7,0,0,1-3.55-1.26,8,8,0,0,1-3.21-7.44,6.6,6.6,0,0,1,2-3.83l1.45,3.05a3.62,3.62,0,0,0-.81,2,4.14,4.14,0,0,0,.44,2.13,4.28,4.28,0,0,0,1.52,1.8,4.11,4.11,0,0,0,2.19.68,5.58,5.58,0,0,0,2.55-.6,5.74,5.74,0,0,0,2.07-1.6,4,4,0,0,0,.86-2.14,4.25,4.25,0,0,0-.44-2.31,4.07,4.07,0,0,0-1.39-1.68,3.57,3.57,0,0,0-2-.59l-1.45-3.06a6.61,6.61,0,0,1,4.26.82,7.51,7.51,0,0,1,3,3.36,7.59,7.59,0,0,1,.76,3.83,7,7,0,0,1-1.25,3.56,7.58,7.58,0,0,1-3.07,2.54A7.63,7.63,0,0,1,16.47,159.63Z"/><path class="cls-1" d="M18.58,138.25a7.3,7.3,0,0,1-1.83,3.36,7.4,7.4,0,0,1-3.45,2,7.3,7.3,0,0,1-4,.09A7.13,7.13,0,0,1,6,141.84a7.88,7.88,0,0,1-2.08-7.28,7.06,7.06,0,0,1,1.83-3.34,7.49,7.49,0,0,1,3.43-2,7.48,7.48,0,0,1,4-.11A7.12,7.12,0,0,1,16.5,131a7.87,7.87,0,0,1,2.08,7.27ZM14.73,133a4.15,4.15,0,0,0-2.08-1,5.6,5.6,0,0,0-2.64.16,5.62,5.62,0,0,0-2.32,1.25,4.09,4.09,0,0,0-1.19,2,4.61,4.61,0,0,0,.07,2.41,4.68,4.68,0,0,0,1.21,2.09,4,4,0,0,0,2.06,1.06,5.69,5.69,0,0,0,2.63-.16,5.63,5.63,0,0,0,2.33-1.26,4.11,4.11,0,0,0,1.21-2,4.45,4.45,0,0,0-.07-2.42A4.54,4.54,0,0,0,14.73,133Z"/><path class="cls-1" d="M1.34,118a6.42,6.42,0,0,1,2.24-3,7.72,7.72,0,0,1,3.74-1.4,7.52,7.52,0,0,1,3.94.51,6.55,6.55,0,0,1,2.85,2.4,8.8,8.8,0,0,1,1.36,3.93l.59,5.09L1.5,127.24l-.59-5.09A8.82,8.82,0,0,1,1.34,118Zm10-.55a4.77,4.77,0,0,0-3.67-.84,4.91,4.91,0,0,0-3.42,1.66A4.81,4.81,0,0,0,3.38,122L3.62,124l9.62-1.11L13,120.85A4.84,4.84,0,0,0,11.34,117.45Z"/><path class="cls-1" d="M2.45,107.88l3.68.07L6.22,103l2.33,0L8.46,108l3.88.08.11-5.56,2.39,0-.16,8.51L0,110.77l.17-8.5,2.39,0Z"/><path class="cls-1" d="M2.74,89.14a6.45,6.45,0,0,1,3-2.28,7.68,7.68,0,0,1,4-.35,7.59,7.59,0,0,1,3.66,1.54,6.52,6.52,0,0,1,2.11,3.07,8.88,8.88,0,0,1,.27,4.15l-.79,5.06L.44,98.08,1.22,93A8.79,8.79,0,0,1,2.74,89.14Zm9.78,2.13a4.76,4.76,0,0,0-3.31-1.79,4.87,4.87,0,0,0-3.73.7,4.7,4.7,0,0,0-1.82,3.33l-.32,2L12.9,97,13.22,95A4.78,4.78,0,0,0,12.52,91.27Z"/><path d="M22.9,50.51c.08.68.16,1.32.24,2,.13,1.12.27,2.24.41,3.35,0,.12,0,.24,0,.36s.11.24.24.28l2.67.89c.81.27,1.62.53,2.42.81.06,0,.15,0,.15.09s-.08.07-.12.09l-2.59,1.24L24,60.68a.29.29,0,0,0-.18.31c0,1,0,2.1,0,3.14,0,.79,0,1.57,0,2.36,0,.05,0,.13,0,.15s-.1,0-.15-.1l-.86-.93-1.1-1.17-1.14-1.23-.67-.72a.24.24,0,0,0-.3-.06l-2.7.85c-.63.19-1.25.4-1.88.6l-.63.2c-.06,0-.13.07-.18,0s0-.12,0-.17c.26-.48.53-1,.8-1.42l1.65-3c.1-.18.3-.36.27-.56s-.23-.35-.35-.52c-.58-.84-1.15-1.7-1.74-2.53-.37-.52-.72-1-1.1-1.56,0,0-.1-.08-.06-.14s.11,0,.16,0l3,.58,2.38.46a.22.22,0,0,0,.26-.09c.45-.63.92-1.25,1.38-1.87l2-2.66A.58.58,0,0,1,22.9,50.51Z"/><path d="M193.61,50.51c-.08.68-.16,1.32-.24,2-.14,1.12-.27,2.24-.41,3.35a2.2,2.2,0,0,0,0,.36c0,.19-.11.24-.25.28l-2.66.89c-.81.27-1.62.53-2.43.81-.05,0-.15,0-.15.09s.08.07.13.09l2.59,1.24,2.31,1.1a.3.3,0,0,1,.19.31c0,1,0,2.1,0,3.14,0,.79,0,1.57,0,2.36,0,.05,0,.13,0,.15s.1,0,.14-.1l.87-.93,1.1-1.17L196,63.21l.68-.72a.24.24,0,0,1,.3-.06l2.7.85,1.88.6.63.2c.06,0,.13.07.18,0s0-.12,0-.17l-.8-1.42c-.55-1-1.11-2-1.65-3-.11-.18-.3-.36-.27-.56s.23-.35.34-.52c.58-.84,1.15-1.7,1.75-2.53.37-.52.72-1,1.09-1.56,0,0,.1-.08.07-.14s-.11,0-.16,0l-3,.58-2.38.46a.22.22,0,0,1-.26-.09c-.45-.63-.92-1.25-1.38-1.87l-2-2.66A.58.58,0,0,0,193.61,50.51Z"/><path d="M104.47,201.92c.17.66.32,1.29.48,1.91.27,1.09.55,2.18.82,3.28a1.89,1.89,0,0,0,.09.34c.07.17,0,.27-.13.36l-2.17,1.78c-.66.54-1.32,1.08-2,1.63,0,0-.14.06-.11.13s.1,0,.15.05l2.86.22,2.56.2a.28.28,0,0,1,.28.22c.38,1,.77,2,1.15,2.93l.86,2.19c0,.05,0,.13.09.13s.07-.09.09-.14L110,216l.61-1.5c.2-.51.41-1,.61-1.55.13-.3.26-.6.37-.91a.25.25,0,0,1,.26-.17l2.83-.17,2-.11.66-.05c.06,0,.14,0,.17,0s0-.11-.1-.15l-1.25-1-2.62-2.2c-.16-.13-.41-.23-.45-.43a1.69,1.69,0,0,1,.14-.6c.23-1,.46-2,.72-3,.16-.61.29-1.23.46-1.84,0-.05.06-.12,0-.16s-.11,0-.16,0l-2.55,1.61L109.63,205a.22.22,0,0,1-.28,0c-.65-.43-1.31-.84-2-1.26L104.61,202Z"/></g></g></svg>