<?xml version="1.0"?>
<svg xmlns="http://www.w3.org/2000/svg" xmlns:xlink="http://www.w3.org/1999/xlink" xmlns:svgjs="http://svgjs.com/svgjs" version="1.1" width="512" height="512" x="0" y="0" viewBox="0 0 512 512" style="enable-background:new 0 0 512 512" xml:space="preserve" class=""><g>
<g xmlns="http://www.w3.org/2000/svg" id="surface1">
<path d="M 311.660156 187.578125 L 411.339844 187.578125 L 411.339844 222.421875 L 311.660156 222.421875 Z M 311.660156 187.578125 " style=" stroke:none;fill-rule:nonzero;fill-opacity:1;" fill="#b7a440" data-original="#000000" class=""/>
<path d="M 100.660156 187.578125 L 200.339844 187.578125 L 200.339844 287.261719 L 100.660156 287.261719 Z M 100.660156 187.578125 " style=" stroke:none;fill-rule:nonzero;fill-opacity:1;" fill="#b7a440" data-original="#000000" class=""/>
<path d="M 0 0 L 0 410 L 512 410 L 512 0 Z M 195 66.875 L 317 66.875 L 317 96.875 L 195 96.875 Z M 230.339844 317.261719 L 70.660156 317.261719 L 70.660156 157.578125 L 230.339844 157.578125 Z M 426.339844 312.421875 L 296.660156 312.421875 L 296.660156 282.421875 L 426.339844 282.421875 Z M 441.339844 252.421875 L 281.660156 252.421875 L 281.660156 157.578125 L 441.339844 157.578125 Z M 441.339844 252.421875 " style=" stroke:none;fill-rule:nonzero;fill-opacity:1;" fill="#b7a440" data-original="#000000" class=""/>
</g>
</g></svg>
