<svg id="Capa_1" enable-background="new 0 0 512.005 512.005" height="512" viewBox="0 0 512.005 512.005" width="512" xmlns="http://www.w3.org/2000/svg"><path d="m473.332 38.674c-24.22-24.24-58.14-38.39-92.4-38.67-35.16-.28-69.56 14.03-94.53 38.67l-62.66 62.67c8.89-1.49 17.94-2.26 27.08-2.26 17.85 0 35.43 2.9 52.27 8.6 4.61 1.56 9.11 3.32 13.52 5.26l22.03-22.03c10.28-10.31 24.55-16.49 39.09-17.02 16.03-.59 32.03 5.68 43.37 17.02 22.73 22.74 22.73 59.72 0 82.46l-45.19 45.17-73.51 73.52c-14.29 14.29-36.02 20.24-55.6 15.26-17.07-4.34-31.86-16.86-38.96-32.98-.84-1.91-1.57-3.86-2.19-5.85l-54.69 55.04c5.1 7.63 11.01 14.71 17.56 21.14 14.67 14.4 32.61 25.53 52.17 31.92 3.52 1.15 7.09 2.15 10.7 2.98 42.12 9.74 88.67-2.76 120.2-32.34 1.03-.96 121.74-121.63 121.74-121.63 51.54-51.54 51.54-135.39 0-186.93zm-264.42 365.65c-4.61-1.56-9.11-3.32-13.52-5.26 0 0-22.03 22.03-22.03 22.04-10.34 10.34-24.65 16.52-39.26 17.02-15.94.54-31.95-5.7-43.2-17.03-22.73-22.73-22.73-59.72 0-82.46l124.48-123.21c2.58-2.61 5.72-4.6 8.99-6.25 14.95-7.56 33.2-8.26 48.68-1.87 15.94 6.57 29.06 20.76 33.71 37.45.04.14.08.28.12.42 0 0 55.25-55.25 55.28-55.28 1.46-1.47-15.99-20.19-17.77-21.96-6.99-6.93-14.76-13.09-23.09-18.34-16.66-10.49-35.62-17.39-55.2-19.67-39.39-4.58-80.76 9.6-108.73 37.79l-118.7 118.69c-51.54 51.54-51.54 135.39 0 186.93 24.37 24.38 58.53 38.55 92.99 38.67 34.79.12 69.33-14.07 93.94-38.67l62.66-62.66c-8.89 1.49-17.93 2.25-27.08 2.25-17.84 0-35.43-2.89-52.27-8.6z"/></svg>