<svg height="512" viewBox="0 0 50 50" width="512" xmlns="http://www.w3.org/2000/svg"><path d="M48.462 17.209l-.05 19.49c0 .19-.08.33-.19.39l-.64.38c-.11.05-.25.04-.41-.05l.13.08c.22.12.29.3.23.46.01-.03.04-.06.04-.09v1.5c0 .13-.1.26-.26.36l-16.85 8.91c-.34.2-.91.2-1.26 0l-1.17-.68-1.69.97c-.16.09-.43.09-.58 0l-4.73-2.75c-.08-.04-.12-.1-.12-.16v-.5c-.01-.07.03-.14.12-.19l1.22-.71-12.08-6.98c0 .01.01.02.01.03.12.14.24.3.34.45.06.09.12.17.17.26.1.16.2.33.28.5.05.09.1.18.14.28.08.18.16.36.22.54a6.61 6.61 0 01.25.91c.02.12.03.23.05.35 0 .07 0 .15.01.23.54.42.82.92.82 1.42v.91c-.01.33-.13.67-.37.98-.06.07-.14.15-.21.22 0 .03.01.06.01.09v.91c0 .34-.12.67-.37.98-.08.1-.17.21-.28.3-.15.14-.33.27-.53.39-.01 0-.01 0-.02.01-.09.05-.18.1-.27.14-.17.09-.34.16-.53.22-.09.03-.19.06-.29.09a4.549 4.549 0 01-.81.17c-.17.03-.35.05-.53.06-.1.01-.19.01-.28.01-.18.01-.36.01-.53 0-.1 0-.2-.01-.29-.02-.18-.01-.36-.04-.53-.07-.09-.01-.19-.03-.29-.05-.18-.04-.36-.09-.53-.14-.1-.03-.19-.07-.28-.1-.19-.07-.37-.15-.53-.25-.05-.02-.09-.04-.13-.06-.06-.04-.11-.07-.16-.11-.21-.13-.39-.27-.53-.43-.11-.11-.21-.23-.28-.36-.16-.25-.24-.53-.24-.8v-.92c0 .07.01.14.02.21-.07-.48.12-.97.56-1.4 0-.03-.01-.06-.01-.09v-.92c0-.6.4-1.21 1.19-1.67.06-.03.12-.05.17-.08-.35-.75-.55-1.54-.55-2.27 0-.91.32-1.55.85-1.85l.83-.48c.2-.12.42-.18.66-.19l-4.22-2.44c-.17-.09-.25-.23-.25-.36v-.62c0 .05.02.1.05.14-.09-.17-.03-.37.2-.51l16.85-9.78c.34-.2.87-.2 1.22-.02l-.12-.07c-.35-.2-.63-.69-.63-1.09l.05-19.48c0-.19.07-.32.17-.39l.01-.01c.01 0 .02-.01.03-.01l.61-.36c.11-.06.27-.05.45.05l26.03 15.03c.36.2.63.69.63 1.09z" fill="#e4e8f4"/><path d="M1.54 21.354l2.037 1.183-.283.163h.001l.004.856 4.948 2.876.078-.046 1.08.628 4.119-2.378v.001l.303-.176 5.486-3.167-.005-.855-1.58-.919 1.865-1.076-.005-.856-4.948-2.875-1.66.958-1.537-.894-3.974 2.295-.018-.01-.3.175-1.237.719-.294.17.011.007-4.096 2.365h.001z" fill="#e4e8f4"/><path d="M47.568 37.864v1.506c0 .13-.093.258-.259.36l-16.848 8.907c-.342.203-.914.203-1.256 0L3.166 33.6c-.175-.093-.258-.231-.258-.36v-.623c0 .13.092.268.258.36l26.039 15.038c.351.204.914.204 1.256 0l16.848-9.79c.176-.102.259-.232.259-.36z" fill="#474b59"/><path d="M47.306 37.497c.348.2.35.527.004.728l-16.845 9.79c-.345.2-.91.2-1.257 0L3.17 32.981c-.348-.2-.35-.528-.005-.729l16.845-9.789c.346-.2.91-.2 1.258 0z" fill="#5b5e71"/><path d="M48.465 17.206l-.056 19.49c0 .193-.074.332-.185.396l-.646.38c.11-.066.175-.204.185-.398l.055-19.49c0-.397-.286-.887-.637-1.09L21.15 1.466c-.175-.101-.342-.11-.452-.046l.655-.379c.111-.065.268-.055.444.046l26.038 15.029c.351.202.629.692.629 1.09z" fill="#474b59"/><path d="M47.205 16.478c.348.2.63.69.63 1.09l-.056 19.482c-.001.4-.285.562-.633.36L21.109 22.379c-.348-.2-.63-.69-.63-1.09l.056-19.482c.001-.4.285-.562.633-.36z" fill="#5b5e71"/><path d="M21.865 21.215l.05-17.738L46.449 17.64l-.05 17.74z" fill="#f9bb4a"/><g><path d="M20.76 28.474c.118.068.118.17.001.239l-1.19.691a.444.444 0 01-.412 0l-1.198-.691c-.117-.068-.118-.171-.001-.24l1.19-.69a.444.444 0 01.413 0zM22.047 27.227c.118.067.113.174.001.239l-1.195.694a.442.442 0 01-.407-.003l-1.198-.691c-.112-.065-.118-.172-.007-.236l1.196-.695a.464.464 0 01.413 0zM20.323 26.231c.118.068.113.175.002.24l-1.196.694a.442.442 0 01-.407-.003l-2.07-1.196c-.112-.064-.119-.17-.008-.235l1.196-.695a.464.464 0 01.413 0zM14.263 28.761c.112.065.118.172.007.236l-1.346.782a.464.464 0 01-.412 0l-1.204-.695c-.112-.064-.112-.174 0-.239l1.344-.782a.452.452 0 01.408.004zM24.683 26.758c.118.068.113.175.002.239l-1.196.695a.442.442 0 01-.407-.003l-1.198-.692c-.117-.068-.118-.171-.007-.236l1.196-.695a.454.454 0 01.413 0zM26.44 27.772c.112.065.113.175.002.24l-1.196.694a.452.452 0 01-.407-.003l-1.203-.695c-.112-.064-.113-.168-.001-.232l1.195-.695a.452.452 0 01.407-.003zM43.079 39.37c.117.067.112.174.001.238l-1.195.695a.442.442 0 01-.408-.003l-1.197-.692c-.118-.068-.118-.171-.007-.236l1.195-.694a.453.453 0 01.413 0zM45.925 37.715c.118.068.118.171.002.239l-.556.323a.444.444 0 01-.413 0l-1.198-.692c-.117-.067-.118-.17-.001-.239l.556-.323a.444.444 0 01.413 0zM35.023 31.42c.112.065.119.172.002.24l-.556.323a.454.454 0 01-.413 0l-1.203-.695c-.112-.065-.113-.168.004-.236l.556-.323a.442.442 0 01.407-.003zM36.842 32.47c.112.065.118.172.002.24l-.556.323a.454.454 0 01-.413 0l-1.203-.695c-.112-.064-.118-.171-.002-.239l.556-.323a.454.454 0 01.413 0zM30.794 32.277c.112.064.107.171-.004.236l-1.195.694a.44.44 0 01-.402 0l-1.203-.694c-.112-.065-.118-.172-.007-.236l1.195-.695a.463.463 0 01.413 0zM35.216 32.839c.117.068.112.174.001.239l-1.195.695a.442.442 0 01-.408-.003l-1.197-.692c-.118-.068-.118-.171-.007-.236l1.195-.695a.454.454 0 01.413 0zM38.656 33.518c.117.067.118.17 0 .239l-.555.323a.444.444 0 01-.413 0l-1.197-.692c-.118-.068-.119-.171-.002-.239l.556-.323a.444.444 0 01.413 0zM32.546 33.288c.118.068.113.175.001.24l-1.195.694a.442.442 0 01-.407-.003l-1.198-.692c-.117-.068-.118-.171-.007-.236l1.196-.694a.453.453 0 01.412 0zM29.502 33.52c.117.069.118.172.001.24l-1.19.691a.444.444 0 01-.413 0l-1.197-.691c-.118-.068-.118-.171-.002-.24l1.19-.69a.444.444 0 01.413 0zM36.973 33.853c.112.065.112.175.001.24l-1.195.694a.452.452 0 01-.407-.003l-1.204-.695c-.112-.064-.118-.17-.006-.236l1.195-.694a.464.464 0 01.413 0zM40.474 34.568c.118.068.118.17.002.239l-.556.323a.444.444 0 01-.413 0l-1.203-.695c-.112-.064-.113-.168.004-.236l.556-.323a.442.442 0 01.407-.003zM34.303 34.303c.112.064.113.174.002.239l-1.196.695a.452.452 0 01-.407-.004L31.5 34.54c-.112-.065-.118-.172-.007-.236l1.195-.695a.464.464 0 01.413 0zM31.26 34.535c.111.065.117.172 0 .24l-1.19.69a.454.454 0 01-.412 0l-1.204-.694c-.112-.064-.118-.171 0-.239l1.19-.691a.454.454 0 01.412 0zM38.73 34.868c.112.065.113.175.002.24l-1.196.694a.452.452 0 01-.407-.003l-1.203-.695c-.112-.065-.118-.171-.007-.236l1.195-.695a.464.464 0 01.413 0zM28.751 35.014c.112.064.113.174.002.239l-1.195.694a.452.452 0 01-.408-.003l-1.203-.695c-.112-.064-.118-.17-.007-.236l1.195-.694a.464.464 0 01.413 0zM42.293 35.618c.112.064.118.171.002.239l-.556.323a.454.454 0 01-.413 0l-1.203-.695c-.112-.064-.118-.171-.002-.239l.556-.323a.454.454 0 01.413 0zM36.06 35.317c.113.065.113.175.002.24l-1.195.694a.452.452 0 01-.407-.003l-1.204-.695c-.117-.068-.118-.171-.007-.236l1.196-.694a.453.453 0 01.412 0zM33.016 35.55c.112.064.118.171.002.239l-1.19.692a.454.454 0 01-.413 0l-1.203-.695c-.112-.065-.118-.171-.002-.24l1.19-.69a.454.454 0 01.413 0zM40.482 35.88c.118.067.112.174.001.238l-1.195.695a.442.442 0 01-.407-.003l-1.198-.691c-.118-.068-.118-.172-.007-.236l1.196-.695a.454.454 0 01.412 0zM30.503 36.025c.118.068.113.174.001.24l-1.195.694a.442.442 0 01-.407-.004l-1.198-.691c-.117-.068-.118-.171-.007-.236l1.196-.694a.453.453 0 01.412 0zM44.112 36.668c.112.065.113.168-.004.236l-.556.323a.442.442 0 01-.407.003l-1.204-.695c-.117-.067-.118-.17 0-.239l.555-.323a.444.444 0 01.413 0zM37.812 36.329c.118.067.113.174.002.239l-1.196.694a.442.442 0 01-.407-.003l-1.197-.691c-.118-.068-.119-.172-.008-.236l1.196-.695a.453.453 0 01.413 0zM34.768 36.561c.118.068.118.171.001.24l-1.19.69a.444.444 0 01-.412 0l-1.198-.69c-.118-.068-.118-.172-.001-.24l1.19-.691a.444.444 0 01.412 0zM42.206 36.875c.112.064.112.174.001.239l-1.195.694a.452.452 0 01-.408-.003l-1.203-.694c-.112-.065-.118-.172-.007-.236l1.196-.695a.464.464 0 01.412 0zM32.26 37.04c.112.064.113.174.002.239l-1.196.694a.452.452 0 01-.407-.003l-1.203-.695c-.112-.064-.113-.168-.001-.232l1.195-.695a.452.452 0 01.407-.003zM39.57 37.343c.112.065.112.175.001.24l-1.195.694a.452.452 0 01-.408-.003l-1.203-.695c-.112-.065-.118-.171-.007-.236l1.196-.695a.464.464 0 01.412 0zM36.525 37.576c.112.064.118.171.002.239l-1.19.691a.454.454 0 01-.413 0l-1.203-.694c-.112-.065-.113-.168.004-.236l1.19-.692a.442.442 0 01.407-.003zM34.018 38.054c.112.065.107.171-.005.236l-1.195.695a.44.44 0 01-.402 0l-1.203-.695c-.112-.065-.118-.171-.007-.236l1.196-.695a.464.464 0 01.412 0zM41.321 38.355c.118.067.113.174.002.239l-1.196.694a.442.442 0 01-.407-.003l-1.197-.691c-.112-.065-.119-.172-.008-.236l1.196-.695a.463.463 0 01.413 0zM30.806 38.312c.112.065.118.172.007.236l-1.345.782a.463.463 0 01-.413 0l-1.584-.914c-.112-.065-.113-.175-.001-.24l1.345-.781a.452.452 0 01.407.003zM38.283 38.59c.112.065.118.172.001.24l-1.19.691a.454.454 0 01-.413 0l-1.203-.695c-.112-.064-.118-.171-.001-.239l1.19-.691a.454.454 0 01.412 0zM35.77 39.065c.111.065.112.175 0 .24l-1.195.694a.452.452 0 01-.407-.003l-1.198-.692c-.117-.067-.118-.17-.006-.235l1.195-.695a.453.453 0 01.413 0zM32.647 39.376c.118.067.118.17.007.235l-1.345.782a.453.453 0 01-.413 0l-1.231-.71c-.118-.068-.113-.175-.002-.24l1.346-.781a.442.442 0 01.407.003zM41.338 40.355c.112.064.113.168-.004.235l-1.19.692a.442.442 0 01-.407.003l-2.49-1.438c-.112-.064-.119-.17-.002-.239l1.19-.691a.454.454 0 01.413 0zM33.637 40.836c.112.065.118.171.007.236l-.578.336a.463.463 0 01-.413 0l-1.237-.714c-.111-.065-.112-.175 0-.24l.577-.335a.452.452 0 01.407.003zM39.62 41.353c.112.065.113.168-.004.236l-1.19.691a.442.442 0 01-.407.004l-3.352-1.936c-.112-.065-.118-.171-.002-.239l1.19-.691a.454.454 0 01.413 0zM36.162 41.405c.112.064.118.17.007.236l-1.346.781a.464.464 0 01-.412 0l-1.237-.714c-.112-.064-.113-.174-.002-.239l1.346-.782a.452.452 0 01.407.004zM37.169 42.875c.117.068.118.171.007.236l-.579.336a.453.453 0 01-.412 0l-1.232-.711c-.117-.068-.112-.175 0-.24l.577-.335a.442.442 0 01.407.003z" fill="#474b59"/><g><path d="M29.572 28.273c.112.065.119.172.002.24l-.556.323a.454.454 0 01-.413 0l-1.203-.695c-.112-.065-.118-.171-.001-.24l.555-.322a.454.454 0 01.413 0zM28.198 28.787c.112.065.112.175.001.24l-1.195.694a.452.452 0 01-.408-.003l-1.203-.695c-.112-.065-.118-.171-.007-.236l1.196-.695a.464.464 0 01.413 0zM31.386 29.32c.117.068.118.172.001.24l-.556.323a.444.444 0 01-.413 0l-1.197-.692c-.112-.065-.118-.171-.002-.24l.556-.322a.454.454 0 01.413 0zM29.95 29.798c.117.068.112.175 0 .24l-1.195.694a.442.442 0 01-.407-.003l-1.198-.691c-.117-.068-.118-.172-.006-.236l1.195-.695a.454.454 0 01.413 0zM33.205 30.37c.117.068.118.172 0 .24l-.555.323a.444.444 0 01-.413 0l-1.197-.692c-.118-.068-.119-.171-.002-.239l.556-.323a.444.444 0 01.413 0zM31.707 30.813c.112.065.112.175.001.24l-1.195.694a.452.452 0 01-.408-.003l-1.203-.695c-.112-.065-.118-.171-.007-.236l1.196-.695a.464.464 0 01.413 0zM33.464 31.828c.112.064.107.17-.004.235l-1.196.695a.44.44 0 01-.401 0l-1.204-.694c-.112-.065-.118-.172-.006-.236l1.195-.695a.464.464 0 01.413 0z" fill="#474b59"/></g><g><path d="M25.528 29.236c.112.065.113.175.001.24l-1.195.694a.452.452 0 01-.407-.003l-1.203-.695c-.112-.065-.118-.171-.007-.236l1.195-.694a.464.464 0 01.413 0zM27.28 30.248c.117.067.112.174.001.239l-1.195.694a.442.442 0 01-.407-.003l-1.198-.691c-.118-.068-.118-.172-.007-.236l1.195-.695a.453.453 0 01.413 0z" fill="#474b59"/></g><g><path d="M22.484 29.469c.112.064.118.171.001.239l-1.19.692a.454.454 0 01-.413 0l-1.203-.695c-.112-.065-.118-.171-.001-.24l1.19-.69a.454.454 0 01.413 0z" fill="#474b59"/></g><g><path d="M18.096 28.926c.118.068.118.171.001.24l-1.19.69a.444.444 0 01-.412 0l-3.207-1.85c-.117-.069-.118-.172-.001-.24l1.19-.691a.444.444 0 01.412 0zM16.01 29.77c.117.067.117.17.006.235l-1.345.782a.453.453 0 01-.413 0l-1.198-.691c-.117-.068-.113-.175-.001-.24l1.345-.781a.442.442 0 01.407.003zM19.97 29.944c.118.068.113.174.002.24l-1.195.694a.442.442 0 01-.408-.003l-1.197-.692c-.118-.068-.118-.171-.007-.236l1.195-.694a.453.453 0 01.413 0zM17.76 30.78c.113.065.119.172.008.237l-1.346.782a.464.464 0 01-.413 0l-1.203-.695c-.112-.065-.112-.175-.001-.24l1.345-.781a.452.452 0 01.408.003zM21.728 30.959c.112.064.112.174.001.239l-1.195.694a.452.452 0 01-.407-.003l-1.204-.695c-.112-.064-.112-.168 0-.232l1.194-.695a.452.452 0 01.408-.003zM19.887 32.009c.118.067.119.17.007.236l-1.345.781a.453.453 0 01-.413 0l-1.578-.91c-.118-.069-.113-.175-.001-.24l1.345-.782a.442.442 0 01.407.003z" fill="#474b59"/></g><g><path d="M19.025 27.472c.112.065.113.168-.004.236l-1.19.691a.442.442 0 01-.407.004l-2.49-1.438c-.113-.065-.119-.171-.002-.24l1.19-.69a.454.454 0 01.413 0z" fill="#474b59"/></g><g><path d="M22.931 25.747c.112.064.113.174.002.239l-1.196.694a.452.452 0 01-.407-.003l-1.203-.694c-.112-.065-.118-.172-.007-.236l1.195-.695a.464.464 0 01.413 0z" fill="#474b59"/></g><g><path d="M22.303 24.076c.112.065.118.171.001.24l-.556.322a.454.454 0 01-.413 0l-1.203-.694c-.112-.065-.118-.172-.001-.24l.556-.322a.454.454 0 01.412 0z" fill="#474b59"/></g><g><path d="M24.122 25.126c.111.065.118.172 0 .24l-.555.323a.454.454 0 01-.413 0l-1.203-.695c-.112-.065-.118-.171-.001-.24l.556-.322a.454.454 0 01.412 0z" fill="#474b59"/></g><g><path d="M21.174 24.732c.112.065.113.175.002.24l-1.196.694a.452.452 0 01-.407-.003l-1.204-.695c-.111-.065-.118-.171-.006-.236l1.195-.695a.464.464 0 01.413 0z" fill="#474b59"/></g><g><path d="M27.754 27.223c.112.065.118.172.001.24l-.556.323a.454.454 0 01-.413 0l-1.203-.695c-.112-.065-.112-.168.004-.236l.556-.323a.442.442 0 01.407-.003z" fill="#474b59"/></g><g><path d="M25.993 31.495c.112.064.118.171.001.239l-1.19.691a.454.454 0 01-.413 0l-1.203-.694c-.112-.065-.112-.168.004-.236l1.19-.692a.442.442 0 01.408-.003z" fill="#474b59"/></g><g><path d="M23.485 31.973c.112.065.113.175.001.24l-1.195.694a.452.452 0 01-.407-.003l-1.203-.695c-.112-.065-.118-.171-.007-.236l1.195-.695a.463.463 0 01.413 0z" fill="#474b59"/></g><g><path d="M24.236 30.48c.117.068.118.171 0 .24l-1.19.69a.444.444 0 01-.412 0l-1.198-.69c-.117-.068-.118-.172 0-.24l1.19-.691a.444.444 0 01.412 0z" fill="#474b59"/></g><g><path d="M25.935 26.173c.117.068.118.171.001.24l-.556.322a.444.444 0 01-.413 0l-1.197-.691c-.118-.068-.118-.171-.002-.24l.556-.322a.444.444 0 01.413 0z" fill="#474b59"/></g><g><path d="M26.994 34c.112.064.113.173.001.238l-1.195.695a.452.452 0 01-.407-.003l-1.203-.695c-.112-.065-.118-.171-.007-.236l1.195-.695a.464.464 0 01.413 0z" fill="#474b59"/></g><g><path d="M27.75 32.51c.112.064.118.17.001.238l-1.19.692a.454.454 0 01-.412 0l-1.204-.695c-.112-.064-.118-.17 0-.239l1.19-.691a.454.454 0 01.412 0zM25.237 32.984c.117.068.112.175.001.24l-1.195.694a.442.442 0 01-.407-.003l-1.198-.691c-.118-.068-.118-.172-.007-.236l1.195-.695a.453.453 0 01.413 0zM28.657 37.072c.112.064.118.171.007.236l-1.345.782a.464.464 0 01-.413 0l-8.177-4.721c-.117-.068-.112-.175-.001-.24l1.345-.781a.442.442 0 01.408.003z" fill="#474b59"/></g><g><path d="M29.037 31.262c.112.065.113.175.001.24l-1.195.694a.452.452 0 01-.407-.003l-1.203-.695c-.112-.065-.118-.171-.007-.236l1.195-.694a.464.464 0 01.413 0z" fill="#474b59"/></g><g><path d="M23.77 28.222c.113.064.114.174.002.239l-1.195.695a.452.452 0 01-.407-.004l-1.204-.694c-.111-.065-.118-.172-.007-.236l1.196-.695a.464.464 0 01.413 0z" fill="#474b59"/></g><g><path d="M44.797 38.37c.117.068.112.175.001.24l-1.195.694a.442.442 0 01-.408-.003l-2.07-1.195c-.112-.065-.118-.172-.007-.236l1.195-.695a.464.464 0 01.413 0z" fill="#474b59"/></g></g><g><path d="M31.23 16.889v-.95l-.416-.244.008 1.406 6.643 3.855v-.44z" fill="#e5a03c"/><path d="M37.465 20.516l-.008-.958-6.227-3.62v.95z" fill="#efac41"/><g><path d="M31.456 35.818l-5.744-3.338c.302.175.72.15 1.182-.116.915-.529 1.658-1.816 1.655-2.868l5.745 3.339c.002 1.051-.741 2.339-1.656 2.867-.462.267-.88.291-1.182.116z" fill="#e4e8f4"/><path d="M31.37 35.966l-5.744-3.339c-.32-.185-.519-.58-.52-1.143l5.744 3.339c.002.562.2.957.52 1.143z" fill="#d4dae8"/><path d="M34.294 32.835l-5.745-3.339-.022-7.728 5.745 3.338zM25.26 39.21l-5.744-3.338c.256.15.611.129 1.002-.097.78-.45 1.412-1.544 1.41-2.435l5.744 3.338c.002.892-.629 1.985-1.41 2.436-.39.225-.745.245-1.002.096z" fill="#e4e8f4"/><path d="M34.272 25.106l-5.745-3.338c-.006-2.033 1.43-4.519 3.199-5.54l5.744 3.338c-1.77 1.021-3.204 3.507-3.198 5.54z" fill="#e4e8f4"/><path d="M29.177 21.763l.958.553-.003 1.004-.958-.553zm.826 1.335l.002-.71-.7-.404-.002.71zM31.688 23.972v.121l-1.354-.782v-.12zM33.566 24.739v.121l-3.231-1.865v-.121zM33.566 24.421v.121l-3.23-1.865v-.121zM29.177 23.23l.958.554-.003 1.004-.958-.553zm.826 1.336l.002-.71-.7-.403-.002.708zM31.688 25.44v.121l-1.354-.782v-.12zM33.566 26.207v.121l-3.231-1.865v-.121zM33.566 25.89v.12l-3.23-1.865v-.121zM29.177 24.699l.958.553-.003 1.004-.958-.553zm.826 1.335l.002-.71-.7-.403-.002.708zM31.688 26.908v.121l-1.354-.782v-.12zM33.566 27.675v.121l-3.231-1.865v-.121zM33.566 27.357v.121l-3.23-1.865v-.121zM29.177 26.167l.958.553-.003 1.004-.958-.553zm.826 1.335l.002-.71-.7-.403-.002.708zM31.688 28.376v.121l-1.354-.782v-.12zM33.566 29.143v.121L30.334 27.4v-.121zM33.566 28.825v.121l-3.23-1.865v-.12zM29.177 27.635l.958.553-.003 1.004-.958-.553zm.826 1.335l.002-.71-.7-.403-.002.709zM31.688 29.844v.121l-1.354-.781v-.121zM33.566 30.611v.121l-3.231-1.865v-.121zM33.566 30.293v.121l-3.23-1.865v-.12z" fill="#bac1ce"/><g><path d="M29.177 29.044l.958.553-.003 1.004-.958-.553zm.826 1.335l.002-.71-.7-.404-.002.71zM31.688 31.253v.121l-1.354-.782v-.12zM33.566 32.02v.12l-3.231-1.864v-.121zM33.566 31.702v.121l-3.23-1.865v-.121z" fill="#bac1ce"/></g><g><path d="M29.177 30.452l.958.554-.003 1.004-.958-.553zm.826 1.335l.002-.708-.7-.405-.002.71zM31.688 32.662v.12l-1.354-.78v-.122zM33.566 33.429v.12l-3.231-1.864v-.121zM33.566 33.11v.122l-3.23-1.865v-.121z" fill="#bac1ce"/></g><g><path d="M30.85 34.823l-5.744-3.339-.02-6.916 5.745 3.338z" fill="#d4dae8"/></g><g><path d="M25.174 39.36l-5.745-3.339c-.275-.16-.445-.499-.446-.981l5.744 3.338c.002.483.172.822.447.982z" fill="#d4dae8"/></g><g><path d="M24.64 23.59l5.745 3.34c.274.158.444.497.446.976l-5.745-3.338c-.001-.48-.171-.818-.445-.977z" fill="#d4dae8"/></g><g><path d="M27.672 36.678l-5.745-3.338-.02-6.937 5.745 3.338z" fill="#e4e8f4"/></g><g><path d="M24.726 23.444l5.745 3.339c-.301-.175-.718-.151-1.176.113-.911.526-1.646 1.804-1.643 2.845l-5.744-3.338c-.003-1.041.731-2.32 1.642-2.845.459-.265.875-.289 1.176-.114z" fill="#e4e8f4"/></g><g><path d="M22.654 26.57l.901.52-.002.944-.901-.52zm.777 1.255l.002-.666-.658-.38-.002.666zM25.016 28.648v.113l-1.273-.735v-.114zM26.781 29.368v.114l-3.038-1.753v-.114zM26.782 29.07v.113l-3.038-1.753v-.114zM22.654 27.95l.901.52-.002.945-.901-.52zm.777 1.256l.002-.667-.658-.38-.002.666zM25.016 30.028v.114l-1.273-.735v-.114zM26.781 30.749v.114l-3.038-1.754v-.114zM26.782 30.45v.114l-3.038-1.754v-.114z" fill="#bac1ce"/><g><path d="M22.654 29.33l.901.521-.002.944-.901-.52zm.777 1.256l.002-.667-.658-.38-.002.667zM25.016 31.408v.114l-1.273-.735v-.114zM26.781 32.13v.113l-3.038-1.754v-.113zM26.782 31.83v.114l-3.038-1.754v-.113z" fill="#bac1ce"/></g><g><path d="M22.654 30.711l.901.52-.002.945-.901-.52zm.777 1.255l.002-.666-.658-.38-.002.666zM25.016 32.789v.113l-1.273-.735v-.113zM26.781 33.51v.113l-3.038-1.753v-.114zM26.782 33.21v.114l-3.038-1.753v-.114z" fill="#bac1ce"/></g><g><path d="M22.654 32.091l.901.52-.002.945-.901-.52zm.777 1.256l.002-.667-.658-.38-.002.667zM25.016 34.169v.114l-1.273-.735v-.114zM26.781 34.89v.114l-3.038-1.754v-.114zM26.782 34.591v.114l-3.038-1.754v-.114z" fill="#bac1ce"/></g><g><path d="M22.654 33.416l.901.52-.002.945-.901-.52zm.777 1.255l.002-.666-.658-.38-.002.666zM25.016 35.494v.113l-1.273-.735v-.113zM26.781 36.215v.113l-3.038-1.753v-.114zM26.782 35.916v.114l-3.038-1.754v-.114z" fill="#bac1ce"/></g><g><path d="M22.654 34.74l.901.521-.002.944-.901-.52zm.777 1.256l.002-.667-.658-.38-.002.667zM25.016 36.818v.114l-1.273-.735v-.114zM26.781 37.54v.113L23.743 35.9v-.113zM26.782 37.24v.114L23.744 35.6v-.113z" fill="#bac1ce"/></g></g><g><path d="M19.337 42.638L13.593 39.3c.276.16.658.138 1.08-.105.836-.483 1.515-1.659 1.512-2.62l5.745 3.338c.003.962-.676 2.137-1.513 2.62-.421.244-.803.266-1.08.105z" fill="#e4e8f4"/></g><g><path d="M18.583 30.558l5.744 3.338c.24.14.389.435.39.854l-5.745-3.338c0-.42-.15-.715-.39-.854z" fill="#d4dae8"/></g><g><path d="M24.727 38.378l-5.744-3.338-.01-3.628 5.744 3.338z" fill="#d4dae8"/></g><g><path d="M21.93 39.913l-5.745-3.338-.01-3.548 5.745 3.338z" fill="#e4e8f4"/></g><g><path d="M20.17 37.288c-.002.7-.497.983-1.106.63-.61-.35-1.1-1.203-1.099-1.903.002-.7.497-.982 1.106-.63.61.351 1.102 1.204 1.1 1.903z" fill="#75ca75"/><path d="M19.492 36.973c.036.072.054.15.054.234 0 .105-.034.175-.1.21-.067.037-.163.028-.288-.027v.213l-.166-.095V37.3a1.523 1.523 0 01-.412-.39l.091-.181a1.333 1.333 0 00.322.322v-.32a2.447 2.447 0 01-.198-.186.825.825 0 01-.136-.196.52.52 0 01-.054-.236c0-.106.034-.177.101-.214.067-.037.164-.028.29.029v-.211l.166.095v.208a1.4 1.4 0 01.336.31l-.083.187a1.306 1.306 0 00-.254-.246v.324c.077.066.142.126.196.183a.813.813 0 01.135.195zm-.497-.521v-.27c-.042-.014-.073-.013-.093 0-.02.013-.03.037-.03.07 0 .031.01.063.032.096a.55.55 0 00.09.104m.255.689c.02-.012.03-.033.03-.065a.174.174 0 00-.031-.096.593.593 0 00-.089-.105v.264c.04.012.07.013.09.002" fill="#65aa65"/></g><g><path d="M19.25 42.788l-5.744-3.339c-.294-.17-.476-.534-.478-1.052l5.745 3.339c.001.517.184.88.478 1.052z" fill="#d4dae8"/></g><g><path d="M18.668 30.41l5.745 3.338c-.266-.154-.634-.133-1.04.102-.803.463-1.456 1.593-1.453 2.515l-5.745-3.338c-.002-.922.65-2.053 1.453-2.516.406-.234.775-.256 1.04-.101z" fill="#e4e8f4"/></g><g><path d="M18.769 40.345l-5.745-3.338.122-.07 5.744 3.338z" fill="#d4dae8"/></g><g><path d="M18.773 41.736l-5.745-3.339-.004-1.39 5.745 3.338z" fill="#d4dae8"/></g><g><path d="M37.47 19.566v.14c-1.704.983-3.083 3.372-3.077 5.33l.022 7.729c.003 1.13-.797 2.51-1.777 3.077-.984.568-1.785.112-1.788-1.02l-.02-6.916c-.002-.967-.69-1.358-1.535-.87-.841.486-1.524 1.669-1.522 2.635l.02 6.937c.003.971-.684 2.157-1.53 2.645s-1.533.097-1.536-.875l-.01-3.628c-.003-.847-.607-1.187-1.344-.761-.738.426-1.334 1.459-1.332 2.306l.01 3.548c.003 1.041-.732 2.31-1.634 2.83-.906.523-1.641.104-1.644-.937l-.004-1.39.121-.07.004 1.39c.003.961.686 1.35 1.523.867.837-.483 1.516-1.658 1.513-2.62l-.01-3.548c-.003-.922.65-2.052 1.452-2.515.807-.466 1.464-.092 1.466.83l.01 3.628c.003.892.638 1.254 1.415.806.78-.451 1.411-1.544 1.409-2.436l-.02-6.937c-.003-1.041.732-2.319 1.643-2.845.91-.525 1.654-.101 1.657.94l.02 6.917c.003 1.051.747 1.48 1.666.95.915-.53 1.658-1.817 1.656-2.868l-.022-7.729c-.006-2.033 1.429-4.519 3.198-5.54z" fill="#bac1ce"/></g></g></g><g><path d="M34.898 43.89c0 .06-.041.123-.124.17l-8.43 4.869a.638.638 0 01-.587 0l-4.728-2.746c-.08-.048-.12-.108-.12-.168v-.516c0 .06.04.12.12.168l4.725 2.746a.638.638 0 00.586 0l8.434-4.868c.083-.048.12-.111.12-.171z" fill="#e63044"/><path d="M21.032 45.326c-.164.095-.165.246-.004.34l4.727 2.747c.16.093.422.093.586-.001l8.433-4.869c.161-.093.162-.245.002-.338l-4.728-2.747a.645.645 0 00-.584 0z" fill="#f25574"/><path d="M25.047 44.355c-.073-.5.239-.99.854-1.346.115-.066.239-.128.37-.18.086-.038.176-.07.27-.1.073-.024.148-.045.224-.066.068-.016.138-.034.206-.048a4.897 4.897 0 011.255-.096l.063.005c.66.042 1.279.212 1.749.485.468.272.762.632.833 1.016l.005.034c.073.5-.237.991-.852 1.347-.615.355-1.464.532-2.327.489l-.061-.005c-.66-.041-1.28-.212-1.749-.484-.47-.274-.762-.633-.833-1.016zm3.25-1.745c.02.22-.032.444-.157.648.247.102.497.223.738.36l1.002-.578c-.434-.238-.987-.388-1.582-.43m-2.357 2.704l1.002-.578a4.94 4.94 0 01-.62-.429c-.355.07-.739.102-1.119.09.07.344.328.665.737.917m4.043-2.214l-1.002.579c.237.14.443.284.618.428.355-.071.739-.102 1.119-.09-.068-.343-.328-.665-.735-.917m-2.359 2.703a1.08 1.08 0 01.158-.648 6.381 6.381 0 01-.736-.359l-1.002.578c.433.237.987.389 1.58.43m.169.01c.088.003.176.002.263 0h.034c.088-.003.174-.008.262-.015l.034-.003c.085-.007.17-.018.257-.03l.029-.004c.084-.014.168-.03.253-.047l.023-.005c.084-.02.165-.04.246-.064l.02-.005c.082-.025.161-.05.238-.08l.015-.004.068-.029c-.437.027-1.021-.09-1.624-.32-.11.191-.16.4-.138.605zm2.496-.731l.007-.009c.05-.043.095-.09.137-.137l.01-.012c.04-.046.077-.094.11-.141l.008-.016c.03-.047.058-.095.082-.144l.007-.019a.924.924 0 00.053-.146l.007-.021c.011-.05.02-.099.026-.15v-.023a.695.695 0 00-.003-.149v-.012a4.628 4.628 0 00-1.045.077c.4.351.596.689.548.942l.053-.04m-2.16-2.48c-.088-.004-.175-.006-.26-.004l-.038.001a5.066 5.066 0 00-.258.015l-.035.003a6.708 6.708 0 00-.256.03l-.03.005c-.085.014-.17.03-.252.046l-.025.006c-.083.019-.165.04-.244.062l-.022.006c-.08.024-.161.05-.239.078l-.012.006-.07.03c.437-.027 1.02.088 1.624.32.11-.192.162-.4.138-.605zm-2.493.728l-.009.007c-.05.046-.095.093-.137.14l-.01.01a2.588 2.588 0 00-.11.143l-.008.014a1.54 1.54 0 00-.082.146l-.007.017c-.022.05-.04.1-.055.15l-.003.018c-.015.05-.02.1-.026.151l-.002.02a.87.87 0 000 .153l.003.011a4.72 4.72 0 001.045-.078c-.4-.35-.596-.688-.55-.94-.015.012-.033.024-.049.038m4.329 1.98c.277-.214.09-.65-.426-1.1a3.428 3.428 0 00-.898.33zm-.105.06l-1.324-.769a1.823 1.823 0 00-.572.52c.774.3 1.526.41 1.896.25m-2.475-1.56c.252-.152.443-.326.574-.518-.776-.301-1.528-.412-1.896-.25zm-1.427-.708c-.279.212-.091.649.426 1.1.332-.077.636-.188.896-.332zm2.004 1.043l.813-.47a6.283 6.283 0 00-.69-.334c-.14.197-.338.375-.595.53zm.575.334a3.59 3.59 0 01.916-.342 4.789 4.789 0 00-.575-.401l-.813.47zm-.576-.213l-.81.468c.222.128.455.24.687.335.14-.196.338-.375.595-.53zm-.575-.335a3.586 3.586 0 01-.916.343c.164.135.357.27.576.4l.811-.469zM22.592 45.812l.01.022.016.025.01.025-.009.023.036.038.045.009.028.007.032.002.014-.005.014-.002-.002-.005.012.004.023-.01.004-.019-.012-.019.004-.004-.01-.009.024-.004-.002-.02.016-.007.023-.013.026-.01.038-.009.016-.011h.02l.005-.019-.025-.01-.014-.017-.018-.02-.022-.008.018-.001-.018-.006-.018.01-.052.003-.037.01-.018-.009-.022.01-.026.014-.03-.009-.015.006-.014.015-.004.012.016.012-.02.023c-.024.012-.042-.017-.062-.024zM23.101 44.763l-.004.012.004.007.006.008.016-.002.015-.004.032-.014.01-.006.006-.005-.008-.005v-.007h-.016l.02-.01h-.006l-.022.005-.006.008-.008.003-.012.007zM23.279 45.43l.052.027.069.016.026-.001-.002-.022-.048-.026-.047.006z" fill="#e63044"/><path d="M22.138 45.147l-.008.017-.02.014-.02.009v.014l.043.002.045-.011.034-.002-.048.012-.027.01-.006.013-.034.013.012.01-.02.011-.014.009-.01-.004-.027.013-.002.027.008.011h-.024l-.004.007-.012.007-.014.009-.017.004-.01.004-.01-.001-.034.017-.018.015-.012.01.006.005-.008.005.003.005-.016.01-.042.026.006.003-.024.026-.019.01-.01.011-.004.01-.008-.005-.052.023-.025.045-.01.015-.012.018.02.005.01.006.006-.008.008-.007.002-.006.01-.006.006-.006-.002-.008.027.006.008-.016.01.01-.002.006.004.005.01.005.012-.009.014-.003.03-.006h.026l.01-.012.049-.014.018.006.016.01.028.006h.025l.022-.008.034.006-.028-.014-.01-.018-.032-.007-.03.002-.02.007-.019-.002-.032-.002.012-.005.028-.004-.01-.006.018-.006.017-.01.042.007.002-.013.022-.006.027-.025.028-.004.022-.009.038.004.022-.001.019-.001-.006.013-.003.008-.022.006.002.012.014.004.028.004.047.013.036.007.026-.01.043-.006.026.004.012-.003.018.025.022-.004-.018-.01.002-.016-.002-.012.014-.006-.008-.01.022.002.025-.005-.004.01-.009.006h.013l.012.012.008.016.054.018h.06l.025-.007.046-.015.034-.006.008.026.04.025.02-.007.019.001-.01-.01.01-.008.012-.024.028.024-.008.02.016.017.016-.005-.006-.024-.012-.021-.044-.04.022.001-.014-.008-.008-.019-.006-.022.033-.009.01-.001.016-.003H22.908l.008-.008.045.021.022.004.016.004-.002-.015.002-.01-.008-.01-.028-.028-.034-.02.028-.002-.01-.02v-.02l.04-.024.025-.019.01-.015.014-.013.01-.027c.018.01.033.032.017.042a.047.047 0 01-.023.004l-.012.012-.008.018.026.009h.05l.015-.005.034-.004.01-.008.018.001.01-.005.02-.003-.01-.029-.01-.015v-.012l-.011-.014-.004-.014-.008-.014v-.007l.004-.005-.008-.025.024.02.014.03.01.017.008.014v.012l.008.007.004.01-.002.015.014.01-.035.015-.036.014c.034.009.062.025.1.021l.02-.002.023.001.052-.004.032.018.025.026.036.016.026-.003.02-.003.026.006.038.015.02-.004.019.008.038.006.046-.004.045-.023.012-.021-.016-.012-.004-.011-.046-.05-.016-.022-.034-.006-.022-.017-.022-.013-.016-.037-.028-.017.008-.02.01-.03.036-.007.01-.008.017-.002.024-.012.016-.01.002-.03-.004-.015.002-.013-.028-.025.002-.013-.022-.013-.034-.008-.018.01-.02-.007-.05-.008-.029.005-.034-.01-.024.002c-.028-.007.014-.027.002-.032h-.012l-.01-.006-.022-.015-.037.026-.02.007-.01-.01-.01-.016-.008-.019-.014.013h-.016l-.043.008-.04.005-.018-.001-.016.005-.034-.016-.039-.005.037-.026-.048-.019-.03.013-.023-.003-.016.002-.018-.01h-.022l-.033.003-.028.007-.024.01-.014.003h-.01l-.027.016-.02.007-.002.013-.02.02-.006.023.03.006.03-.018.006.013-.02.017-.048.002-.017.012-.024.004-.024.003-.022.017-.045.01H22.6l-.022.014-.016-.007-.02.018-.017.021-.016-.016-.022-.004h-.034l-.006.012.03.01.018.02.054.006-.026.018-.054-.013-.006-.013-.002-.006-.014-.01-.022-.006.005.027-.02-.01-.02.01-.006.015c-.014-.004.008-.033-.024-.016l-.035.017-.014.013-.01-.02-.044.012-.028.014-.027.006-.014.008zM23.325 44.36l-.016.016-.018.008-.01.017.054-.013.047-.005.044-.007.036.007.039.005.024.007.026-.01.036-.021.025-.01.008.005h.016l.026.01.022.025-.014.013-.002.022-.033-.014.003-.027-.018-.017-.039.01.028.012.006.01h-.014l-.012-.012-.018.003-.014.008-.004.007-.006-.005-.012.009-.004.01-.01.007v.01l-.003.015-.016.016.002.01-.006.011.018.015-.016.007.004.01-.004.012v.009l.02-.012.012.005.014-.027.004.023.01.009.004.002.01.003.016-.02v.023l.015-.015v-.01l.006-.003.002-.015.024-.017.014-.008h-.016l-.012.005-.016.009-.01-.006h-.02l-.01-.01.002-.013.004-.007.016-.014.004-.012.038.006.012.012.01-.002.01-.003.013.007-.007.02.019-.013.01-.004.004-.007.016-.002-.01-.006.026.001.03-.008.02.005h.02l.02.002-.003.012.006.01-.008.007-.017.014-.002.018-.014.01-.002.016.014.008.006.017-.012.005-.028-.019h-.014l-.019.003-.012-.019-.024-.016-.03-.016-.008.01-.012.007-.012.007v.01l-.002.01-.004.007.018.013-.025.014-.032-.008v.008l.006.008.006.024.002.008v.01l.004.007-.004.01v.01l.012.003.018-.003.03-.006.023-.01.054-.014-.028.007-.006.013.018-.003.002.008.006.003-.004.01-.008.002-.01.004-.014.003.034-.001.014-.006.02-.002-.014-.008.02-.003.014-.006.019.002.007.009.009-.005.008.005.022-.013.018.006.004-.005.006.004.006-.004-.002-.006.008.003.012.011.014.009h.022l.05-.003.013.012.004.01.01.005.006.004.004-.012v-.007l-.012-.007v-.007l.01-.008.004-.003.002-.005.01-.004.006-.003.013-.003h.006l.008-.006.004-.004.012-.007.008-.005.01-.001.006.001.01-.001.022.008.014.004.013.004.01.008.001.009.008.007-.008.009.004.002-.004.003h-.006l-.006.004-.008.003-.004.002-.008.002-.008-.002-.006-.001-.006-.004-.018.006-.008.005.002.006h.012l.008.007h.012l.008.002.004.01-.022.012-.002.004.01.01.006.004.018.008-.004.01-.004.009-.009.002-.006.001-.004.005-.002.003-.004.007-.016.005-.014-.004-.026.01-.028.013-.005.009-.01.006-.026.017-.004.014.002.015-.008.01-.01.015-.007.02.004.004v.005l.01.006.03.006-.034.006.01.005-.022.006-.004.017-.024.016-.01.01-.005.014.01.023.055.006.024.014.014.01.014.006.018-.001.008.002.014.001.047-.024.048.011.067.006.036.003.012-.014.032.018.05-.015.013.007.014-.003.012-.005.016.005.042.015.01-.001v.011l.059.01c.026.018.006.03-.019.044.017.008.04.003.055-.005a.032.032 0 00.014-.014l-.002-.029-.01-.03-.03-.014-.022-.001-.014-.011-.038-.015-.028-.019-.019-.006-.02-.002-.028-.014-.038-.013-.016-.01-.016-.004-.036-.023.002-.013.004-.012.002-.02-.014-.015-.01-.017-.006-.01.004-.01-.016-.01-.01-.003-.004-.007-.02-.007-.01.008-.012-.004-.013-.003-.006.001-.014-.01-.018-.015.004-.005h.008l.017-.005.006-.008.002-.01.004-.012v-.01l.002-.008.002-.01.006-.02.018-.02.02-.011.009-.007.004-.01v-.01l.004-.004-.004-.01-.012-.004.012-.01-.004-.02.002-.008-.01-.01-.006-.035.03.027-.007-.033-.01-.01.006-.004v-.02l-.01-.034-.024-.024-.024-.016-.026-.022-.012.007.006-.022v-.021l-.002-.009v-.009l-.01-.008.012-.007-.008-.005.016-.005-.02-.018.012-.017.006-.02.023-.02.044-.02.069-.01.036.003.02.002.024-.002-.032-.01-.034-.005v-.017l.012-.004.002-.006.006-.025-.036-.004-.028.007-.008-.01.014-.006.022-.01-.01-.018-.022.009-.008.004v.005l-.012-.012.006-.022-.036.007h-.012l-.029.012-.008-.003-.012.01-.012-.003-.012.017v.014l-.024.01-.023.021-.02.01-.038.031-.017.005-.028.011-.016.007-.012.003-.014.017c-.019.015-.05.027-.057.047l-.008.012-.008.004-.027.018-.003-.01v-.011l.016-.01.01-.01.006-.018.006-.012.022-.016.01-.008.033-.016-.038.006-.025-.012h-.028l-.016-.007-.014.004h-.018l-.024.005-.029.01-.05.008-.043.02-.042.01a.511.511 0 00-.1.028c-.041.014-.082.028-.122.045l-.032.016z" fill="#e63044"/><g><path d="M23.103 44.51c-.018.01-.033.022-.05.032l-.023.013-.004.007v.007l-.018.016.036-.015.057-.02-.039.02-.018.012.008.003-.004.011-.05.015-.039.018-.012.012.032-.005.032-.002.019-.006.014.006h.008l.022.01-.006.015.038.015.03.002h.016l.012.014.016.009.012.005.009-.005.014-.004.024-.004.024-.005.04-.012.019.004.02-.005.018-.006h.014l.01-.007.026.009h.016l.025.014.016-.005.008-.005.002-.006.008-.004.008-.014v-.031l-.026-.02-.008-.009-.038-.02-.024-.032-.016-.038.016-.016.022-.01.025-.012v-.007l.006-.006.012-.012-.03.004.01-.022h-.016l-.016.007-.014.01-.01.001-.009.003-.028-.003.026-.015a.021.021 0 00-.023 0l-.01.008a.043.043 0 01-.025.012l-.006-.01.002-.011-.05.027-.01.022h-.025l-.004.005-.024.011-.004-.014-.037.014-.042.018a.193.193 0 00-.014.007z" fill="#e63044"/></g><g><path d="M24.025 45.857c.084.008.167.03.237.066l.312-.18-.175-.102z" fill="#f9bb4a"/><path d="M24.244 45.933l.04.023.018-.01.312-.18.02-.012-.04-.023-.02.011-.312.18z" fill="#363a44"/><path d="M24.302 45.946c.061.04.099.089.115.138l.374-.216-.177-.102z" fill="#f9bb4a"/><path d="M24.574 45.742l.02-.011.04.023-.02.012.177.102-.374.216.006.041.406-.234.039-.023-.47-.273-.039.022-.406.235.072.005.374-.216z" fill="#363a44"/><path d="M22.994 46.154c-.091.053-.092.14-.001.192l.052.03.408-.236c-.005-.073.041-.149.14-.206s.23-.084.36-.082l.406-.235-.052-.03a.366.366 0 00-.33 0z" fill="#f9bb4a"/><path d="M23.572 46.321a.255.255 0 01-.113-.137l-.006-.044c-.005-.073.041-.149.14-.206s.23-.084.36-.082l.072.005c.084.008.167.03.237.066l-.018.01.04.023.018-.01c.061.04.099.089.115.138l.006.041c.003.075-.043.15-.143.208a.695.695 0 01-.357.08l-.072-.002a.702.702 0 01-.239-.067l.017-.01-.04-.023zm.327.062h.077a.585.585 0 00.268-.07c.075-.044.12-.1.124-.156l.003-.046c-.008-.056-.05-.11-.127-.155a.595.595 0 00-.265-.072h-.08a.591.591 0 00-.267.072c-.075.043-.118.098-.126.154v.047c.007.056.05.11.124.154.076.044.17.069.27.072" fill="#363a44"/><path d="M23.087 46.398l.175.102.31-.179a.255.255 0 01-.113-.137z" fill="#f9bb4a"/><path d="M23.241 46.512l.04.023.02-.012.31-.179.018-.01-.04-.023-.017.01-.31.179z" fill="#363a44"/><path d="M23.85 46.411a.702.702 0 01-.238-.067l-.31.18.177.102z" fill="#f9bb4a"/><path d="M23.045 46.376l-.039.022.47.274.039-.023.408-.235-.072-.003-.372.215-.177-.103-.02.012-.04-.023.02-.012-.175-.102.372-.214-.006-.044z" fill="#363a44"/><path d="M24.28 46.333a.695.695 0 01-.357.08l-.408.236.052.03c.09.053.24.053.33 0l.983-.566c.091-.053.092-.14.001-.192l-.052-.03-.406.234c.003.075-.043.15-.143.208z" fill="#f9bb4a"/><path d="M22.955 46.132c-.113.066-.114.17 0 .236l.051.03.039-.022-.053-.03c-.09-.053-.09-.139.001-.192l.983-.567a.366.366 0 01.33 0l.053.03.038-.022.47.273-.038.023.052.03c.09.053.09.139 0 .191l-.983.568a.366.366 0 01-.331 0l-.052-.03-.039.022.053.03a.447.447 0 00.407 0l.983-.567c.113-.066.113-.17 0-.236l-.574-.334a.447.447 0 00-.407 0z" fill="#363a44"/><g><path d="M23.506 46.11v.047c.007.056.05.11.124.154.076.044.17.069.27.072h.076a.585.585 0 00.268-.07c.075-.044.12-.1.124-.156l.003-.046c-.008-.056-.05-.11-.127-.155a.595.595 0 00-.265-.072h-.08a.591.591 0 00-.267.072c-.075.043-.118.098-.126.154z" fill="#f9bb4a"/></g></g><g><path d="M27.796 41.999l.356.206.082-.047-.089-.051-.002-.057.253.014.095-.055-.352-.025-.01-.177-.093.054.01.188-.168-.098zM27.384 42.237l.355.206.082-.047-.215-.125.393.022.068-.04-.355-.206-.082.048.217.126-.395-.024zM27.186 42.351l.515.115-.087.05-.106-.025-.165.094.043.062-.084.049-.198-.297zm.233.117l-.193-.046.08.112zM26.9 42.545a.171.171 0 01.105.018l.034.036-.002.038.08-.01.072.021c.031.019.043.041.036.064-.007.025-.037.05-.083.076l-.184.107-.356-.207.174-.1a.312.312 0 01.125-.043zm.079.267l.095-.056.04-.035-.016-.028c-.03-.017-.069-.013-.112.012l-.096.055zm-.147-.086l.082-.047.034-.033-.016-.028-.047-.009-.055.021-.082.047zM28.318 41.697l.356.207.082-.047-.215-.125.392.022.069-.04-.356-.206-.082.047.217.127-.395-.024zM29.608 40.953l.355.206.278-.16-.065-.038-.196.113-.082-.048.166-.096-.063-.036-.166.096-.077-.045.189-.11-.068-.039zM29.12 41.234l.356.207.077-.045-.208-.12.277.039.038-.023-.071-.163.212.124.078-.045-.355-.207-.069.04.09.205-.356-.051zM28.924 41.347l.515.115-.086.05-.107-.025-.166.096.043.062-.085.048-.196-.298zm.234.118l-.193-.046.079.111z" fill="#fff"/></g><g><path d="M26.287 47.576l.332.073-.056.033-.069-.016-.107.061.028.04-.054.032-.126-.193zm.151.076l-.125-.03.052.072zM26.034 47.72a.13.13 0 00-.05.045l-.003.05a.106.106 0 00.045.044c.024.014.05.023.078.027h.087a.242.242 0 00.079-.03l.044-.037.01-.041h-.066c.002.02-.006.037-.03.051l-.05.016h-.052l-.046-.017-.028-.026v-.03l.029-.028a.15.15 0 01.084-.019l.005-.037-.071.006zM26.578 47.422l.063-.004.056.019.032.032-.006.037.123.013-.057.032-.107-.01h-.002l-.046.028.062.036-.052.03-.23-.133.1-.057a.19.19 0 01.064-.023zm.014.122l.044-.025.025-.028-.016-.024-.043-.01-.046.015-.045.026zM26.843 47.273l.083-.003a.224.224 0 01.076.026c.024.014.038.029.044.044l-.004.049a.14.14 0 01-.053.047l-.105.06-.229-.133.105-.06a.267.267 0 01.083-.03zm.052.169l.05-.03c.023-.013.035-.027.035-.043.002-.015-.01-.03-.032-.042a.129.129 0 00-.07-.017.145.145 0 00-.075.02l-.051.029zM26.926 47.207l.23.133.054-.032-.093-.053.104-.06.092.054.055-.032-.23-.133-.054.032.09.052-.103.06-.09-.053zM27.941 46.62l.23.134.177-.103-.042-.024-.125.072-.053-.03.108-.062-.043-.025-.107.062-.048-.028.121-.07-.044-.026zM27.856 46.688l.083-.003a.224.224 0 01.076.026c.024.014.039.029.044.044l-.004.05a.14.14 0 01-.052.046l-.106.06-.229-.133.105-.06a.267.267 0 01.083-.03zm.054.167l.048-.028c.023-.012.035-.026.035-.043.002-.015-.01-.029-.032-.042a.129.129 0 00-.07-.017.145.145 0 00-.075.02l-.049.028zM27.47 46.893l.23.133.167-.097-.042-.025-.115.067-.187-.109zM27.252 47.033a.13.13 0 01.05-.046.243.243 0 01.08-.029l.086-.001a.19.19 0 01.076.026c.024.014.04.028.046.045l-.002.05a.13.13 0 01-.05.046.242.242 0 01-.08.03h-.086a.194.194 0 01-.079-.027c-.022-.012-.038-.026-.044-.044zm.142.08h.053l.046-.015.027-.027v-.03l-.028-.028-.047-.015h-.052l-.047.015-.026.027v.03l.026.027zM28.325 46.413l.063-.004.056.02.032.032-.006.036.125.012-.059.034-.106-.011-.002.001-.047.027.062.036-.052.03-.23-.133.1-.057a.189.189 0 01.064-.023zm.014.123l.044-.026.025-.028-.016-.024-.043-.01-.046.015-.044.026zM29.328 45.82l.23.133.177-.103-.042-.024-.125.072-.052-.03.107-.062-.042-.025-.108.062-.048-.028.12-.069-.045-.025zM29.013 46.002l.229.133.05-.03-.132-.076.175.024.024-.014-.043-.105.136.08.05-.03-.23-.131-.043.024.058.132-.23-.033zM28.886 46.075l.332.074-.055.032-.068-.017-.107.062.028.04-.055.031-.128-.191zm.15.076l-.124-.03.052.072zM28.495 46.3l.23.134.052-.03-.139-.081.254.014.045-.026-.23-.133-.052.03.14.082-.255-.015z" fill="#fff"/></g><g><path d="M26.557 46.403a.145.145 0 01.067-.072.398.398 0 01.268-.034c.05.011.099.03.145.057a.269.269 0 01.096.084c.016.028.02.056.01.082-.01.027-.035.05-.071.072a.32.32 0 01-.121.04.456.456 0 01-.288-.062.269.269 0 01-.096-.085c-.018-.029-.022-.057-.01-.082zm.336.155a.155.155 0 00.095-.015c.028-.017.036-.035.028-.056-.006-.023-.034-.048-.08-.075a.338.338 0 00-.13-.048.144.144 0 00-.096.018c-.024.014-.036.032-.028.053.008.024.036.047.084.075a.322.322 0 00.127.048M26.134 46.647a.147.147 0 01.07-.073.398.398 0 01.266-.033c.05.011.098.03.144.057a.268.268 0 01.097.084c.015.028.02.056.01.082a.148.148 0 01-.07.07.322.322 0 01-.123.041.456.456 0 01-.288-.061.268.268 0 01-.096-.085c-.018-.029-.022-.057-.01-.082zm.336.155a.155.155 0 00.097-.016c.026-.016.034-.034.028-.057-.008-.02-.036-.046-.082-.073a.368.368 0 00-.129-.05.154.154 0 00-.094.018c-.027.016-.039.034-.03.055.009.022.035.047.083.075.047.027.09.043.127.048M25.712 46.89a.148.148 0 01.069-.072.398.398 0 01.266-.033c.05.011.098.03.145.057a.269.269 0 01.096.084c.016.028.02.056.01.082-.009.026-.033.05-.07.07a.323.323 0 01-.123.041.456.456 0 01-.285-.063.276.276 0 01-.099-.083c-.018-.029-.022-.057-.01-.082zm.335.156a.16.16 0 00.097-.016c.027-.016.035-.034.029-.057-.008-.02-.036-.046-.082-.073a.368.368 0 00-.13-.05.154.154 0 00-.094.018c-.026.016-.037.033-.03.055.01.022.036.047.084.075.046.027.09.043.126.048M25.29 47.135a.147.147 0 01.068-.073.388.388 0 01.266-.033c.05.011.099.03.145.057a.268.268 0 01.096.084c.016.028.022.054.012.081-.01.027-.035.05-.071.072a.323.323 0 01-.123.04.483.483 0 01-.286-.063.268.268 0 01-.096-.084c-.02-.028-.024-.056-.012-.081zm.335.155a.16.16 0 00.097-.016c.026-.016.034-.034.028-.057-.008-.02-.036-.046-.082-.073a.368.368 0 00-.129-.05.154.154 0 00-.095.018c-.026.016-.036.033-.03.055.01.022.036.047.084.075.046.027.09.043.127.048M28.324 45.359l.08.047.187-.108.01.111.065.039.047-.027c.055-.032.099-.036.135-.015l.02.035c-.004.014-.02.028-.046.043a.368.368 0 01-.162.049l.036.068a.568.568 0 00.212-.07.25.25 0 00.083-.068c.012-.024.016-.045.008-.066a.113.113 0 00-.048-.051.219.219 0 00-.115-.03.308.308 0 00-.129.026l-.013-.122-.064-.037zM28.102 45.478a.228.228 0 00-.081.072.092.092 0 00-.013.075l.123-.015.007-.041.038-.036a.168.168 0 01.067-.022l.058.012.026.027.008.047-.011.188.064.037.33-.19-.08-.047-.189.109.007-.113a.135.135 0 00-.012-.075.167.167 0 00-.052-.047.214.214 0 00-.088-.028.379.379 0 00-.101.007.376.376 0 00-.101.04zM27.697 45.72l.08.048.088-.05.351.204.101-.059-.432-.25zM27.408 45.911a.148.148 0 01.07-.072.397.397 0 01.266-.033c.05.01.098.03.144.056a.268.268 0 01.096.084c.016.028.02.056.01.083-.008.026-.032.05-.069.07a.323.323 0 01-.123.04.456.456 0 01-.286-.062.275.275 0 01-.098-.083c-.018-.03-.022-.057-.01-.083zm.336.155a.16.16 0 00.097-.016c.026-.015.034-.034.028-.056-.008-.021-.036-.047-.082-.074a.368.368 0 00-.129-.049.154.154 0 00-.094.018c-.027.015-.037.033-.031.055.01.022.036.046.084.074.046.027.09.044.127.048M29.382 44.748l.07.278.067.039.233-.135.09.053.1-.057-.091-.053.07-.04-.08-.047-.07.04-.083-.047-.095.055.082.047-.117.068-.071-.261zM30.106 44.354a.208.208 0 01.087-.083.527.527 0 01.075-.034.361.361 0 01.076-.019l.038.064a.275.275 0 00-.105.035c-.036.021-.054.044-.055.07 0 .025.02.048.059.073.002-.03.022-.057.069-.084a.295.295 0 01.094-.034.28.28 0 01.19.026c.03.017.048.035.054.057a.065.065 0 01-.009.063.173.173 0 01-.064.058.363.363 0 01-.2.05.43.43 0 01-.211-.061.242.242 0 01-.097-.09.089.089 0 01-.001-.091zm.354.175a.16.16 0 00.074-.022c.02-.012.033-.026.035-.041l-.026-.039-.069-.016a.175.175 0 00-.07.022c-.023.013-.035.027-.037.042l.026.039zM30.365 44.18l.152.09.09-.052-.071-.04.146-.085.191.295.112-.065-.206-.307-.065-.037zM29.645 44.596l.22.155.112-.065a.29.29 0 01.093-.037l.066.01.02.038c-.004.014-.02.028-.046.043a.415.415 0 01-.162.049l.036.068a.568.568 0 00.212-.069.206.206 0 00.081-.07c.016-.023.018-.046.01-.064a.112.112 0 00-.052-.054.243.243 0 00-.143-.032.388.388 0 00-.171.058l-.035.02-.076-.052.182-.105-.08-.047zM32.156 43.524c.002-.025-.02-.05-.058-.074 0 .03-.024.058-.069.084a.326.326 0 01-.196.039.247.247 0 01-.088-.03c-.028-.017-.048-.036-.056-.057-.008-.02-.004-.042.01-.064a.175.175 0 01.065-.058.385.385 0 01.2-.05.43.43 0 01.21.062.26.26 0 01.1.09c.013.03.017.061 0 .091a.227.227 0 01-.09.083.363.363 0 01-.073.033.277.277 0 01-.077.019l-.036-.063a.268.268 0 00.103-.037c.037-.02.055-.043.055-.068zm-.235-.142a.16.16 0 00-.075.023c-.022.012-.032.025-.036.04l.028.039.066.015a.157.157 0 00.073-.02c.022-.014.032-.027.035-.042l-.024-.04z" fill="#fff"/><g><path d="M32.413 42.998l.08.047.087-.05.352.204.101-.058-.432-.251z" fill="#fff"/></g><g><path d="M32.126 43.187a.145.145 0 01.067-.07.398.398 0 01.268-.034c.05.01.099.028.145.055a.268.268 0 01.096.084c.016.028.02.056.01.083-.01.027-.035.05-.071.071a.32.32 0 01-.121.04.455.455 0 01-.288-.062.268.268 0 01-.096-.084c-.018-.029-.022-.057-.01-.083zm.336.156a.154.154 0 00.094-.016c.029-.016.037-.035.029-.056-.006-.022-.034-.047-.08-.074a.337.337 0 00-.131-.048.144.144 0 00-.095.017c-.024.014-.036.033-.028.054.008.023.036.047.084.075a.321.321 0 00.127.048" fill="#fff"/></g><g><path d="M31.477 43.776l-.074.001-.064-.023c-.026-.016-.04-.03-.046-.05-.004-.02.002-.04.016-.059a.24.24 0 01.073-.06c.032-.02.067-.032.103-.042s.069-.011.1-.009c.035.004.063.01.09.026l.037.038v.042a.35.35 0 01.09-.003c.031.003.057.011.08.024.025.016.041.034.045.055.006.02-.002.041-.018.064a.277.277 0 01-.08.065.462.462 0 01-.112.046.369.369 0 01-.111.01.233.233 0 01-.093-.027.088.088 0 01-.042-.046c-.006-.015-.004-.032.006-.052zm.202.051a.166.166 0 00.077-.026c.024-.014.04-.028.042-.043l-.024-.04-.066-.012a.163.163 0 00-.075.024c-.026.015-.043.03-.045.045l.024.037zm-.16-.22a.136.136 0 00-.063.02c-.022.013-.034.025-.036.038l.022.034.058.013a.165.165 0 00.065-.021c.02-.012.03-.025.034-.037l-.022-.034z" fill="#fff"/></g></g></g><g><path d="M11.893 44.806v.916a1.598 1.598 0 01-.368.974 2.888 2.888 0 01-.817.689c-.005.005-.011.005-.017.011-.087.053-.175.1-.268.14-.17.088-.344.158-.531.222a2.315 2.315 0 01-.286.087c-.175.053-.35.1-.53.129-.094.023-.188.035-.28.047-.176.029-.357.046-.538.058a4.382 4.382 0 01-.28.011 5.324 5.324 0 01-.53-.005c-.1 0-.193-.006-.286-.018a4.047 4.047 0 01-.531-.07 2.453 2.453 0 01-.286-.052 7.045 7.045 0 01-.531-.14c-.1-.03-.193-.065-.286-.1a4.033 4.033 0 01-.53-.244c-.042-.018-.083-.042-.123-.065-.059-.035-.111-.064-.164-.105a2.485 2.485 0 01-.53-.432 1.973 1.973 0 01-.28-.355 1.485 1.485 0 01-.24-.806v-.916c0 .269.082.543.24.8.075.122.168.245.28.356.145.157.32.303.53.437.053.035.111.07.17.105.04.024.075.047.116.059.17.099.344.175.531.245.093.035.187.07.286.099.17.058.35.105.53.14.094.023.193.04.287.052.175.035.356.058.53.07.094.012.187.018.286.018.175.012.356.017.531.006.094 0 .187-.006.28-.012.181-.012.362-.03.537-.058a1.57 1.57 0 00.28-.047c.181-.029.362-.07.531-.117.1-.029.193-.058.286-.093.187-.058.362-.134.53-.216.094-.047.187-.093.275-.146.006 0 .006-.006.012-.006.204-.122.379-.25.53-.385.111-.099.21-.204.286-.309.245-.309.368-.642.368-.974z" fill="#f9bb4a"/><path d="M10.68 43.108c1.613.931 1.621 2.44.018 3.371s-4.206.931-5.82 0c-1.612-.931-1.62-2.44-.018-3.37 1.602-.932 4.206-.932 5.82-.001z" fill="#ffde74"/><path d="M10.201 43.384c-1.346-.776-3.521-.776-4.86 0-.767.445-1.092 1.049-.976 1.628.079-.43.406-.849.976-1.18 1.339-.777 3.514-.777 4.86 0 .58.334.911.757.993 1.192.116-.584-.216-1.19-.993-1.64z" fill="#f9bb4a"/><path d="M10.201 43.832c-1.346-.777-3.521-.777-4.86 0-.57.331-.897.75-.976 1.18.084.435.413.856.99 1.19 1.349.779 3.524.779 4.863 0 .568-.33.894-.748.976-1.178-.082-.435-.413-.858-.993-1.192z" fill="#efac41"/><g><path d="M7.847 43.925v.196l-.398-.23v-.196zM9.296 43.72v.195l-.526.306v-.196zM9.737 43.974v.196l-.527.305v-.196zM8.84 44.498v.196l-.496-.286v-.196zM8.344 44.212v.196l-.506.294v-.196zM9.059 44.697l-.001.196c-.023-.061-.096-.128-.218-.199v-.196c.123.071.195.138.219.199z" fill="#f9bb4a"/><path d="M9.065 44.733v.196a.113.113 0 00-.007-.036v-.196a.113.113 0 01.007.036zM7.477 44.716v.196l-.53.308v-.196z" fill="#f9bb4a"/><path d="M8.06 45.053v.196l-.584-.337v-.196zM6.352 45.112l-.001.196-.672-.388v-.196zM9.743 44.835v.196c0 .105-.07.198-.208.278a.973.973 0 01-.353.118v-.196a.973.973 0 00.353-.118c.138-.08.208-.173.208-.278zM9.182 45.231v.196a1.301 1.301 0 01-.406-.01l.001-.196c.138.025.271.028.405.01z" fill="#f9bb4a"/><path d="M8.298 45.301v.196c0-.074-.08-.157-.239-.248l.001-.196c.158.091.238.174.238.248zM6.792 45.367v.196l-.166-.096v-.196zM8.878 45.447v.196a.259.259 0 01-.007.055v-.196a.26.26 0 00.007-.055zM6.096 45.58v.195l-.276-.158v-.196z" fill="#f9bb4a"/><path d="M6.626 45.271v.196l-.53.308v-.196zM7.193 45.598v.196l-.127-.073v-.196z" fill="#f9bb4a"/><path d="M7.067 45.525v.196l-.531.309v-.196zM6.536 45.834v.196l-.275-.159v-.196z" fill="#f9bb4a"/><path d="M8.872 45.502c-.021.092-.099.178-.231.255-.188.11-.406.151-.654.125a2.04 2.04 0 01-.794-.284l-.126-.073-.53.309-.276-.159.531-.308-.166-.096-.53.308-.275-.158.53-.309-.672-.388.374-.217.397.23 1.397-.812-.397-.23.373-.217.673.388.526-.305.274.158-.526.306.166.096.526-.306.275.159-.526.305.064.038c.264.152.415.297.456.437.042.14-.023.26-.196.36a.973.973 0 01-.353.117 1.301 1.301 0 01-.405-.01c.085.093.116.187.095.281zm-.98-.008a.465.465 0 00.299-.056c.178-.104.133-.233-.13-.385l-.584-.337-.53.308.584.336c.13.076.251.121.36.134m.453-1.282l-.506.294.496.286c.123.071.238.113.346.125.106.011.2-.007.285-.055.083-.05.114-.104.094-.165-.024-.061-.096-.128-.219-.199z" fill="#ffde74"/><path d="M8.872 45.502v.196c-.022.092-.1.178-.232.255-.187.11-.406.151-.654.124a2.04 2.04 0 01-.794-.283v-.196c.283.163.547.257.795.284.248.026.466-.016.654-.125.132-.077.21-.163.23-.255z" fill="#f9bb4a"/></g><g fill="#efac41"><path d="M4.18 45.938v.921a1.973 1.973 0 01-.28-.355v-.922c.076.122.17.245.28.356zM4.997 46.539v.922c-.04-.018-.082-.042-.122-.065-.059-.035-.111-.064-.164-.105v-.916c.053.035.111.07.17.105.04.024.075.047.116.059zM5.814 46.883v.922c-.1-.03-.193-.065-.286-.1v-.921c.093.035.187.07.286.099zM6.63 47.075v.922a2.453 2.453 0 01-.285-.052v-.922c.093.023.192.04.286.052zM7.447 47.163v.922c-.099 0-.192-.006-.285-.018v-.922c.093.012.186.018.285.018zM8.258 47.157v.922a4.382 4.382 0 01-.28.011v-.921c.094 0 .187-.006.28-.012zM9.075 47.052v.922c-.093.023-.187.035-.28.047v-.922a1.57 1.57 0 00.28-.047zM9.892 46.842v.916a2.315 2.315 0 01-.286.087v-.91c.1-.029.193-.058.286-.093zM10.709 46.474v.91c-.006.006-.012.006-.018.012-.087.053-.175.1-.268.14v-.91c.093-.047.186-.093.274-.146.006 0 .006-.006.012-.006zM11.525 45.78v.916c-.081.105-.175.21-.285.304v-.91c.11-.1.21-.205.285-.31z"/></g><g><path d="M12.459 42.605v.916a1.597 1.597 0 01-.368.974 2.888 2.888 0 01-.817.689c-.005.006-.011.006-.017.011-.087.053-.175.1-.268.14-.17.088-.344.158-.531.222a2.317 2.317 0 01-.286.087c-.175.053-.35.1-.53.129-.094.023-.188.035-.281.047a5.43 5.43 0 01-.537.058 4.38 4.38 0 01-.28.011 5.324 5.324 0 01-.53-.005c-.1 0-.193-.006-.287-.018a4.047 4.047 0 01-.53-.07 2.455 2.455 0 01-.286-.052 7.05 7.05 0 01-.531-.14c-.1-.03-.193-.065-.286-.1a4.033 4.033 0 01-.53-.244c-.042-.018-.083-.041-.123-.065-.059-.035-.111-.064-.164-.105a2.485 2.485 0 01-.53-.431 1.973 1.973 0 01-.28-.356 1.485 1.485 0 01-.24-.806v-.915c0 .268.082.542.24.799.075.122.168.245.28.356.145.157.32.303.53.437.053.035.111.07.17.105.04.024.075.047.116.059.17.099.344.175.53.245.094.035.188.07.287.099.169.058.35.105.53.14.094.023.193.04.287.052.175.036.355.059.53.07.094.012.187.018.286.018.175.012.356.017.531.006.094 0 .187-.006.28-.012.181-.011.362-.03.537-.058a1.57 1.57 0 00.28-.047c.18-.029.362-.07.53-.117.1-.029.193-.058.287-.093.187-.058.362-.134.53-.216.094-.046.187-.093.275-.146.006 0 .006-.006.012-.006.204-.122.379-.25.53-.384.111-.1.21-.205.286-.31.245-.309.368-.642.368-.974z" fill="#f9bb4a"/><path d="M11.245 40.907c1.614.931 1.622 2.44.02 3.371-1.603.931-4.207.931-5.82 0-1.613-.931-1.622-2.44-.02-3.37 1.603-.932 4.207-.932 5.82 0z" fill="#ffde74"/><path d="M10.767 41.183c-1.346-.776-3.522-.776-4.86 0-.767.445-1.092 1.049-.977 1.628.08-.43.407-.849.976-1.18 1.34-.777 3.515-.777 4.861 0 .58.334.911.757.993 1.192.116-.584-.216-1.19-.993-1.64z" fill="#f9bb4a"/><path d="M10.767 41.63c-1.346-.776-3.522-.776-4.86 0-.57.332-.897.75-.977 1.181.085.435.414.856.99 1.19 1.35.779 3.525.779 4.864 0 .567-.33.894-.748.976-1.178-.082-.435-.413-.858-.993-1.192z" fill="#efac41"/><g><path d="M8.413 41.724v.196l-.398-.23v-.196zM9.862 41.518v.196l-.526.306v-.196zM10.303 41.773v.196l-.527.305v-.196zM9.406 42.297v.196l-.496-.286v-.196zM8.91 42.011v.196l-.506.294v-.196zM9.625 42.496l-.001.196c-.023-.061-.096-.128-.218-.199v-.196c.123.071.195.138.219.199z" fill="#f9bb4a"/><path d="M9.63 42.532v.196a.113.113 0 00-.006-.036v-.196a.113.113 0 01.007.036zM8.043 42.515v.196l-.53.308v-.196z" fill="#f9bb4a"/><path d="M8.626 42.852v.196l-.584-.337v-.196zM6.917 42.911v.196l-.672-.388v-.196zM10.309 42.634v.196c-.001.105-.07.198-.208.278a.973.973 0 01-.353.118v-.196a.973.973 0 00.353-.118c.138-.08.208-.173.208-.278zM9.748 43.03v.196a1.301 1.301 0 01-.406-.01v-.196c.139.025.272.028.406.01z" fill="#f9bb4a"/><path d="M8.864 43.1v.196c0-.074-.08-.157-.239-.248l.001-.196c.158.092.238.174.238.248zM7.358 43.166v.196l-.166-.096v-.196zM9.444 43.246v.196a.259.259 0 01-.007.055v-.196a.26.26 0 00.007-.055zM6.662 43.378l-.001.196-.275-.158v-.196z" fill="#f9bb4a"/><path d="M7.192 43.07v.196l-.531.308v-.196zM7.759 43.397l-.001.196-.126-.073v-.196z" fill="#f9bb4a"/><path d="M7.633 43.324v.196l-.532.309.001-.196z" fill="#f9bb4a"/><path d="M7.102 43.633v.196l-.275-.159v-.196z" fill="#f9bb4a"/><path d="M9.438 43.301c-.021.093-.099.178-.231.256-.188.109-.406.15-.654.124a2.04 2.04 0 01-.794-.284l-.126-.073-.53.309-.276-.159.53-.308-.165-.096-.53.308-.275-.158.53-.309-.672-.388.374-.217.397.23 1.397-.812-.397-.23.373-.217.672.388.527-.305.274.158-.526.306.166.096.526-.306.275.159-.526.305.064.038c.264.152.415.297.455.437.043.14-.023.26-.195.36a.973.973 0 01-.353.117 1.301 1.301 0 01-.405-.01c.085.093.116.187.095.281zm-.98-.008a.465.465 0 00.299-.056c.178-.104.133-.233-.131-.385l-.583-.337-.53.308.584.337c.13.075.251.12.36.133m.453-1.282l-.506.294.496.287c.123.07.238.112.346.124.106.011.2-.007.285-.055.083-.05.114-.104.094-.165-.024-.061-.096-.128-.219-.199z" fill="#ffde74"/><path d="M9.438 43.301v.196c-.022.092-.1.178-.232.256-.187.109-.406.15-.654.124a2.04 2.04 0 01-.794-.284v-.196c.283.163.547.257.795.284.248.026.466-.015.654-.124.132-.078.21-.163.23-.256z" fill="#f9bb4a"/></g><g fill="#efac41"><path d="M4.746 43.737v.922a1.973 1.973 0 01-.28-.356v-.922c.076.122.17.245.28.356zM5.563 44.338v.922c-.04-.018-.082-.041-.122-.065-.059-.035-.111-.064-.164-.105v-.916c.053.035.111.07.17.105.04.024.075.047.116.059zM6.38 44.682v.922c-.1-.03-.193-.065-.286-.1v-.921c.093.035.187.07.286.099zM7.197 44.874v.922a2.455 2.455 0 01-.286-.052v-.922c.093.023.192.04.286.052zM8.013 44.962v.922c-.099 0-.192-.006-.286-.018v-.921c.094.01.187.017.286.017zM8.824 44.956v.922a4.38 4.38 0 01-.28.011v-.921c.094 0 .187-.006.28-.012zM9.641 44.851v.922c-.093.023-.187.035-.28.047v-.922a1.57 1.57 0 00.28-.047zM10.458 44.64v.917a2.317 2.317 0 01-.286.087v-.91c.1-.029.192-.058.286-.093zM11.275 44.273v.91c-.006.007-.012.007-.018.012-.087.053-.175.1-.268.14v-.91c.093-.046.186-.093.274-.146.006 0 .006-.006.012-.006zM12.091 43.58v.915c-.081.105-.175.21-.285.304v-.91c.11-.1.21-.205.285-.31z"/></g></g><g><path d="M10.348 42.486c-.28.162-.558.326-.839.487-.407.231-.97.195-1.59-.161-1.24-.716-2.243-2.451-2.238-3.878 0-.708.252-1.205.654-1.44l.837-.488c-.402.235-.652.732-.654 1.44-.005 1.427.999 3.163 2.24 3.878.62.36 1.181.395 1.59.162z" fill="#ffde74"/><path d="M8.227 37.503c1.24.717 2.244 2.452 2.24 3.877-.004 1.427-1.014 2-2.254 1.285-1.24-.716-2.244-2.452-2.24-3.879.004-1.425 1.014-1.999 2.254-1.283z" fill="#efac41"/><path d="M10.356 42.481l-.838.487c.403-.234.653-.732.655-1.44.004-1.426-.999-3.162-2.239-3.878l.838-.487c1.24.716 2.243 2.452 2.24 3.877-.003.709-.253 1.207-.656 1.441z" fill="#f9ce55"/><path d="M10.348 42.486l.008-.005-.838.487a1.048 1.048 0 01-.008.005c.28-.162.558-.326.838-.487z" fill="#ffde74"/><path d="M6.335 37.494l.838-.487c.408-.238.974-.204 1.599.156l-.838.487c-.624-.36-1.19-.394-1.599-.156z" fill="#f9ce55"/><path d="M5.88 36.711c.253-.147.552-.212.883-.188.135.007.276.031.42.072.2.052.41.135.626.25.043.02.083.044.126.068.055.031.11.064.162.1.166.105.328.224.482.354.081.067.157.138.236.21.137.13.27.268.399.416.067.078.133.156.195.237.119.148.23.302.335.462a6.916 6.916 0 01.882 1.904c.057.204.102.409.131.611a4.11 4.11 0 01.057.69c0 .128-.007.254-.021.37a2.923 2.923 0 01-.081.438c-.133.487-.392.844-.742 1.046l.84-.487c.382-.224.658-.63.774-1.196a2.82 2.82 0 00.057-.419c.008-.078.01-.157.01-.24a4.179 4.179 0 00-.074-.796 5.177 5.177 0 00-.145-.604 5.95 5.95 0 00-.321-.851 6.112 6.112 0 00-.418-.78 6.502 6.502 0 00-.708-.949 5.984 5.984 0 00-.407-.409 3.913 3.913 0 00-.24-.204 4.185 4.185 0 00-.493-.347l-.07-.043a4.125 4.125 0 00-.227-.12 2.72 2.72 0 00-.651-.23 1.954 1.954 0 00-.459-.047 1.505 1.505 0 00-.718.195z" fill="#ffde74"/><path d="M7.936 36.912c1.596.922 2.883 3.154 2.878 4.985-.005 1.833-1.301 2.574-2.897 1.652s-2.883-3.153-2.877-4.986c.005-1.831 1.3-2.572 2.896-1.65zm-.017 5.9c1.24.716 2.25.142 2.254-1.285.004-1.425-.999-3.16-2.239-3.877-1.24-.716-2.25-.142-2.254 1.283-.004 1.427 1 3.163 2.24 3.879" fill="#f9bb4a"/><g fill="#f9bb4a"><path d="M6.763 36.523c.135.007.276.031.42.072l.714-.519a1.954 1.954 0 00-.459-.047zM7.809 36.844c.043.022.083.045.126.07.055.03.11.063.162.1l.748-.545-.07-.043a4.125 4.125 0 00-.227-.12zM8.58 37.367c.08.067.156.138.235.21l.763-.557a3.913 3.913 0 00-.24-.204zM9.214 37.993c.067.078.133.156.195.237l.777-.566a6.54 6.54 0 00-.202-.235zM9.744 38.692c.057.085.112.17.164.259l.785-.573a4.736 4.736 0 00-.167-.257zM10.184 39.455c.048.092.09.188.13.283l.797-.58a6.11 6.11 0 00-.135-.281zM10.531 40.287c.033.102.067.207.095.309l.806-.587a3.848 3.848 0 00-.1-.307zM10.757 41.207c.021.117.033.235.043.35l.827-.602a4.239 4.239 0 00-.05-.342zM10.712 42.705l.872-.637a2.82 2.82 0 00.057-.419l-.848.618a2.923 2.923 0 01-.081.438z"/></g><path d="M8.87 38.203l-.15.211.213-.149.09.51.089-.51.211.15-.15-.214.51-.089-.51-.09.15-.21-.211.147-.09-.508-.09.51-.212-.15.148.212-.508.089z" fill="#fff"/><g><path d="M8.095 41.644l.202-.118v.407l-.203.118zM7.168 40.384l.202-.118a2.542 2.542 0 00.613.613l-.202.118a2.541 2.541 0 01-.613-.613zM8.097 41.164l.202-.117c.076.024.133.026.171.004l-.202.118c-.038.021-.095.02-.171-.005zM8.098 40.663l.202-.118-.001.502-.202.117zM7.612 39.337l.202-.117a.1.1 0 00-.004.003c-.038.025-.057.07-.057.132 0 .061.02.122.06.184.039.062.097.128.173.198l-.202.118a1.05 1.05 0 01-.173-.198.336.336 0 01-.06-.185c0-.062.02-.106.057-.132a.104.104 0 01.004-.003zM8.856 41.573l-.202.117c.12-.07.18-.201.181-.394 0-.16-.035-.31-.103-.447l.202-.118a.987.987 0 01.103.447c0 .194-.062.325-.181.395z" fill="#ffde74"/><path d="M8.1 40.129l.202-.118c.148.125.272.24.374.35.103.108.188.23.258.37l-.202.118a1.55 1.55 0 00-.258-.371 4.457 4.457 0 00-.374-.35z" fill="#ffde74"/><path d="M8.101 39.51l.202-.117-.001.618-.202.118zM7.226 38.806l.202-.117a.345.345 0 01.008-.005c.128-.07.312-.053.553.055l-.202.117c-.24-.107-.425-.125-.553-.055a.345.345 0 00-.008.005zM8.104 38.635l.202-.117-.001.395-.202.118z" fill="#ffde74"/><path d="M7.788 38.453l.202-.117.316.182-.202.117zM8.744 39.624l.202-.118-.16.356-.201.117z" fill="#ffde74"/><path d="M8.103 39.03l.202-.117c.26.175.473.372.641.593l-.202.118a2.668 2.668 0 00-.641-.593z" fill="#ffde74"/><path d="M8.732 40.849a.987.987 0 01.103.447c0 .199-.065.332-.192.4-.126.069-.309.052-.548-.052v.407l-.317-.182.002-.397a2.903 2.903 0 01-.788-.745l.176-.343a2.541 2.541 0 00.613.613l.002-.608a4.666 4.666 0 01-.38-.357 1.574 1.574 0 01-.258-.372.991.991 0 01-.103-.452c0-.2.064-.337.192-.407.128-.07.312-.052.553.055l.001-.403.316.182-.001.396c.26.174.473.372.641.593l-.16.355a2.49 2.49 0 00-.483-.469l-.001.619c.148.124.272.24.374.349.103.108.188.231.258.37zm-.948-.994l.002-.515c-.081-.026-.14-.025-.178 0-.038.026-.057.07-.057.132 0 .061.02.123.06.185.039.061.097.128.173.198m.484 1.314c.038-.023.057-.063.057-.124a.332.332 0 00-.058-.182 1.131 1.131 0 00-.169-.2l-.001.501c.076.024.133.026.171.005" fill="#f9bb4a"/></g></g></g><g><path d="M4.452 23.283l.005.856 4.948 2.875-.005-.855z" fill="#6eba6e"/><path d="M9.4 26.159l.005.855 9.908-5.72-.005-.855z" fill="#65aa65"/><path d="M13.52 23.788l.004.85 1.831-1.065-.004-.849z" fill="#474b59"/><path d="M15.065 23.74l-.003-.848-1.248.725.003.85z" fill="#ddaf9b"/><g><path d="M4.452 23.283L9.4 26.16l9.908-5.72-4.948-2.876z" fill="#9ad898"/></g><g><path d="M15.576 21.262a.355.355 0 01.214-.046.55.55 0 01.229.076c.075.043.118.087.13.132.012.045-.015.087-.08.124a.357.357 0 01-.217.048.55.55 0 01-.229-.076c-.075-.044-.118-.088-.13-.133-.012-.045.015-.086.083-.125zm.29.252a.162.162 0 00.115-.016c.03-.018.041-.04.027-.066a.257.257 0 00-.094-.08.47.47 0 00-.138-.054.161.161 0 00-.113.015c-.033.019-.043.041-.029.066a.264.264 0 00.094.08.458.458 0 00.138.055M16.05 20.989a.355.355 0 01.214-.047.55.55 0 01.229.076c.075.044.118.088.13.133.012.045-.015.086-.08.124a.357.357 0 01-.218.047.55.55 0 01-.228-.075c-.075-.044-.118-.088-.13-.133-.012-.045.015-.086.082-.125zm.29.252a.167.167 0 00.115-.017c.03-.018.04-.04.027-.065a.257.257 0 00-.094-.08.47.47 0 00-.139-.055.161.161 0 00-.112.015c-.033.02-.041.04-.03.067a.264.264 0 00.094.08.459.459 0 00.14.055" fill="#9ad898"/><path d="M12.594 19.663l.137.079.908-.525-.136-.079zM11.698 21.303a.491.491 0 00-.267-.058.789.789 0 00-.32.083l.567.33c.084-.094.126-.165.128-.216 0-.05-.036-.097-.108-.139zM11.78 22.275c-.004.055.033.102.11.147a.5.5 0 00.282.057.908.908 0 00.342-.091l-.589-.342c-.092.098-.14.175-.144.23zM7.175 22.791l.137.08.908-.525-.137-.079z" fill="#75ca75"/><path d="M9.304 23.29c.414.24.411.628-.003.868-.416.24-1.086.24-1.5 0-.411-.24-.41-.628.007-.868.414-.24 1.085-.24 1.496 0zm-.115.802c.35-.202.353-.533.002-.737-.348-.202-.92-.202-1.271 0-.353.204-.354.535-.006.738.35.203.922.203 1.275 0" fill="#65aa65"/><path d="M13.547 18.556c.446.259 1.17.259 1.617 0l2.43 1.413c-.447.258-.45.677-.003.937l-7.376 4.258c-.446-.26-1.17-.26-1.616-.001l-2.43-1.413c.446-.258.449-.677.003-.936zm.263 4.426c1.075-.62 1.08-1.624.015-2.243-1.067-.62-2.8-.62-3.875 0-1.072.619-1.078 1.623-.01 2.243 1.065.62 2.798.62 3.87 0m2.051-3.478c-.411-.24-1.081-.24-1.498.001-.414.24-.418.629-.007.868.414.24 1.086.239 1.5 0 .417-.24.419-.629.005-.869m-6.56 4.654c.414-.24.417-.628.003-.868-.411-.24-1.082-.24-1.496 0-.416.24-.418.628-.007.868.414.24 1.084.24 1.5 0m-1.105-2.263l-1.66.96.136.079 1.66-.96zm5.417-3.127l-1.659.957.137.08 1.659-.958zm-3.267 6.006a.357.357 0 00.217-.047c.066-.038.093-.08.08-.124-.01-.046-.052-.09-.127-.134a.531.531 0 00-.231-.075.355.355 0 00-.215.047c-.068.039-.094.08-.082.125.012.045.054.089.13.133a.55.55 0 00.228.075m.474-.273a.357.357 0 00.217-.047c.065-.038.092-.08.08-.125-.01-.046-.053-.09-.128-.133a.531.531 0 00-.23-.075.355.355 0 00-.215.046c-.068.04-.095.08-.083.126.012.045.055.088.13.132a.55.55 0 00.229.076m5.032-2.905a.357.357 0 00.217-.048c.065-.037.092-.079.08-.124-.012-.045-.055-.089-.13-.132a.55.55 0 00-.229-.076.355.355 0 00-.214.046c-.068.039-.095.08-.083.125.012.045.055.09.13.133a.55.55 0 00.229.076m.473-.274a.357.357 0 00.217-.047c.066-.038.093-.08.08-.124-.011-.045-.054-.09-.13-.133a.55.55 0 00-.228-.076.355.355 0 00-.215.047c-.067.039-.094.08-.082.125.012.045.055.089.13.133a.55.55 0 00.228.075m-9.15 1.47l.137.079.908-.525-.137-.079zm5.42-3.13l.136.08.908-.525-.136-.079zm4.238 1.438l.103-.06-.385-.223.092-.053-.091-.054-.195.113zm-5.505 3.178l.102-.059-.384-.224.092-.053-.092-.053-.195.112z" fill="#9ad898"/><path d="M11.954 19.725l.137.08 1.659-.958-.137-.08zM14.475 19.57c-.35.203-.352.534-.004.737.35.203.923.203 1.273 0 .353-.203.355-.534.005-.738-.349-.202-.921-.202-1.274.001z" fill="#75ca75"/><path d="M15.861 19.504c.414.24.412.629-.004.869-.415.239-1.087.24-1.5 0-.412-.24-.408-.629.006-.868.417-.24 1.087-.24 1.498-.001zm-.117.804c.353-.204.355-.535.005-.739-.349-.202-.921-.202-1.274.001-.35.203-.352.534-.004.737.35.203.923.203 1.273 0" fill="#65aa65"/><path d="M16.357 20.823l.476.277.103-.06-.385-.223.092-.053-.091-.054zM16.137 21.04c-.033.018-.041.04-.03.066a.264.264 0 00.094.08.459.459 0 00.14.055.167.167 0 00.114-.017c.03-.018.04-.04.027-.065a.257.257 0 00-.094-.08.47.47 0 00-.139-.055.161.161 0 00-.112.015zM15.663 21.313c-.033.019-.043.041-.029.066a.264.264 0 00.094.08.458.458 0 00.138.055.162.162 0 00.115-.016c.03-.018.041-.04.027-.066a.257.257 0 00-.094-.08.47.47 0 00-.138-.054.161.161 0 00-.113.015z" fill="#9ad898"/><path d="M13.825 20.739c1.065.619 1.06 1.623-.015 2.243-1.072.62-2.805.62-3.87 0-1.068-.62-1.062-1.624.01-2.243 1.074-.62 2.808-.62 3.875 0zm-1.698 2.049c.256-.008.501-.075.737-.197l.234.137.212-.122-.239-.139c.27-.19.422-.415.454-.675l-.527-.026a.728.728 0 01-.283.494l-.636-.37c.191-.176.294-.325.311-.448.021-.123-.064-.24-.251-.348a1.226 1.226 0 00-.661-.154c-.254.007-.491.069-.717.185l-.163-.095-.21.122.166.097c-.226.15-.372.328-.44.537l.514.052a.766.766 0 01.283-.382l.615.358-.01.006c-.194.18-.299.332-.318.459-.019.127.068.246.26.357.19.11.414.163.67.152" fill="#75ca75"/><path d="M11.516 21.82l.01-.006-.615-.358a.766.766 0 00-.283.382l-.514-.052c.068-.21.214-.388.44-.537l-.167-.097.211-.122.163.095c.226-.116.463-.178.717-.185.249-.007.471.044.66.154.188.109.273.225.252.348-.017.123-.12.272-.31.449l.635.369a.728.728 0 00.283-.494l.527.026c-.032.26-.185.485-.454.675l.239.139-.212.122-.234-.137a1.708 1.708 0 01-.737.197 1.21 1.21 0 01-.67-.152c-.19-.11-.278-.23-.259-.357.02-.127.124-.28.318-.46zm.656.659a.908.908 0 00.342-.091l-.589-.342c-.092.098-.14.175-.144.23-.005.054.032.101.11.146a.5.5 0 00.28.057m-.493-.822c.084-.093.126-.164.128-.215 0-.05-.036-.097-.108-.139a.491.491 0 00-.267-.058.789.789 0 00-.32.083z" fill="#65aa65"/><path d="M6.535 22.854l.137.08 1.66-.96-.136-.079z" fill="#75ca75"/><path d="M10.851 24.001l.477.277.102-.059-.385-.224.093-.053-.092-.053z" fill="#9ad898"/><path d="M7.92 23.355c-.353.204-.354.535-.006.738.35.203.922.203 1.275 0 .35-.203.353-.534.002-.738-.348-.202-.92-.202-1.271 0z" fill="#75ca75"/><path d="M10.631 24.218c-.032.019-.04.04-.029.066a.264.264 0 00.094.08.458.458 0 00.139.055.167.167 0 00.114-.016c.03-.018.041-.04.027-.065-.014-.028-.045-.053-.093-.08a.422.422 0 00-.14-.055.161.161 0 00-.112.015z" fill="#9ad898"/><path d="M10.544 24.167a.355.355 0 01.215-.046c.08.006.155.03.23.075.075.043.118.087.128.133.012.045-.015.087-.08.125a.357.357 0 01-.217.047.55.55 0 01-.229-.076c-.075-.044-.118-.087-.13-.132-.012-.045.015-.087.083-.126zm.29.252a.167.167 0 00.115-.016c.03-.018.041-.04.027-.065-.014-.028-.045-.053-.093-.08a.422.422 0 00-.14-.055.161.161 0 00-.112.015c-.032.019-.04.04-.029.066a.264.264 0 00.094.08.458.458 0 00.139.055M10.07 24.44a.355.355 0 01.215-.046c.08.006.155.031.23.075.076.044.119.088.129.134.012.045-.015.086-.08.124a.357.357 0 01-.218.047.55.55 0 01-.228-.075c-.076-.044-.118-.088-.13-.133-.012-.045.014-.086.082-.125zm.291.253a.167.167 0 00.115-.017c.03-.018.04-.04.026-.065-.014-.027-.044-.052-.093-.08a.422.422 0 00-.139-.055.161.161 0 00-.112.015c-.033.02-.041.04-.03.067a.264.264 0 00.094.08.459.459 0 00.139.055" fill="#9ad898"/><path d="M10.158 24.491c-.033.02-.041.04-.03.067a.264.264 0 00.094.08.459.459 0 00.139.055.167.167 0 00.115-.017c.03-.018.04-.04.026-.065-.014-.027-.044-.052-.093-.08a.422.422 0 00-.139-.055.161.161 0 00-.112.015z" fill="#9ad898"/><g><path d="M19.083 20.438l-9.68 5.589-4.722-2.744 9.68-5.59zM8.6 25.163c.447-.258 1.17-.258 1.616 0l7.376-4.257c-.446-.26-.444-.679.003-.937l-2.43-1.412c-.447.258-1.17.258-1.617-.001l-7.375 4.258c.446.26.443.678-.004.936z" fill="#75ca75"/></g><g><path d="M19.308 20.438L9.4 26.158l-4.948-2.875 9.908-5.72zm-9.905 5.589l9.68-5.589-4.722-2.744-9.68 5.589z" fill="#9ad898"/></g></g><g><path d="M15.35 22.724l-1.83 1.064-4.983-2.876 1.831-1.065z" fill="#5b5e71"/><path d="M15.062 22.892l-4.983-2.877-1.248.726 4.983 2.876z" fill="#ebc5b2"/></g><g><path d="M3.294 22.7l.005.856 4.948 2.876-.004-.856z" fill="#6eba6e"/><path d="M8.243 25.576l.004.856 9.908-5.72-.005-.856z" fill="#65aa65"/><path d="M12.362 23.206l.004.849 1.831-1.065-.004-.848z" fill="#474b59"/><path d="M13.908 23.158l-.004-.848-1.248.725.004.849z" fill="#ddaf9b"/><g><path d="M3.294 22.7l4.949 2.876 9.907-5.72-4.948-2.875z" fill="#9ad898"/></g><g><path d="M14.418 20.68a.355.355 0 01.215-.047.55.55 0 01.228.076c.075.044.118.088.13.133.012.045-.015.086-.08.124a.357.357 0 01-.217.047.55.55 0 01-.229-.075c-.075-.044-.118-.088-.13-.133-.012-.045.015-.086.083-.125zm.29.252a.162.162 0 00.115-.017c.03-.018.041-.04.027-.065a.257.257 0 00-.093-.08.47.47 0 00-.14-.055.161.161 0 00-.112.015c-.032.02-.043.042-.029.067a.264.264 0 00.094.08.459.459 0 00.139.055M14.891 20.406a.355.355 0 01.215-.046.55.55 0 01.229.076c.075.043.118.087.13.132.012.045-.015.087-.08.125a.357.357 0 01-.217.047.55.55 0 01-.229-.076c-.075-.044-.118-.087-.13-.132-.012-.045.015-.087.082-.126zm.291.252a.167.167 0 00.115-.016c.03-.018.04-.04.027-.065a.257.257 0 00-.094-.08.47.47 0 00-.138-.055.161.161 0 00-.113.015c-.033.019-.041.04-.029.066a.264.264 0 00.094.08.458.458 0 00.138.055" fill="#9ad898"/><path d="M11.437 19.08l.136.08.909-.525-.137-.08zM10.54 20.72a.491.491 0 00-.267-.057.789.789 0 00-.32.083l.567.329c.084-.094.126-.165.128-.216 0-.05-.036-.097-.107-.138zM10.623 21.693c-.004.054.032.102.11.147.075.043.169.062.281.056s.227-.036.342-.09l-.589-.343c-.092.098-.14.175-.144.23zM6.017 22.209l.137.08.908-.525-.136-.08z" fill="#75ca75"/><path d="M8.146 22.707c.414.24.412.629-.003.868-.416.24-1.086.24-1.5 0-.411-.239-.409-.627.007-.868.414-.239 1.085-.239 1.496 0zm-.115.803c.351-.202.353-.534.003-.737-.349-.203-.921-.203-1.272 0-.352.203-.354.535-.006.737.35.204.923.204 1.275 0" fill="#65aa65"/><path d="M12.39 17.973c.445.26 1.169.26 1.616.001l2.43 1.413c-.447.258-.45.677-.003.936l-7.376 4.258c-.446-.259-1.17-.259-1.616 0l-2.43-1.413c.447-.258.449-.677.003-.937zm.263 4.427c1.074-.62 1.08-1.625.014-2.244-1.067-.62-2.8-.62-3.875 0-1.072.62-1.078 1.623-.01 2.244 1.065.619 2.798.619 3.87 0m2.052-3.478c-.412-.24-1.082-.24-1.498 0-.415.24-.419.63-.007.868.413.24 1.086.24 1.5 0 .416-.24.418-.628.005-.868m-6.56 4.653c.414-.239.416-.627.002-.868-.411-.239-1.082-.239-1.496 0-.416.24-.418.629-.007.868.414.24 1.084.24 1.5 0m-1.105-2.262l-1.66.959.136.079 1.66-.959zm5.417-3.128l-1.658.958.136.08 1.659-.959zm-3.267 6.007a.357.357 0 00.217-.047c.066-.038.093-.08.08-.125-.01-.046-.052-.09-.127-.133a.531.531 0 00-.23-.075.355.355 0 00-.216.046c-.067.04-.094.08-.082.126.012.045.055.088.13.132a.55.55 0 00.228.076m.474-.273a.357.357 0 00.217-.048c.066-.038.092-.08.08-.124-.01-.046-.052-.09-.128-.134a.531.531 0 00-.23-.075.355.355 0 00-.215.047c-.068.039-.094.08-.083.125.013.045.055.089.13.133a.55.55 0 00.23.076m5.03-2.906a.357.357 0 00.218-.047c.065-.038.092-.08.08-.124-.012-.045-.055-.09-.13-.133a.55.55 0 00-.228-.076.355.355 0 00-.215.047c-.068.039-.095.08-.083.125.012.045.055.089.13.133a.55.55 0 00.229.075m.474-.273a.357.357 0 00.216-.047c.066-.038.093-.08.08-.125-.011-.045-.054-.089-.13-.132a.55.55 0 00-.228-.076.355.355 0 00-.215.046c-.067.04-.094.08-.082.126.012.045.055.088.13.132a.55.55 0 00.229.076m-9.15 1.469l.136.08.908-.525-.136-.08zm5.419-3.129l.136.08.909-.525-.137-.08zm4.239 1.437l.102-.059-.385-.224.092-.053-.091-.053-.195.112zm-5.506 3.179l.103-.06-.385-.223.092-.053-.092-.054-.195.113z" fill="#9ad898"/><path d="M10.797 19.143l.136.08 1.659-.959-.137-.079zM13.318 18.988c-.351.202-.353.534-.005.736.35.204.923.204 1.274.001.352-.203.354-.535.004-.738-.348-.203-.92-.203-1.273 0z" fill="#75ca75"/><path d="M14.704 18.922c.413.24.411.628-.005.868-.414.24-1.087.24-1.5 0-.412-.239-.408-.628.007-.867.416-.24 1.086-.24 1.498-.001zm-.117.803c.352-.203.354-.535.004-.738-.348-.203-.92-.203-1.273 0-.351.203-.353.535-.005.737.35.204.923.204 1.274.001" fill="#65aa65"/><path d="M15.199 20.24l.477.277.102-.059-.385-.224.092-.053-.091-.053zM14.98 20.457c-.034.019-.042.04-.03.066a.264.264 0 00.094.08.458.458 0 00.138.055.167.167 0 00.115-.016c.03-.018.04-.04.027-.065a.257.257 0 00-.094-.08.47.47 0 00-.138-.055.161.161 0 00-.113.015zM14.505 20.73c-.032.02-.043.042-.029.067a.264.264 0 00.094.08.459.459 0 00.139.055.162.162 0 00.114-.017c.03-.018.041-.04.027-.065a.257.257 0 00-.093-.08.47.47 0 00-.14-.055.161.161 0 00-.112.015z" fill="#9ad898"/><path d="M12.667 20.156c1.066.62 1.06 1.623-.014 2.244-1.073.619-2.806.619-3.871 0-1.068-.62-1.062-1.625.01-2.244 1.075-.62 2.808-.62 3.875 0zm-1.697 2.05c.255-.009.5-.075.736-.197l.235.136.21-.122-.238-.138c.27-.19.422-.416.454-.675l-.527-.026a.728.728 0 01-.283.494l-.636-.37c.192-.176.294-.325.312-.449.02-.123-.064-.239-.252-.348a1.226 1.226 0 00-.661-.154c-.254.008-.491.07-.717.185l-.163-.095-.21.122.166.097c-.225.15-.371.328-.44.538l.515.052a.766.766 0 01.282-.382l.615.357-.01.006c-.193.18-.298.333-.318.46-.019.126.069.246.26.357.19.11.414.162.67.151" fill="#75ca75"/><path d="M10.358 21.237l.01-.006-.615-.357a.766.766 0 00-.282.382l-.515-.052c.069-.21.215-.388.44-.538l-.167-.097.211-.122.163.095c.226-.116.463-.177.717-.185.25-.007.472.044.661.154.188.11.273.225.252.348-.018.124-.12.273-.312.45l.636.369a.728.728 0 00.283-.494l.527.026c-.032.26-.185.484-.454.675l.239.138-.211.122-.235-.136a1.708 1.708 0 01-.736.196 1.21 1.21 0 01-.67-.151c-.191-.111-.279-.23-.26-.358.02-.126.125-.279.318-.459zm.656.66a.908.908 0 00.342-.092l-.589-.342c-.092.098-.14.175-.144.23-.004.054.032.102.11.147a.5.5 0 00.281.056m-.494-.821c.084-.094.126-.165.128-.216 0-.05-.036-.097-.107-.138a.491.491 0 00-.268-.058.789.789 0 00-.32.083z" fill="#65aa65"/><path d="M5.377 22.272l.137.079 1.66-.959-.136-.08z" fill="#75ca75"/><path d="M9.693 23.419l.477.277.103-.06-.385-.223.092-.053-.092-.054z" fill="#9ad898"/><path d="M6.762 22.772c-.352.204-.354.536-.006.738.35.204.923.204 1.275 0 .351-.202.353-.534.003-.737-.349-.203-.921-.203-1.272 0z" fill="#75ca75"/><path d="M9.474 23.636c-.033.018-.041.04-.03.066a.264.264 0 00.094.08.459.459 0 00.139.055.167.167 0 00.114-.017c.031-.018.041-.04.027-.065-.014-.027-.044-.052-.093-.08a.422.422 0 00-.139-.055.161.161 0 00-.112.016z" fill="#9ad898"/><path d="M9.386 23.585a.355.355 0 01.215-.047c.08.006.155.031.23.075.076.044.118.088.128.134.012.045-.014.086-.08.124a.357.357 0 01-.217.048.55.55 0 01-.228-.076c-.076-.044-.118-.088-.13-.133-.012-.045.014-.086.082-.125zm.29.252a.167.167 0 00.115-.017c.031-.018.041-.04.027-.065-.014-.027-.044-.052-.093-.08a.422.422 0 00-.139-.055.161.161 0 00-.112.016c-.033.018-.041.04-.03.066a.264.264 0 00.094.08.459.459 0 00.139.055M8.912 23.858a.355.355 0 01.215-.046c.08.006.155.03.23.075.076.043.119.087.129.133.012.045-.015.087-.08.125a.357.357 0 01-.218.047.55.55 0 01-.228-.076c-.075-.044-.118-.087-.13-.132-.012-.045.015-.087.082-.126zm.291.252a.167.167 0 00.115-.016c.03-.018.04-.04.027-.065-.014-.028-.045-.053-.094-.08a.422.422 0 00-.139-.055.161.161 0 00-.112.015c-.033.019-.041.04-.029.066a.264.264 0 00.094.08.458.458 0 00.138.055" fill="#9ad898"/><path d="M9 23.909c-.033.019-.041.04-.029.066a.264.264 0 00.094.08.458.458 0 00.138.055.167.167 0 00.115-.016c.03-.018.04-.04.027-.065-.014-.028-.045-.053-.094-.08a.422.422 0 00-.139-.055.161.161 0 00-.112.015z" fill="#9ad898"/><g><path d="M17.925 19.856l-9.68 5.588L3.523 22.7l9.68-5.589zM7.441 24.58c.447-.258 1.17-.258 1.616.001l7.376-4.258c-.446-.26-.444-.678.003-.936l-2.43-1.413c-.447.259-1.17.259-1.617 0L5.014 22.23c.446.26.444.679-.003.937z" fill="#75ca75"/></g><g><path d="M18.15 19.856l-9.907 5.72L3.294 22.7l9.908-5.72zm-9.905 5.588l9.68-5.588-4.722-2.745-9.68 5.59z" fill="#9ad898"/></g></g><g><path d="M14.193 22.142l-1.831 1.064-4.983-2.877 1.831-1.064z" fill="#5b5e71"/><path d="M13.904 22.31l-4.983-2.877-1.248.725 4.983 2.877z" fill="#ebc5b2"/></g></g><g><path d="M4.732 20.433l.005.855 4.948 2.876-.005-.855z" fill="#6eba6e"/><path d="M9.68 23.309l.005.855 9.908-5.72-.005-.855z" fill="#65aa65"/><path d="M13.8 20.938l.004.849 1.831-1.064-.004-.849z" fill="#474b59"/><path d="M15.346 20.89l-.004-.848-1.248.725.004.85z" fill="#ddaf9b"/><g><path d="M4.732 20.433L9.68 23.31l9.908-5.72-4.948-2.876z" fill="#9ad898"/></g><g><path d="M15.856 18.412a.355.355 0 01.215-.046.55.55 0 01.228.075c.075.044.118.088.13.133.012.045-.015.086-.08.124a.357.357 0 01-.217.048.55.55 0 01-.229-.076c-.075-.044-.118-.088-.13-.133-.012-.045.015-.086.083-.125zm.29.252a.162.162 0 00.115-.017c.03-.017.041-.04.027-.065a.257.257 0 00-.093-.08.47.47 0 00-.14-.055.161.161 0 00-.112.016c-.032.019-.043.041-.029.066a.264.264 0 00.094.08.459.459 0 00.139.055M16.33 18.138a.355.355 0 01.214-.046.55.55 0 01.229.076c.075.044.118.088.13.133.012.045-.015.086-.08.124a.357.357 0 01-.217.047.55.55 0 01-.229-.076c-.075-.043-.118-.087-.13-.132-.012-.045.015-.087.082-.126zm.29.253a.167.167 0 00.115-.017c.03-.018.04-.04.027-.065a.257.257 0 00-.094-.08.47.47 0 00-.139-.055.161.161 0 00-.112.015c-.033.02-.041.04-.029.067a.264.264 0 00.094.08.459.459 0 00.138.055" fill="#9ad898"/><path d="M12.875 16.812l.136.08.908-.525-.136-.079zM11.978 18.453a.491.491 0 00-.267-.058.789.789 0 00-.32.083l.567.33c.084-.094.126-.165.128-.216 0-.05-.036-.097-.108-.139zM12.06 19.425c-.004.055.033.102.11.147a.5.5 0 00.282.057.908.908 0 00.342-.091l-.589-.342c-.092.098-.14.175-.144.23zM7.455 19.941l.137.08.908-.525-.136-.08z" fill="#75ca75"/><path d="M9.584 20.44c.414.24.411.628-.003.867-.416.24-1.086.24-1.5 0-.411-.239-.41-.627.007-.867.414-.24 1.085-.24 1.496 0zm-.115.802c.35-.202.353-.534.002-.737-.348-.203-.92-.203-1.27 0-.354.203-.355.535-.007.737.35.204.923.204 1.275 0" fill="#65aa65"/><path d="M13.827 15.706c.446.259 1.17.259 1.617 0l2.43 1.413c-.447.258-.45.677-.003.937l-7.376 4.258c-.446-.26-1.17-.26-1.616-.001L6.449 20.9c.446-.258.449-.677.003-.936zm.263 4.426c1.075-.62 1.08-1.624.015-2.243-1.067-.62-2.8-.62-3.875 0-1.072.619-1.078 1.623-.01 2.243 1.065.62 2.798.62 3.87 0m2.052-3.478c-.412-.24-1.082-.24-1.499.001-.414.24-.418.629-.006.868.413.24 1.085.239 1.5 0 .416-.24.418-.629.005-.87m-6.56 4.654c.413-.239.416-.627.002-.867-.411-.24-1.082-.24-1.496 0-.416.24-.418.628-.007.868.414.24 1.084.24 1.5 0m-1.105-2.263l-1.66.96.136.078 1.66-.959zm5.417-3.128l-1.658.958.136.08 1.659-.958zm-3.267 6.007a.357.357 0 00.217-.047c.066-.038.093-.08.08-.124-.01-.047-.052-.09-.127-.134a.531.531 0 00-.231-.075.355.355 0 00-.215.046c-.067.04-.094.08-.082.126.012.045.055.089.13.133a.55.55 0 00.228.075m.474-.273a.357.357 0 00.217-.048c.066-.037.092-.079.08-.124-.01-.046-.052-.09-.128-.134a.531.531 0 00-.23-.074.355.355 0 00-.215.046c-.068.039-.095.08-.083.125.012.045.055.09.13.133a.55.55 0 00.229.076m5.032-2.905a.357.357 0 00.217-.048c.065-.038.092-.079.08-.124-.012-.045-.055-.089-.13-.133a.55.55 0 00-.228-.075.355.355 0 00-.215.046c-.068.039-.095.08-.083.125.012.045.055.09.13.133a.55.55 0 00.229.076m.474-.274a.357.357 0 00.216-.047c.066-.038.093-.08.08-.124-.011-.045-.054-.09-.13-.133a.55.55 0 00-.228-.076.355.355 0 00-.215.046c-.067.04-.094.08-.082.126.012.045.055.089.13.132a.55.55 0 00.229.076m-9.15 1.47l.136.079.908-.525-.136-.08zm5.419-3.13l.136.08.908-.525-.136-.079zm4.239 1.438l.102-.06-.385-.223.092-.054-.091-.053-.195.113zm-5.506 3.178l.103-.059-.385-.224.092-.053-.092-.053-.195.112z" fill="#9ad898"/><path d="M12.235 16.875l.136.08 1.659-.958-.137-.08zM14.755 16.72c-.35.203-.352.534-.004.737.35.203.923.203 1.274 0 .352-.203.354-.534.004-.738-.349-.202-.92-.202-1.274.001z" fill="#75ca75"/><path d="M16.142 16.654c.413.24.41.628-.005.869-.415.239-1.087.24-1.5 0-.412-.24-.408-.629.006-.868.417-.24 1.087-.24 1.499-.001zm-.117.804c.352-.204.354-.535.004-.739-.349-.202-.92-.202-1.274.001-.35.203-.352.534-.004.737.35.203.923.203 1.274 0" fill="#65aa65"/><path d="M16.637 17.973l.477.277.102-.06-.385-.223.092-.054-.091-.053zM16.417 18.19c-.033.018-.041.04-.029.066a.264.264 0 00.094.08.459.459 0 00.138.055.167.167 0 00.115-.017c.03-.018.04-.04.027-.065a.257.257 0 00-.094-.08.47.47 0 00-.139-.055.161.161 0 00-.112.015zM15.943 18.463c-.032.019-.043.041-.029.066a.264.264 0 00.094.08.459.459 0 00.139.055.162.162 0 00.114-.017c.03-.017.041-.04.027-.065a.257.257 0 00-.093-.08.47.47 0 00-.14-.055.161.161 0 00-.112.016z" fill="#9ad898"/><path d="M14.105 17.889c1.065.619 1.06 1.623-.015 2.243-1.072.62-2.805.62-3.87 0-1.068-.62-1.062-1.624.01-2.243 1.075-.62 2.808-.62 3.875 0zm-1.698 2.049c.256-.008.502-.075.737-.197l.235.136.21-.121-.238-.139c.27-.19.422-.416.454-.675l-.527-.026a.728.728 0 01-.283.494l-.636-.37c.191-.176.294-.325.312-.448.02-.123-.065-.24-.252-.348a1.226 1.226 0 00-.661-.154c-.254.007-.491.068-.717.184l-.163-.094-.21.122.166.097c-.225.149-.372.328-.44.537l.515.052a.766.766 0 01.282-.382l.615.357-.01.006c-.193.18-.299.333-.318.46-.019.126.068.246.26.357.19.11.414.162.67.152" fill="#75ca75"/><path d="M11.796 18.97l.01-.007-.615-.357a.766.766 0 00-.282.382l-.515-.052c.068-.21.215-.388.44-.537l-.167-.097.211-.122.163.094c.226-.116.463-.177.717-.184.249-.007.472.044.661.154.187.109.273.225.252.348-.018.123-.12.272-.312.448l.636.37a.728.728 0 00.283-.494l.527.026c-.032.26-.185.484-.454.675l.239.139-.211.121-.235-.136a1.708 1.708 0 01-.737.197 1.21 1.21 0 01-.669-.152c-.192-.111-.279-.23-.26-.357.02-.127.125-.28.318-.46zm.656.659a.908.908 0 00.342-.091l-.589-.342c-.092.098-.14.175-.144.23-.005.054.032.101.11.146a.5.5 0 00.281.057m-.494-.822c.084-.093.126-.164.128-.215 0-.05-.036-.097-.108-.139a.491.491 0 00-.267-.058.789.789 0 00-.32.083z" fill="#65aa65"/><path d="M6.815 20.004l.137.08 1.66-.96-.136-.079z" fill="#75ca75"/><path d="M11.131 21.151l.477.277.103-.059-.385-.224.092-.053-.092-.053z" fill="#9ad898"/><path d="M8.2 20.505c-.353.203-.354.535-.006.737.35.204.923.204 1.275 0 .35-.202.353-.534.002-.737-.348-.203-.92-.203-1.27 0z" fill="#75ca75"/><path d="M10.912 21.368c-.033.019-.042.04-.03.066a.264.264 0 00.094.08.459.459 0 00.139.055.167.167 0 00.114-.016c.031-.018.041-.04.027-.066-.014-.027-.044-.052-.093-.08a.422.422 0 00-.139-.055.161.161 0 00-.112.016z" fill="#9ad898"/><path d="M10.824 21.317a.355.355 0 01.215-.046c.08.006.155.03.23.074.076.044.118.088.128.134.012.045-.014.087-.08.124a.357.357 0 01-.217.048.55.55 0 01-.228-.076c-.076-.044-.119-.088-.13-.133-.013-.045.014-.086.082-.125zm.29.252a.167.167 0 00.115-.016c.031-.018.041-.04.027-.066-.014-.027-.044-.052-.093-.08a.422.422 0 00-.139-.055.161.161 0 00-.112.016c-.033.019-.042.04-.03.066a.264.264 0 00.094.08.459.459 0 00.139.055M10.35 21.59a.355.355 0 01.215-.046c.08.006.155.031.23.075.076.044.119.087.129.134.012.045-.015.086-.08.124a.357.357 0 01-.218.047.55.55 0 01-.228-.075c-.075-.044-.118-.088-.13-.133-.012-.045.015-.087.082-.126zm.291.253a.167.167 0 00.115-.017c.03-.018.04-.04.027-.065-.015-.027-.045-.052-.094-.08a.422.422 0 00-.139-.055.161.161 0 00-.112.015c-.033.02-.041.04-.03.067a.264.264 0 00.094.08.458.458 0 00.14.055" fill="#9ad898"/><path d="M10.438 21.641c-.033.02-.041.04-.03.067a.264.264 0 00.094.08.458.458 0 00.14.055.167.167 0 00.114-.017c.03-.018.04-.04.027-.065-.015-.027-.045-.052-.094-.08a.422.422 0 00-.139-.055.161.161 0 00-.112.015z" fill="#9ad898"/><g><path d="M19.363 17.588l-9.68 5.589-4.722-2.744 9.68-5.59zM8.88 22.313c.447-.258 1.17-.259 1.616 0l7.376-4.257c-.446-.26-.444-.679.003-.937l-2.43-1.412c-.447.258-1.17.258-1.617-.001l-7.375 4.258c.446.26.443.678-.004.936z" fill="#75ca75"/></g><g><path d="M19.588 17.588l-9.908 5.72-4.948-2.875 9.908-5.72zm-9.905 5.589l9.68-5.59-4.722-2.743-9.68 5.589z" fill="#9ad898"/></g></g><g><path d="M15.63 19.874l-1.83 1.064-4.983-2.877 1.831-1.064z" fill="#5b5e71"/><path d="M15.342 20.042l-4.983-2.877-1.248.726 4.983 2.876z" fill="#ebc5b2"/></g></g><g><path d="M1.535 20.499l.005.855 4.948 2.875-.004-.855z" fill="#6eba6e"/><path d="M6.484 23.374l.004.855 9.908-5.72-.005-.855z" fill="#65aa65"/><path d="M10.603 21.003l.004.85 1.831-1.065-.004-.849z" fill="#474b59"/><path d="M12.149 20.956l-.004-.849-1.248.726.004.848z" fill="#ddaf9b"/><g><path d="M1.535 20.499l4.949 2.875 9.907-5.72-4.948-2.876z" fill="#9ad898"/></g><g><path d="M12.659 18.477a.355.355 0 01.215-.046.55.55 0 01.228.076c.076.043.118.087.13.132.012.045-.014.087-.08.125a.357.357 0 01-.217.047.55.55 0 01-.228-.076c-.076-.044-.119-.087-.13-.132-.013-.045.014-.087.082-.126zm.29.252a.162.162 0 00.115-.016c.031-.018.041-.04.027-.065a.257.257 0 00-.093-.08.47.47 0 00-.139-.055.161.161 0 00-.112.015c-.033.019-.044.041-.03.066a.264.264 0 00.094.08.458.458 0 00.139.055M13.133 18.204a.355.355 0 01.214-.047.55.55 0 01.229.076c.075.044.118.088.13.133.012.045-.015.086-.08.124a.357.357 0 01-.217.048.55.55 0 01-.229-.076c-.075-.044-.118-.088-.13-.133-.012-.045.015-.086.083-.125zm.29.252a.167.167 0 00.115-.017c.03-.018.041-.04.027-.065a.257.257 0 00-.094-.08.47.47 0 00-.138-.055.161.161 0 00-.113.016c-.033.019-.04.04-.029.066a.264.264 0 00.094.08.459.459 0 00.138.055" fill="#9ad898"/><path d="M9.678 16.878l.136.079.909-.524-.137-.08zM8.782 18.519a.491.491 0 00-.268-.058.789.789 0 00-.32.082l.567.33c.084-.094.126-.165.128-.216 0-.05-.036-.097-.107-.138zM8.864 19.49c-.004.055.032.102.11.147a.5.5 0 00.281.057.908.908 0 00.342-.091l-.589-.342c-.092.098-.14.175-.144.23zM4.258 20.007l.137.079.908-.525-.136-.079z" fill="#75ca75"/><path d="M6.387 20.505c.414.24.412.629-.003.868-.416.24-1.086.24-1.5 0-.411-.24-.409-.628.007-.868.415-.24 1.085-.24 1.496 0zm-.115.803c.351-.203.353-.534.003-.738-.349-.202-.921-.202-1.272 0-.352.204-.354.535-.006.738.35.203.923.203 1.275 0" fill="#65aa65"/><path d="M10.63 15.77c.446.26 1.17.26 1.617.002l2.43 1.412c-.447.258-.45.678-.003.937l-7.375 4.258c-.447-.26-1.17-.26-1.617-.001l-2.43-1.412c.447-.259.449-.678.003-.937zm.264 4.427c1.074-.62 1.08-1.624.014-2.243-1.067-.62-2.8-.62-3.875 0-1.072.619-1.078 1.623-.01 2.243 1.065.62 2.798.62 3.87 0m2.052-3.478c-.412-.239-1.082-.239-1.498.001-.415.24-.419.629-.007.868.413.24 1.086.24 1.5 0 .416-.24.418-.629.005-.869m-6.56 4.654c.414-.24.416-.628.002-.868-.411-.24-1.081-.24-1.496 0-.416.24-.418.629-.007.868.414.24 1.084.24 1.5 0M5.28 19.11l-1.66.96.136.079 1.66-.96zm5.418-3.127l-1.66.957.137.08 1.66-.958zM7.43 21.99a.357.357 0 00.216-.048c.066-.038.093-.08.08-.124-.01-.046-.052-.09-.127-.134a.531.531 0 00-.23-.074.355.355 0 00-.216.046c-.067.039-.094.08-.082.125.012.045.055.089.13.133a.55.55 0 00.229.076m.473-.274a.357.357 0 00.217-.047c.066-.038.092-.08.08-.125-.01-.046-.052-.09-.127-.133a.531.531 0 00-.231-.075.355.355 0 00-.215.046c-.068.04-.094.08-.082.126.012.045.054.089.13.132a.55.55 0 00.228.076m5.032-2.905a.357.357 0 00.217-.047c.066-.038.092-.08.08-.125-.012-.045-.054-.089-.13-.132a.55.55 0 00-.228-.076.355.355 0 00-.215.046c-.068.04-.095.08-.083.126.012.045.055.088.13.132a.55.55 0 00.229.076m.474-.273a.357.357 0 00.217-.048c.065-.038.092-.08.08-.124-.012-.045-.055-.089-.13-.133a.55.55 0 00-.229-.076.355.355 0 00-.214.047c-.068.039-.095.08-.083.125.012.045.055.089.13.133a.55.55 0 00.229.076m-9.15 1.469l.136.079.908-.525-.136-.079zm5.419-3.13l.136.08.909-.524-.137-.08zm4.239 1.438l.102-.06-.385-.223.093-.053-.092-.054-.195.113zM8.41 21.493l.103-.059-.385-.223.092-.054-.092-.053-.194.112z" fill="#9ad898"/><path d="M9.038 16.94l.136.08 1.66-.958-.137-.08zM11.559 16.785c-.351.203-.353.534-.004.737.35.203.922.203 1.273 0 .352-.203.354-.534.004-.738-.348-.202-.92-.202-1.273.001z" fill="#75ca75"/><path d="M12.945 16.72c.413.24.411.628-.005.868-.414.24-1.087.24-1.5 0-.412-.24-.408-.629.007-.868.416-.24 1.086-.24 1.498 0zm-.117.803c.352-.204.354-.535.004-.739-.348-.202-.92-.202-1.273.001-.351.203-.353.534-.004.737.35.203.922.203 1.273 0" fill="#65aa65"/><path d="M13.44 18.038l.477.277.102-.06-.385-.223.093-.053-.092-.054zM13.22 18.255c-.033.019-.04.04-.029.066a.264.264 0 00.094.08.459.459 0 00.138.055.167.167 0 00.115-.017c.03-.018.041-.04.027-.065a.257.257 0 00-.094-.08.47.47 0 00-.138-.055.161.161 0 00-.113.016zM12.747 18.528c-.033.019-.044.041-.03.066a.264.264 0 00.094.08.458.458 0 00.139.055.162.162 0 00.114-.016c.031-.018.041-.04.027-.065a.257.257 0 00-.093-.08.47.47 0 00-.139-.055.161.161 0 00-.112.015z" fill="#9ad898"/><path d="M10.908 17.954c1.066.619 1.06 1.623-.014 2.243-1.073.62-2.806.62-3.871 0-1.068-.62-1.062-1.624.01-2.243 1.075-.62 2.808-.62 3.875 0zm-1.697 2.05c.255-.01.5-.076.736-.197l.235.136.211-.122-.238-.139c.268-.19.421-.415.453-.674l-.527-.027a.728.728 0 01-.283.494l-.635-.37c.19-.176.294-.325.31-.448.022-.123-.063-.24-.25-.348a1.226 1.226 0 00-.662-.154c-.254.007-.491.069-.717.185l-.162-.095-.212.122.167.097c-.225.15-.371.328-.44.538l.515.052a.766.766 0 01.282-.383l.615.358-.01.006c-.193.18-.298.332-.317.459-.02.127.068.246.26.358.189.11.413.162.669.151" fill="#75ca75"/><path d="M8.599 19.035l.01-.006-.615-.358a.766.766 0 00-.282.383l-.515-.052c.069-.21.215-.389.44-.538l-.167-.097.212-.122.162.095c.226-.116.463-.178.717-.185.25-.007.472.044.661.154.188.109.273.225.252.348-.017.123-.12.272-.311.449l.635.37a.728.728 0 00.283-.495l.527.027c-.032.259-.185.484-.453.674l.238.139-.211.122-.235-.136a1.708 1.708 0 01-.736.196 1.21 1.21 0 01-.67-.151c-.191-.112-.279-.231-.26-.358.02-.127.125-.28.318-.46zm.656.66a.908.908 0 00.342-.092l-.589-.342c-.092.098-.14.175-.144.23-.004.054.032.101.11.146a.5.5 0 00.281.057m-.494-.821c.084-.094.126-.165.128-.216 0-.05-.036-.097-.107-.138a.491.491 0 00-.268-.058.789.789 0 00-.32.082z" fill="#65aa65"/><path d="M3.618 20.07l.137.079 1.66-.96-.136-.079z" fill="#75ca75"/><path d="M7.935 21.216l.476.277.103-.059-.385-.223.092-.054-.092-.053z" fill="#9ad898"/><path d="M5.003 20.57c-.352.204-.354.535-.006.738.35.203.923.203 1.275 0 .351-.203.353-.534.003-.738-.349-.202-.921-.202-1.272 0z" fill="#75ca75"/><path d="M7.715 21.433c-.033.02-.041.04-.03.066a.264.264 0 00.094.081.458.458 0 00.139.054.167.167 0 00.114-.016c.031-.018.042-.04.027-.065-.014-.027-.044-.052-.093-.08a.422.422 0 00-.139-.055.161.161 0 00-.112.015z" fill="#9ad898"/><path d="M7.627 21.382a.355.355 0 01.215-.046c.08.006.155.03.23.075.076.043.119.087.129.133.011.045-.015.087-.08.125a.357.357 0 01-.218.047.55.55 0 01-.228-.076c-.076-.043-.118-.087-.13-.132-.012-.045.014-.087.082-.126zm.29.252a.167.167 0 00.115-.016c.031-.018.042-.04.027-.065-.014-.027-.044-.052-.093-.08a.422.422 0 00-.139-.055.161.161 0 00-.112.015c-.033.02-.041.04-.03.066a.264.264 0 00.094.081.458.458 0 00.139.054M7.153 21.656a.355.355 0 01.215-.046c.08.005.155.03.23.074.076.044.119.088.129.134.012.045-.015.086-.08.124a.357.357 0 01-.217.048.55.55 0 01-.229-.076c-.075-.044-.118-.088-.13-.133-.012-.045.015-.086.082-.125zm.291.252a.167.167 0 00.115-.017c.03-.017.04-.04.027-.065-.014-.027-.045-.052-.094-.08a.422.422 0 00-.138-.055.161.161 0 00-.113.016c-.033.019-.041.04-.029.066a.264.264 0 00.094.08.458.458 0 00.138.055" fill="#9ad898"/><path d="M7.241 21.707c-.033.019-.041.04-.029.066a.264.264 0 00.094.08.458.458 0 00.138.055.167.167 0 00.115-.017c.03-.017.04-.04.027-.065-.014-.027-.045-.052-.094-.08a.422.422 0 00-.138-.055.161.161 0 00-.113.016z" fill="#9ad898"/><g><path d="M16.167 17.653l-9.68 5.589-4.723-2.744 9.68-5.589zM5.682 22.378c.447-.258 1.17-.258 1.617.001l7.375-4.258c-.446-.26-.444-.679.003-.937l-2.43-1.412c-.447.258-1.17.258-1.617-.001l-7.375 4.258c.446.26.444.678-.003.937z" fill="#75ca75"/></g><g><path d="M16.391 17.653l-9.907 5.72-4.949-2.875 9.908-5.72zm-9.905 5.589l9.68-5.589-4.721-2.744-9.68 5.589z" fill="#9ad898"/></g></g><g><path d="M12.434 19.94l-1.831 1.063-4.983-2.876 1.831-1.064z" fill="#5b5e71"/><path d="M12.145 20.107L7.162 17.23l-1.248.726 4.983 2.877z" fill="#ebc5b2"/></g></g></g></svg>