<?xml version="1.0"?>
<svg xmlns="http://www.w3.org/2000/svg" xmlns:xlink="http://www.w3.org/1999/xlink" xmlns:svgjs="http://svgjs.com/svgjs" version="1.1" width="512" height="512" x="0" y="0" viewBox="0 0 512 512" style="enable-background:new 0 0 512 512" xml:space="preserve" class=""><g>
<g xmlns="http://www.w3.org/2000/svg" id="surface1">
<path d="M 291 512 L 362 512 L 362 301 L 512 301 L 512 241 L 291 241 Z M 291 512 " style=" stroke:none;fill-rule:nonzero;fill-opacity:1;" fill="#b7a440" data-original="#000000" class=""/>
<path d="M 432 80 L 80 80 L 80 291 L 261 291 L 261 211 L 432 211 Z M 432 80 " style=" stroke:none;fill-rule:nonzero;fill-opacity:1;" fill="#b7a440" data-original="#000000" class=""/>
<path d="M 0 0 L 0 371 L 181 371 L 181 452 L 261 452 C 261 446.878906 261 325.742188 261 321 L 50 321 L 50 50 L 462 50 L 462 211 L 512 211 L 512 0 Z M 0 0 " style=" stroke:none;fill-rule:nonzero;fill-opacity:1;" fill="#b7a440" data-original="#000000" class=""/>
<path d="M 392 512 L 512 512 L 512 331 L 392 331 Z M 432 446.5 L 472 446.5 L 472 486.5 L 432 486.5 Z M 432 446.5 " style=" stroke:none;fill-rule:nonzero;fill-opacity:1;" fill="#b7a440" data-original="#000000" class=""/>
<path d="M 131 482 L 261 482 L 261 512 L 131 512 Z M 131 482 " style=" stroke:none;fill-rule:nonzero;fill-opacity:1;" fill="#b7a440" data-original="#000000" class=""/>
</g>
</g></svg>
