<svg id="Layer_1" enable-background="new 0 0 50 50" height="512" viewBox="0 0 50 50" width="512" xmlns="http://www.w3.org/2000/svg"><g><g><g fill="#e4e8f4"><path d="m13.6185379 7.7044797.0092058-3.4599609c.0092068-.2202148.0919495-.3500977.2115173-.3999023l.5058327-.3203125c.1012115-.0698242.2391348-.0595703.3954716.0400391l4.3870649 2.75c.3035221.1899414.5518627.6601563.5518627 1.0400391l-.0092049 3.4599614c0 .1899414-.0643883.3203125-.1655426.3798828l-.5518646.3300781c-.0092049 0-.0092049.0102539-.0092049.0102539l-.0275631.0097656.0092068-.0097656c-.1012115.0498047-.229929.0400391-.3679085-.050293l-.9289227-.5800781-.71735.9804688-.5518646.3598633-1.0484333-2.7900391-1.1404953-.7202148c-.3034657-.1899416-.5518073-.6499025-.5518073-1.0297858z"/><path d="m15.8074675 21.6244011v1.2402344c.6438131.7299805.4874201 1.6699219-.5058327 2.2998047-1.1956768.75-3.1454706.75-4.350297 0-.9380722-.5898438-1.140439-1.4702148-.6161938-2.1801758v-1.3696289c0-.4399414.2666969-.8803711.7909422-1.2104492 1.0669022-.6796875 2.8051796-.6796875 3.8720264 0 .6161938.3803711.8645353.9003906.7817364 1.4101563.0092059-.0600587.0276185-.1298829.0276185-.1899415z"/><path d="m49 30.3744011v.9199219l-.0183563 5.9902344c0 .0898438-.0368233.1499023-.082798.1801758l-.6069908.3896484c-.0551796.0302734-.1195641.0302734-.1931572-.0200195l-2.2992935-1.4399414v2.0097656l-11.5424271 7.1201172-5.1136227 2.5102539c-.1287727.0800781-.3035221.1196289-.4690647.1196289-.1471291-.0097656-.2943153-.0395508-.4138832-.1196289l-23.4527674-14.7202149c-.1287737-.0698242-.1839542-.1699219-.1839542-.2797852v-.3500977c0-.1000977.0643868-.2001953.1839542-.2700195l16.0858307-10.1499023.046032-19.5600586c0-.2202148.0827427-.3798828.2023106-.4501953l.570219-.3598632c.1103611-.0800781.2759037-.0600586.4506531.0498047l23.04809 14.4702139c.1655426.1000977.3035202.2602539.4138832.4501953.1379814.2299805.2299309.5.2299309.75l-.027565 10.0097656 2.5659904 1.6201172c.3402891.1997079.606986.7099618.606986 1.1298837z"/><path d="m4.7892833 24.5243034c-.055181.0200195-.1195679.050293-.1747484.0703125l-.809355 1.5498047-.9657471-.1601563-.524189-.3300781.3402908-1.3896484-.8645358.5498047-.524245-.3300781-.2667538-1.2197266 1.04849-1.2802734c.0184124-.199707.0368247-.409668.0735931-.6196289l-.2943159-.1801758-.5334513-.3300781.5978382-1.5800781 1.0944647-.1899414c.1195676-.2099609.2483413-.4199219.3954713-.6098633l-.0275624-1.4199219 1.103615-1.0102539.5334511.3300781.2666974.5297852c.055181-.0195313.1195679-.0498047.1747484-.0698242l.800149-1.5400381.9657469.1499023.5333953.3300781-.3402905 1.3901358.8645353-.5498047.4598579.2895508.1379805-.5898438-.4506521.2900391-.5334516-.3300781-.1839542-.8999015.7725863-.949707c.0092058-.1503906.0275621-.300293.0551805-.4599609l-.082799-.050293-.533451-.3300781.4415016-1.1699219.8093548-.1401367c.0919495-.1499023.1931047-.3095703.2943163-.449707l-.0184126-1.050293.8185616-.7597656.5333948.3398438.1379805.2700195c.0184116-.0097656.036768-.0200195.0551805-.0200195l.5886316-1.1396484.71735.1098633.5334511.3398438-.2023106.8198242.4414454-.2900391.5334511.340332.1931047.8999023-.7817364.9399414c0 .1499023-.0184126.300293-.0459747.4501953l.0827436.0498047.5334511.340332-.4506521 1.1699219-.8093548.1396484c-.082799.1601563-.1839552.3100586-.2851105.4501953l.0183563 1.0600576-.8277111.75-.5242453-.3300781-.1379795-.2797852c-.0183563 0-.036768.0097656-.0551805.0195313l-.5977821 1.1401367-.7081995-.1098633-.3310842-.2099609.1931047.9101563-1.0484343 1.2597656c-.0184126.2099609-.0368247.4199219-.0735931.6298828l.2943163.1699219.5334511.340332-.5978384 1.5795898-1.0852585.1904297c-.1287737.199707-.2575474.409668-.4046774.5996094l.0275621 1.4301758-1.1036148 1.0200195-.5334511-.3398438z"/></g><g><g><g enable-background="new"><g><path d="m12.9433565 13.1044788-.5303964-.3351392.6169586.3582801.5303964.3351384z" fill="#474b59"/></g><g><path d="m11.2114391 17.0387554-.5303974-.3351383-.3653116-.7478676.5303974.3351383z" fill="#474b59"/></g><g><path d="m12.7293835 11.3296127-.5303965-.3351392.8528242-.547266.5303965.3351392z" fill="#474b59"/></g><g><path d="m7.9203072 20.0878181-.530397-.3351402.8314405.4821606.5303964.3351402z" fill="#f25574"/></g><g><path d="m11.1957092 14.6453991c-.0677271.0613279-.1316881.1104708-.1956491.1514235-.2445889.1514235-.4703455.1717997-.6359081.069519l-.5305634-.3356085c.1655626.1022806.3913422.0860996.6359091-.069519.063983-.0407524.127944-.0898952.1956711-.1512241.4816227-.4378891.7675962-1.2151823.6622505-1.7469616-.0376415-.1801901-.1204109-.3068419-.2332897-.3763609l.5305405.3354082c.1128788.069519.1956711.1963711.2332897.3763609.1053686.5319795-.1806059 1.3092727-.6622506 1.7469625z" fill="#5b5e71"/></g><g><path d="m9.1864481 17.477108-.5303965-.3351402.2880564-1.1940661.5303965.3351393z" fill="#474b59"/></g><g><path d="m5.5879655 25.3911991-.5303969-.3351402-.4982954-.9920674.5303965.3351384z" fill="#f25574"/></g><g><path d="m9.4745045 16.283041-.5303993-.3351364c-.0819778-.0627098-.1543579-.134551-.2171688-.2303352l.5303917.335144c.0628156.0957794.1351957.1676197.2171764.2303276z" fill="#5b5e71"/></g><g><path d="m11.4963169 10.9372683-.5303965-.3351384.5938054-1.1364317.5303964.3351384z" fill="#474b59"/></g><g><path d="m12.0901222 9.8008366-.5303964-.3351384.7149734.1103135.5303965.3351392z" fill="#5b5e71"/></g><g><path d="m7.6301055 17.6904202-.5303965-.3351403 1.153111-.7418079.5303965.3351383z" fill="#f25574"/></g><g><path d="m11.1429844 11.08992-.5303965-.3351383c.1153383-.0634356.235527-.1149101.3533325-.1526518l.5303917.3351383c-.1177997.0377427-.2379884.0892163-.3533277.1526518z" fill="#5b5e71"/></g><g><path d="m8.9892683 14.7627859-.5303974-.3351326c.0068092-.1575985.0256357-.3196449.0540857-.4849539l.5303965.3351412c-.02845.1653061-.0472765.3273535-.0540848.4849453z" fill="#5b5e71"/></g><g><path d="m8.214489 15.7061863-.530397-.3351383.7747798-.9434014.5303965.3351393z" fill="#474b59"/></g><g><path d="m8.4045391 16.6090832-.5303965-.3351383-.1900506-.9028969.530397.3351383z" fill="#5b5e71"/></g><g><path d="m5.6043448 18.9612732.5303955.335144c.1516566.0958214.2642055.2693577.3169937.5167236.1510377.7109451-.2432656 1.7611275-.8890362 2.3498402l-.5303965-.3351383c.6457705-.5887127 1.0400739-1.638895.8890362-2.3498421-.0527882-.247364-.165337-.4209003-.3169927-.5167274z" fill="#f25574"/></g><g><path d="m4.4413428 22.4646835-.5304-.3351345c.2207582.1394825.52472.1121483.8479264-.090744.0901151-.0565701.1817174-.1267967.2734323-.2109623l.5303965.3351383c-.0917144.0841675-.1833172.1543941-.2734318.2109642-.3232065.2028923-.6271683.2302246-.8479234.0907383z" fill="#f25574"/></g><g><path d="m9.6790915 12.6100922-.5303984-.3351345c.0886421-.1518812.1892939-.3082008.292387-.4541445l.5303907.3351402c-.1030864.1459427-.2037391.3022623-.2923793.4541388z" fill="#5b5e71"/></g><g><path d="m2.8438938 25.9893131-.5303967-.3351402.3904597-1.6039753.5303967.3351383z" fill="#f25574"/></g><g><path d="m9.9518986 11.1070538-.5303974-.3351393.8234024-.757473.5303964.3351393z" fill="#5b5e71"/></g><g><path d="m9.9714766 12.1559525-.5303965-.3351393-.0195789-1.0488987.5303974.3351393z" fill="#474b59"/></g><g><path d="m3.2343535 24.3853359-.5304008-.3351345c-.1060944-.0867195-.2026286-.191515-.2871764-.3159027l.5303934.335144c.0845512.1243821.1810854.2291775.2871838.3158932z" fill="#f25574"/></g><g><path d="m8.4312057 13.9165382-.5303969-.3351392.4397111-1.1688843.5303965.3351393z" fill="#5b5e71"/></g><g><path d="m12.9974566 12.6255589c-.0068007.157588-.02565.313611-.0541.47892l.6169586.3582792-.4445219 1.1719046-.8081465.1435814c-.0886459.1518812-.1893139.3021727-.292407.4481163l.0195942 1.0549259-.8233948.7574692-.3653116-.7478676c-.117734.0649395-.2379227.1164131-.3557281.1541557l-.5937967 1.1424637-.7101547-.1103993.2880564-1.194067c-.0819807-.0627079-.1543608-.1345482-.2171717-.2303333l-.8527937.5563755-.1900501-.9028969.7747793-.9434004c.0068083-.1575918.0256348-.3196392.0540848-.4849472l-.6121473-.3613005.4397106-1.1688843.8081751-.1375618c.0886402-.1518764.1892929-.3081961.2923851-.4541397l-.019578-1.0488987.8234015-.757473.3676844.7403393c.1153393-.0634356.235528-.1149092.3533325-.1526518l.5938053-1.1364317.7149734.1103144-.2880793 1.1851053c.0771761.0657225.1495647.1435957.2123671.2333565l.8528242-.547266.1900434.9027414zm-1.8018799 2.0208835c.4801188-.4395466.7668533-1.2148905.6619921-1.7473488-.0964279-.4491825-.4629135-.5641003-.8677378-.3099718-.0655336.0411386-.1321068.0920658-.1986752.1526079-.4753075.4366941-.7740602 1.2195826-.6620083 1.7414894.0966053.4498882.462451.5700998.869173.3147802.0650082-.0408086.1310845-.0912561.1972562-.1515569" fill="#3f434f"/></g><g><path d="m8.8709164 12.747654-.5303965-.3351393.8081751-.1375618.5303965.3351393z" fill="#474b59"/></g><g><path d="m5.9659739 17.1687355-.530397-.3351402.8021026-1.543663.5303969.3351392z" fill="#f25574"/></g><g><path d="m6.7680764 15.6250715-.5303969-.3351392.9653249.1516618.5303969.3351383z" fill="#f76d8e"/></g><g><path d="m5.4876318 17.3669109-.5303988-.3351326c.161006-.086071.3244519-.1557236.478344-.1981831l.5303912.3351402c-.1538864.0424596-.3173328.1121121-.4783364.1981755z" fill="#f76d8e"/></g><g><path d="m2.5816648 22.3206978-.5303977-.3351364c.0114946-.2086525.0374031-.4232616.0753217-.6485004l.5303926.3351402c-.0379144.2252368-.0638229.439846-.0753166.6484966z" fill="#f76d8e"/></g><g><path d="m1.5334221 23.5951214-.5303967-.3351383 1.0482427-1.2744236.5303967.3351383z" fill="#f25574"/></g><g><path d="m1.7940849 24.8174305-.5303967-.3351383-.2606628-1.2223091.5303967.3351383z" fill="#f76d8e"/></g><g><path d="m3.5125644 19.415453-.5304-.3351345c.1221883-.2060509.2539983-.4121094.3954659-.6030178l.530396.335144c-.1414669.1909046-.2732769.3969631-.3954619.6030083z" fill="#f76d8e"/></g><g><path d="m3.9080267 18.812439-.5303965-.3351384-.0205502-1.4242553.5303967.3351402z" fill="#f25574"/></g><g><path d="m3.8874767 17.3881855-.5303967-.3351402 1.1018662-1.0133457.530397.3351383z" fill="#f76d8e"/></g><g><path d="m1.8279411 21.1885281-.5303967-.3351403.5950496-1.58218.5303966.3351402z" fill="#f76d8e"/></g><g><path d="m2.4229906 19.606348-.5303966-.3351402 1.0895737-.1908932.5303967.3351384z" fill="#f25574"/></g><g><path d="m7.9956212 19.4393158c-.0114784.2145176-.0373864.429287-.075314.6485023l.83144.4821606-.5974588 1.5836906-1.0871644.1893921c-.1221786.2060413-.2563987.4105053-.3978715.6045246l.0205722 1.4301109-1.1018591 1.0135021-.4982958-.9920692c-.1610126.0800323-.3244667.1465988-.4783425.1980076l-.8020952 1.543829-.9653382-.1516533.3904598-1.6039772c-.1060984-.0867157-.2026327-.1915112-.2871804-.315897l-1.1530882.7479916-.2606628-1.2223091 1.0482427-1.2744236c.0114937-.2086506.0374022-.4232597.0753207-.6484985l-.8290445-.4836712.5950495-1.58218 1.0895739-.1908951c.122185-.2060452.2539949-.4121037.3954623-.603014l-.02055-1.4242535 1.1018665-1.0133476.4982886.9920731c.1610036-.0860634.32445-.1557159.4783421-.1981754l.8021026-1.543664.9653249.1516609-.3904536 1.6039724c.103703.0882206.2026105.1854877.2871575.3097153l1.153111-.7418098.260663 1.2223091zm-2.4329233 2.7236652c.6457705-.5887127 1.0400739-1.638895.8890362-2.3498402-.1298423-.6084385-.6212344-.7702141-1.1668363-.4275532-.0891056.0559349-.179666.1251793-.270318.2083511-.6433601.5902977-1.0400567 1.6480217-.8890214 2.3529301.1295967.6125164.6193571.7687912 1.1637077.4270763.0901146-.0565699.1817174-.1267966.2734318-.2109641" fill="#e63044"/></g></g></g><g><g><g><g><g><g><g><g><path d="m45.8053169 37.1740379-16.6635876 10.512043c-.2415428.1526222-.6313343.152626-.8744202.0000267l-23.4578723-14.7256355c-.2378016-.1492805-.2443495-.3980827-.0028062-.550705l16.6635857-10.5120411z" fill="#e4e8f4"/></g><g fill="#cad0dd"><path d="m29.1408978 47.6819992c-.1273556.081295-.2961369.1164474-.4641094.1116142v.3571358c.1657505.0035133.3339748-.0320778.4641094-.1120529l5.1194897-2.5152512 11.5428696-7.1234055v-1.2249908z"/><path d="m28.2635517 47.6819992-23.4566512-14.7228355c-.1158881-.0720634-.1820669-.1709366-.1820669-.2790337v.3566971c0 .1076584.0579443.2065277.1820669.2785912l23.4566517 14.723278c.1142216.0725021.262743.1085358.4132366.1120529v-.3571358c-.1486249-.0043945-.2966924-.0395469-.4132371-.1116142z"/></g></g><g><path d="m44.6346931 16.7818508c.3540573.2222595.6384888.757803.6373329 1.2001801l-.0510063 19.5627537-24.329813-15.2729969.0510063-19.5627537c.0011539-.4423776.2874603-.6196425.6415195-.3973825z" fill="#5b5e71"/></g></g><g><path d="m45.0529671 17.2490311c.1324539.229393.219368.4908142.219368.7300987l-.0496559 19.5647659.5793724-.3692856.0496559-19.5642986c.0046043-.244936-.0874557-.5120106-.2265701-.7446995z" fill="#cad0dd"/><path d="m45.2143936 16.4134216-23.0510692-14.4710329c-.1737728-.1083373-.3393154-.1262364-.4552021-.0456901l-.5794239.3692888c.1158848-.0810175.2731419-.0626473.4553089.0452189l23.0510139 14.4705601c.1629448.103157.3060684.2741413.4179459.4672642l.5721703-.383419c-.1117707-.1865287-.2521859-.3523326-.4107438-.45219z" fill="#e4e8f4"/></g><path d="m44.391449 18.5269012v.0431653l-.0609131 17.3049526-10.0411987-6.3204727-5.4677773-3.4251633-1.0976982-.6852474-1.910677-1.1935196-4.0245685-2.5413552.0406933-17.3491973 14.1268024 8.8618278 1.8903275 1.1935196 1.1179237.7079105z" fill="#fff"/><g><path d="m17.7129555 33.3564262 8.4554996 5.3075829.0538807-.0339127c.1127987-.071125.107872-.189827-.0055771-.260952l-8.5038033-5.3381996c-.1092243-.0687714-.2976189-.0715981-.4103622 0l-4.6459112 2.9354668c-.1168604.0739517-.1119318.1926537-.0027075.260952l.0525274.0329742 4.5960913-2.9039116c.1127434-.071598.301138-.0687713.4103623 0z" fill="#bac1ce"/><path d="m21.5764256 41.5655632 4.5920296-2.9015541-8.4554996-5.3075829c-.1092243-.0687714-.2976189-.0715981-.4103622 0l-4.5960913 2.9039116 8.4512758 5.3052254c.1134471.0711288.3017882.0739555.4186477 0z" fill="#cad0dd"/></g></g></g></g><g><path d="m40.8409729 40.6526833.0012474.4884071 4.2107849-2.7025299-.0012436-.4884071z" fill="#bac1ce"/></g><g><g><path d="m21.9177399 24.3071384c.0928288.0582714.0909023.1464252.0009727.203249l-.6383667.4033604c-.0851841.0538254-.2298927.0583248-.3227196.0000534l-.9496593-.5961456c-.0904369-.0567722-.0861549-.1494255-.0009708-.2032509l.6383667-.4033604c.0899296-.0568237.2322826-.0568256.3227196-.0000515z" fill="#5b5e71"/></g><g><path d="m23.3743553 25.2215252c.0904388.0567722.095665.149416.0057335.2062397l-.6383648.4033604c-.0851841.0538254-.2370453.0538349-.3274822-.0029373l-.9520321-.5976353c-.0833035-.0522938-.0837822-.147934.0014019-.2017593l.6383667-.4033623c.0899296-.0568237.2370434-.0538349.3203468-.0015411z" fill="#5b5e71"/></g><g><path d="m24.8357334 26.1389027c.0904388.0567722.0909023.1464252.0009708.203249l-.6383648.4033623c-.0851841.0538235-.2322826.0568237-.3227215.0000515l-.9520473-.5976448c-.0904369-.0567722-.0837669-.1479263.0014172-.2017498l.6383667-.4033623c.0899315-.0568237.2298946-.0583248.3203316-.0015526z" fill="#5b5e71"/></g><g><path d="m26.2899761 27.0517998c.0928116.0582619.0980358.1509056.0081062.2077293l-.6383667.4033604c-.0851841.0538254-.2370434.0538368-.329855-.004425l-.9496574-.5961475c-.0904541-.0567818-.0861568-.1494236-.0009727-.203249l.6383667-.4033604c.0899315-.0568237.2322674-.0568352.3227215-.0000534z" fill="#5b5e71"/></g><g><path d="m27.7537251 27.9706669c.0904388.0567722.0885143.1449261-.0014172.2017498l-.6383648.4033623c-.0851841.0538235-.2298946.0583229-.3203335.0015507l-.9520302-.5976353c-.0904541-.0567818-.0933056-.1539135-.0081215-.2077389l.6383667-.4033604c.0899296-.0568237.2394161-.0523453.3298702.0044365z" fill="#5b5e71"/></g><g><path d="m20.6171474 25.1289387c.0928268.0582714.0932102.1449661.0034084.2017078l-.8701839.549839c-.0898037.0567436-.2345123.0612431-.3273392.0029716l-.9496574-.5961456c-.0904388-.0567741-.0861568-.1494255.0036449-.2061691l.8701859-.549839c.0898018-.0567417.229845-.0552845.320282.0014877z" fill="#5b5e71"/></g><g><path d="m22.0737629 26.0433254c.0904369.0567722.0979729.1479549.0081692.2046986l-.8701839.549839c-.0898018.0567436-.241663.0567532-.3320999-.0000191l-.9520302-.5976353c-.0833054-.0522938-.0837841-.1479359.0060177-.2046776l.8701859-.549839c.0898018-.0567436.2346058-.0522957.3179092-.0000019z" fill="#5b5e71"/></g><g><path d="m23.5351391 26.9607029c.0904388.0567722.0932121.1449661.0034084.2017078l-.8701839.549839c-.0898018.0567436-.2369003.0597439-.3273392.0029716l-.9520454-.5976467c-.0904388-.0567722-.0837669-.1479244.0060349-.204668l.8701839-.549839c.0898018-.0567417.227457-.0567837.317894-.0000114z" fill="#5b5e71"/></g><g><path d="m24.9893818 27.8736c.0928116.0582619.1003456.1494446.0105438.2061882l-.8701839.549839c-.0898037.0567436-.241663.0567532-.3344746-.0015087l-.9496574-.5961456c-.0904541-.0567818-.0861549-.1494236.0036469-.2061672l.8701839-.549839c.0898018-.0567436.2298298-.055294.3202839.0014877z" fill="#5b5e71"/></g><g><path d="m26.4531307 28.7924671c.0904388.0567722.0908241.1434669.0010204.2002087l-.8701839.549839c-.0898018.0567436-.2345123.0612431-.3249493.0044708l-.9520321-.5976353c-.0904541-.0567837-.0933056-.1539135-.0035038-.2106571l.8701859-.549839c.0898018-.0567417.2369785-.050806.3274326.0059776z" fill="#5b5e71"/></g><g><path d="m19.9432926 26.4900913c.0904369.0567722.0909023.1464272.0010986.2031689l-.8678741.5483799c-.0922413.0582829-.2321548.0567436-.3225937-.0000286l-1.6922417-1.0623016c-.0904388-.0567722-.0933399-.144886-.0011005-.2031689l.8678761-.5483799c.0898018-.0567436.2321548-.0567436.3225918.0000286z" fill="#5b5e71"/></g><g><path d="m21.4403725 27.429882c.0833035.0522938.0909023.1464252.0011005.2031689l-.8678761.5483799c-.0922394.0582829-.2392883.0522652-.3225918-.0000286l-.9520302-.5976353c-.0904541-.0567837-.0981026-.1478748-.0058613-.2061577l.8678741-.5483799c.0898037-.0567436.2369003-.0537663.3273544.0030174z" fill="#5b5e71"/></g><g><path d="m22.9017506 28.3472595c.0856762.0537834.0909023.1464252.0010986.203167l-.8678741.5483799c-.0922394.0582848-.2369156.0537548-.3225937-.0000286l-.9496574-.5961456c-.0928268-.0582714-.1004734-.1493645-.008234-.2076473l.8678761-.5483799c.0898018-.0567417.2368984-.0537643.3297253.0045071z" fill="#5b5e71"/></g><g><path d="m24.3654995 29.2661247c.0833035.0522938.0885296.1449356-.0012722.2016792l-.8678761.5483799c-.0922394.0582829-.2369156.0537548-.320219.001461l-.9520302-.5976353c-.0904388-.0567722-.1004753-.1493645-.008234-.2076473l.8678741-.5483799c.0898018-.0567436.2392883-.0522652.3297272.0045071z" fill="#5b5e71"/></g><g><path d="m18.9029865 27.6241169c.0904369.0567722.0981007.1478729.0058613.2061558l-.8678761.5483818c-.0898018.0567417-.2369156.0537529-.3273525-.0030193l-2.0706854-1.2998676c-.0904388-.0567722-.0909023-.1464252-.0011005-.2031689l.8678751-.5483799c.0922394-.0582829.2321548-.0567436.3225937.0000286z" fill="#5b5e71"/></g><g><path d="m20.3714981 28.5459709c.0904369.0567722.0933399.144886.0010986.2031689l-.8678741.5483799c-.0898018.0567436-.2321548.0567436-.3225918-.0000286l-.9520321-.5976353c-.0904541-.0567837-.0885296-.1449356.0012741-.2016792l.8678741-.5483799c.0922394-.0582829.2297649-.0582428.3202209-.001461z" fill="#5b5e71"/></g><g><path d="m18.2053089 28.9643364c.0904541.0567818.0837822.1479359-.0060196.2046776l-.8701839.549839c-.0898037.0567436-.227457.0567856-.3179111.0000019l-2.7846994-1.7480888c-.0904388-.0567741-.0932121-.144968-.0034094-.2017097l.8701839-.549839c.0898027-.0567436.2369013-.0597439.3273392-.0029716z" fill="#5b5e71"/></g><g><path d="m21.8257408 29.4588699c.0904369.0567722.0933399.1448841.0010986.2031689l-.8678741.5483799c-.0898018.0567417-.2321548.0567436-.3225918-.0000286l-.9496593-.5961475c-.0928268-.0582714-.098053-.1509132-.0082493-.2076569l.8678741-.5483799c.0922413-.0582829.2369156-.0537548.3297443.0045185z" fill="#5b5e71"/></g><g><path d="m19.6381321 29.8637886c.0904388.0567722.0861549.1494255-.0036469.2061672l-.8701839.549839c-.0898018.0567436-.229845.0552845-.3202839-.0014877l-.9520302-.5976353c-.0904541-.0567818-.0908394-.1434765-.0010357-.2002201l.8701839-.549839c.0898018-.0567417.2345123-.0612411.3249664-.0044594z" fill="#5b5e71"/></g><g><path d="m15.3965273 28.9852943c.0904388.0567722.0814581.1493855-.0083447.2061272l-.8678751.5483799c-.0898027.0567436-.2297649.0582428-.3202038.0014706l-1.3923578-.8740501c-.0904379-.0567722-.0909023-.1464252-.0010996-.203167l.8678751-.5483818c.0898018-.0567417.2392101-.0612011.329648-.0044289z" fill="#5b5e71"/></g><g><path d="m16.7888699 29.8593349c.0904541.0567818.0814724.149395-.0083294.2061367l-.8678751.5483799c-.0898018.0567436-.2297649.0582428-.320219.001461l-.9520311-.5976353c-.0904379-.0567722-.0980368-.1509037-.008234-.2076473l.8678751-.5483799c.0898027-.0567436.2463446-.0567226.3367825.0000496z" fill="#5b5e71"/></g><g><path d="m18.2716656 30.7901573c.0904541.0567818.0814743.149395-.0083294.2061367l-.8678741.5483799c-.0898018.0567436-.2297649.0582447-.320219.001461l-.9520321-.5976353c-.0904369-.0567722-.0980358-.1509037-.008234-.2076473l.8678761-.5483799c.0898018-.0567417.2463436-.0567226.3367825.0000496z" fill="#5b5e71"/></g><g><path d="m23.2823563 30.3732567c.0904369.0567722.09095.1433868-.0012894.2016697l-.8678761.5483799c-.0898018.0567436-.2297649.0582428-.3202019.0014706l-.9520473-.5976448c-.0904388-.0567722-.0980377-.1509056-.008234-.2076473l.8678741-.5483799c.0922413-.0582829.2392883-.0522652.3297272.0045071z" fill="#5b5e71"/></g><g><path d="m21.1066437 30.7856445c.0904541.0567818.0861549.1494236-.0036469.2061672l-.8701839.549839c-.0898037.0567436-.2298298.055294-.3202839-.0014877l-.9496574-.5961456c-.0928116-.0582619-.1003456-.1494446-.0105438-.2061882l.8701839-.549839c.0898037-.0567436.241663-.0567532.3344746.0015087z" fill="#5b5e71"/></g><g><path d="m29.2079678 28.8835659c.0904388.0567722.0956478.1494045.0057182.2062283l-.6383667.4033604c-.0851841.0538254-.2370281.0538464-.327467-.0029259l-.9520454-.5976467c-.0904388-.0567722-.0837669-.1479244.0014172-.2017498l.6383667-.4033604c.0899296-.0568237.2298927-.0583248.3203316-.0015526z" fill="#5b5e71"/></g><g><path d="m27.9073734 29.7053642c.0904388.0567722.0979576.1479454.0081558.204689l-.8701859.549839c-.0898018.0567436-.2416458.0567646-.3320827-.0000076l-.9520473-.5976467c-.0904388-.0567722-.0837669-.1479244.0060349-.204668l.8701859-.549839c.0898018-.0567436.2274551-.0567837.317894-.0000114z" fill="#5b5e71"/></g><g><path d="m25.8197422 30.1790237c.0904388.0567722.0956631.1494141.0058613.2061577l-.8678741.5483799c-.0922413.0582829-.2369156.0537548-.3273544-.0030193l-.9448967-.5931568c-.0904388-.0567722-.0981007-.1478729-.0058613-.2061577l.8678761-.5483799c.0898018-.0567417.2369156-.0537529.3273525.0030193z" fill="#5b5e71"/></g><g><path d="m24.7365818 31.2861462c.0904541.0567818.0933399.1448841.0011005.203167l-.8678761.5483799c-.0898018.0567436-.2321377.0567551-.3225918-.0000267l-.9520302-.5976372c-.0904388-.0567722-.095665-.1494141-.0058613-.2061577l.8678741-.5483799c.0922413-.0582829.2369156-.0537548.3273544.0030174z" fill="#5b5e71"/></g><g><path d="m22.5751705 31.70751c.0856762.0537834.0861568.1494236-.0036469.2061672l-.8701839.549839c-.0898018.0567436-.2346058.0522957-.3202839-.0014877l-.9496574-.5961456c-.0904541-.0567837-.1003609-.149456-.0105591-.2061977l.8701839-.549839c.0898018-.0567436.2440357-.0552654.3344898.0015182z" fill="#5b5e71"/></g><g><path d="m30.6693459 29.8009415c.0856762.0537834.0909023.1464252.0009708.2032509l-.6383667.4033603c-.0851822.0538254-.2370434.0538349-.3227196.0000515l-.9496574-.5961456c-.0928268-.0582714-.0933075-.1539135-.0081234-.207737l.6383667-.4033623c.0899315-.0568237.2370434-.0538349.3298721.0044365z" fill="#5b5e71"/></g><g><path d="m29.3687515 30.6227417c.0856762.0537834.0932102.1449661.0034084.2017097l-.8701839.549839c-.0898018.0567417-.241663.0567532-.3273392.0029697l-.9496574-.5961456c-.0928268-.0582714-.0933056-.1539135-.0035038-.2106571l.8701839-.549839c.0898018-.0567417.2346058-.0522938.3274345.0059776z" fill="#5b5e71"/></g><g><path d="m27.2811184 31.0963993c.0904388.0567722.0980377.1509056.0082359.2076473l-.8678761.5483799c-.0922394.0582829-.2392883.0522652-.3297272-.0045071l-.9520302-.5976353c-.0833035-.0522938-.0909672-.1433964.0012722-.2016792l.8678761-.5483799c.0898018-.0567436.2369156-.0537548.320219-.001461z" fill="#5b5e71"/></g><g><path d="m26.1908245 32.1990433c.0904388.0567741.0933399.144886.0011005.203167l-.867876.5483817c-.0898018.0567436-.2321529.0567436-.3225918-.0000305l-.9520473-.5976448c-.0904369-.0567703-.0956478-.1494026-.0058441-.2061462l.8678741-.5483799c.0922413-.0582829.2369003-.0537643.3273392.0030079z" fill="#5b5e71"/></g><g><path d="m24.0389214 32.6263771c.0904369.0567703.0909157.1524124.0011139.209156l-.8701839.549839c-.0898018.0567436-.2346058.0522957-.3250446-.0044785l-.9520302-.5976334c-.0904541-.0567818-.0932121-.1449661-.0034103-.2017097l.8701859-.549839c.0898018-.0567436.2368832-.0597534.3273373-.0029716z" fill="#5b5e71"/></g><g><path d="m32.1259613 30.7153301c.0904388.0567722.0885124.1449261-.0014191.2017498l-.6383648.4033604c-.0851841.0538254-.2298927.0583248-.3203316.0015526l-.9520473-.5976467c-.0904369-.0567722-.0861549-.1494236-.0009708-.203249l.6383667-.4033604c.0899296-.0568237.2322807-.0568256.3227196-.0000534z" fill="#5b5e71"/></g><g><path d="m30.825367 31.5371304c.0904369.0567722.0908222.143465.0010204.2002087l-.8701859.549839c-.0898018.0567436-.2345104.0612411-.3249493.0044708l-.9520473-.5976467c-.0904369-.0567722-.0861549-.1494236.0036469-.2061672l.8701859-.549839c.0898018-.0567436.2298431-.0552845.320282.0014877z" fill="#5b5e71"/></g><g><path d="m28.7424965 32.0137749c.0928268.0582733.0980358.1509056.008234.2076492l-.8678761.548378c-.0922394.0582848-.2368984.0537682-.3297253-.0045052l-.9496574-.5961456c-.0856781-.0537834-.0933399-.144886-.0011005-.2031689l.8678741-.5483799c.0898037-.0567436.2369175-.0537548.3225937.0000286z" fill="#5b5e71"/></g><g><path d="m27.64744 33.11343c.0904388.0567741.0909519.1433868-.0012894.2016716l-.8678741.548378c-.0898018.0567436-.2297649.0582428-.3202038.0014725l-.9520302-.5976372c-.0904541-.0567818-.098053-.1509132-.0082512-.2076569l.8678761-.548378c.0922394-.0582848.2392883-.0522652.3297424.0045166z" fill="#5b5e71"/></g><g><path d="m25.5074329 33.548233c.0904541.0567818.0861549.1494217-.0036469.2061653l-.8701859.549839c-.0898018.0567436-.2298279.055294-.320282-.0014877l-.9520302-.5976334c-.0904388-.0567741-.0908394-.1434784-.0010376-.200222l.8701839-.549839c.0898037-.0567436.2345295-.0612335.3249664-.0044594z" fill="#5b5e71"/></g><g><path d="m19.7544785 31.7209892c.0904369.0567741.0814571.1493855-.0083447.2061272l-.8678761.5483818c-.0898018.0567436-.2297649.0582428-.3202038.0014687l-.9520454-.5976448c-.0904388-.0567722-.0980377-.1509037-.0082359-.2076473l.8678761-.5483799c.0898018-.0567417.2463436-.0567226.3367825.0000496z" fill="#5b5e71"/></g><g><path d="m33.5801888 31.6282177c.0904541.0567818.098053.1509151.0081215.2077389l-.6383667.4033623c-.085186.0538216-.239418.0523453-.3298721-.0044365l-.9520302-.5976372c-.0833035-.0522938-.0837822-.1479359.0014019-.2017593l.6383648-.4033623c.0899315-.0568237.2370453-.0538349.3203506-.0015411z" fill="#5b5e71"/></g><g><path d="m32.2795944 32.450016c.0904541.0567856.1003609.149456.0105591.2061996l-.8701859.549839c-.0898018.0567436-.2440338.0552635-.3344879-.0015182l-.9520321-.5976372c-.0833035-.0522919-.0837822-.147934.0060196-.2046776l.8701859-.5498371c.0898018-.0567436.2346058-.0522957.3179092-.0000019z" fill="#5b5e71"/></g><g><path d="m30.2062454 32.9326439c.0904541.0567818.095665.1494141.0058632.2061577l-.8678761.548378c-.0922394.0582848-.2369003.0537643-.3273544-.0030174l-.9520302-.5976334c-.0833035-.0522957-.0933399-.144886-.0011005-.2031708l.8678761-.548378c.0898018-.0567436.2392883-.0522652.3225918.0000267z" fill="#5b5e71"/></g><g><path d="m29.1016827 34.026329c.0904388.0567741.0909519.1433868-.0012894.2016678l-.8678741.5483818c-.0898018.0567436-.2297649.0582428-.3202038.0014687l-.9520473-.5976448c-.0904369-.0567703-.0956631-.1494141-.0058613-.2061577l.8678761-.548378c.0922394-.0582848.2369156-.0537567.3273544.0030174z" fill="#5b5e71"/></g><g><path d="m35.0415649 32.5455933c.0904541.0567856.0909004.1464272.0009727.2032509l-.6383667.4033623c-.085186.0538254-.2322693.0568352-.3227234.0000496l-.9496574-.5961456c-.0928268-.0582695-.0861549-.1494255-.0009689-.2032471l.6383629-.4033623c.0899315-.0568237.2298965-.0583248.3227234-.0000534z" fill="#5b5e71"/></g><g><path d="m33.7409706 33.3673935c.0904541.0567818.0932121.1449661.0034103.2017097l-.8701859.549839c-.0898018.0567436-.2368851.0597534-.3273392.0029716l-.9496574-.5961456c-.0928268-.0582733-.0861568-.1494255.0036469-.2061691l.870182-.549839c.0898056-.0567436.227459-.0567856.3202858.0014877z" fill="#5b5e71"/></g><g><path d="m31.6676235 33.8500214c.0904541.0567818.098053.1509132.0082493.2076569l-.8678741.548378c-.0922394.0582848-.2392883.0522652-.3297424-.0045166l-.9520321-.5976372c-.0904369-.0567703-.0909653-.1433945.0012741-.2016792l.8678741-.548378c.0898037-.0567436.2297821-.0582352.3202209-.001461z" fill="#5b5e71"/></g><g><path d="m30.5559101 34.9392166c.0904369.0567741.0933399.144886.0010986.2031708l-.8678741.548378c-.0898018.0567436-.2321548.0567436-.3225918-.0000267l-.9520321-.5976372c-.0904541-.0567818-.0956631-.1494141-.0058613-.2061577l.8678761-.548378c.0922394-.0582848.2368984-.0537643.3273544.0030174z" fill="#5b5e71"/></g><g><path d="m36.4981804 33.4599838c.0904541.0567818.095665.1494141.0057335.2062378l-.6383667.4033623c-.085186.0538216-.23703.0538445-.3274841-.0029373l-.9520302-.5976372c-.0904388-.0567703-.0861549-.1494255-.0009689-.2032509l.6383629-.4033585c.0899315-.0568237.2322845-.0568275.3227234-.0000534z" fill="#5b5e71"/></g><g><path d="m35.1975861 34.2817802c.0904541.0567856.0979729.1479568.0081711.2047005l-.8701859.549839c-.0898018.0567436-.2416458.0567627-.3320999-.0000191l-.9520302-.5976334c-.0904388-.0567741-.0861549-.1494255.0036469-.2061691l.870182-.549839c.0898056-.0567436.229847-.0552864.3202858.0014877z" fill="#5b5e71"/></g><g><path d="m33.1290016 34.767395c.0904541.0567856.098053.1509171.0082474.2076569l-.8678741.5483818c-.0922394.0582848-.2392883.0522652-.3297424-.0045166l-.9496574-.5961456c-.0928116-.0582619-.0933399-.144886-.0011005-.2031708l.8678761-.548378c.0898018-.0567436.2297821-.0582352.3225937.0000267z" fill="#5b5e71"/></g><g><path d="m32.0125237 35.8536034c.0833054.0522957.0909691.1433983-.0012703.2016792l-.8678761.5483818c-.0898018.0567436-.2369156.0537529-.320219.001461l-.9520321-.5976372c-.0904369-.0567703-.098053-.1509132-.0082493-.2076569l.8678741-.548378c.0922413-.0582848.2393055-.0522575.3297443.0045166z" fill="#5b5e71"/></g><g><path d="m37.9595566 34.3773575c.0904541.0567856.0885315.1449394-.0014.2017632l-.6383667.4033585c-.085186.0538254-.2298927.0583267-.3203468.0015411l-.9520302-.5976334c-.0904388-.0567741-.0909195-.1524124-.0057335-.2062378l.6383629-.4033623c.0899315-.0568237.2370453-.0538368.3274841.0029373z" fill="#5b5e71"/></g><g><path d="m36.6589622 35.1991577c.0904541.0567818.0908394.1434784.0010376.200222l-.8701859.549839c-.0898018.0567436-.2345123.0612411-.3249664.0044594l-.9520302-.5976372c-.0904388-.0567703-.0909157-.1524124-.0011139-.209156l.870182-.549839c.0898056-.0567436.2346077-.0522957.3250465.0044785z" fill="#5b5e71"/></g><g><path d="m26.9759598 34.4700966c.0904388.0567741.0861549.1494255-.0036469.2061691l-.8701839.549839c-.0898037.0567436-.229845.0552826-.3202839-.0014877l-.9520473-.5976486c-.0904369-.0567703-.0979729-.147953-.0081692-.2046967l.8701839-.549839c.0898018-.0567436.241663-.0567551.3320999.0000191z" fill="#5b5e71"/></g><g><path d="m28.437336 35.3874741c.0928268.0582733.0932903.153904.0034885.2106476l-.8701839.549839c-.0898037.0567398-.2345905.0523033-.3274174-.00597l-.9496593-.5961456c-.0856915-.053791-.0932102-.1449661-.0034084-.2017097l.8701839-.549839c.0898037-.0567398.2416458-.0567627.3273392-.0029678z" fill="#5b5e71"/></g><g><path d="m29.9082375 36.3108292c.0904369.0567703.0909004.1524048.0010986.2091446l-.8701859.549839c-.0898018.0567436-.2345886.0523071-.3250275-.004467l-.9520473-.5976448c-.0904369-.0567703-.0932102-.1449661-.0034084-.2017097l.8701839-.549839c.0898018-.0567398.2369003-.059742.3273392-.0029678z" fill="#5b5e71"/></g><g><path d="m27.0208969 36.2824707c.0928268.0582733.0909805.155365.0011787.2121048l-.8678741.5483818c-.0898037.0567436-.2369003.0537643-.3297272-.004509l-6.7356701-4.228302c-.0904388-.0567741-.095665-.1494141-.0058613-.2061577l.8678741-.5483818c.0898037-.0567417.2439728-.0582123.3344097-.0014381z" fill="#5b5e71"/></g><g><path d="m28.4917984 37.2058258c.0904369.0567741.0885906.153862-.0012112.2106056l-.8678761.5483818c-.0898018.0567436-.2368984.0537643-.3273373-.0030098l-.9520473-.5976448c-.0904369-.0567703-.0909023-.1464233-.0010986-.203167l.8678741-.5483818c.0898037-.0567436.2392101-.061203.329649-.0044289z" fill="#5b5e71"/></g><g><path d="m34.5927658 35.6862717c.0904388.0567741.095665.1494141.0058632.2061577l-.867878.5483818c-.0922394.0582809-.2369156.0537529-.3273544-.0030174l-.9520454-.5976486c-.0904388-.0567703-.093338-.1448822-.0010986-.203167l.8678741-.548378c.0898018-.0567436.2321548-.0567436.3225937.0000267z" fill="#5b5e71"/></g><g><path d="m33.4667664 36.7665024c.0833054.0522957.0909538.1433868-.0012894.2016716l-.8678741.548378c-.0898018.0567436-.2369003.0537643-.3202019.0014725l-.9520473-.5976486c-.0904388-.0567703-.0956478-.1494026-.005846-.2061462l.8678741-.548378c.0922394-.0582848.2369003-.0537643.3273392.003006z" fill="#5b5e71"/></g><g><path d="m31.376749 37.2326851c.0904369.0567703.083765.1479225-.0060368.2046661l-.8701839.549839c-.0898018.0567436-.227457.0567856-.317894.0000114l-.9520473-.5976448c-.0904388-.0567703-.0932121-.1449661-.0034084-.2017097l.8701839-.549839c.0898018-.0567436.2369003-.059742.3273392-.0029716z" fill="#5b5e71"/></g><g><path d="m29.9936237 38.1485939c.0928268.0582733.0909977.1553726.0011959.2121162l-.8678761.5483818c-.0898018.0567436-.2369156.0537529-.3297424-.0045166l-.9496574-.5961494c-.0904388-.0567703-.0909023-.1464233-.0011005-.203167l.8678741-.548378c.0898037-.0567436.2392101-.061203.329649-.0044327z" fill="#5b5e71"/></g><g><path d="m39.4137993 35.2902565c.0904388.0567741.0980377.1509056.0081062.2077293l-.6383667.4033623c-.0851822.0538216-.239418.0523453-.3298531-.0044289l-.9520493-.5976448c-.0904388-.0567741-.0837669-.1479263.0014191-.2017479l.6383667-.4033623c.0899277-.0568237.2298927-.0583267.3203316-.0015526z" fill="#5b5e71"/></g><g><path d="m38.113205 36.1120567c.0904388.0567741.1003456.1494446.0105438.2061882l-.8701859.549839c-.0898018.0567436-.2440338.0552635-.3344727-.0015068l-.9520454-.5976486c-.0904388-.0567703-.0837669-.1479225.0060349-.2046661l.8701859-.549839c.0898018-.0567436.2274551-.0567856.317894-.0000114z" fill="#5b5e71"/></g><g><path d="m36.054142 36.6036491c.0904388.0567741.095665.1494141.0058632.2061577l-.8678741.5483818c-.0922432.0582809-.2369156.0537529-.3273544-.0030174l-.9520493-.5976486c-.090435-.0567703-.093338-.144886-.0010986-.203167l.8678741-.5483818c.0898018-.0567398.2321548-.0567436.3225937.0000305z" fill="#5b5e71"/></g><g><path d="m34.9209938 37.67939c.0833054.0522957.0933418.144886.0010986.2031708l-.8678741.548378c-.0898018.0567436-.2392883.0522652-.3225899-.0000267l-.9496422-.596138c-.0928268-.0582695-.098053-.1509132-.0082512-.2076569l.8678741-.548378c.0922394-.0582848.2369156-.0537567.3297424.0045166z" fill="#5b5e71"/></g><g><path d="m32.8452606 38.154541c.0904541.0567818.0861549.1494217-.0036469.2061653l-.8701859.549839c-.0898018.0567436-.2298279.055294-.320282-.0014877l-.9520321-.5976334c-.0904369-.0567741-.0979729-.1479568-.0081692-.2047005l.8701839-.549839c.0898018-.0567436.241663-.0567551.3320999.0000191z" fill="#5b5e71"/></g><g><path d="m31.497839 39.092865c.0928268.0582695.0909977.1553726.0011959.2121162l-.8678761.548378c-.0898018.0567436-.2369156.0537567-.3297424-.0045166l-.9496422-.596138c-.0928268-.0582695-.0909023-.1464233-.0011005-.203167l.8678761-.548378c.0898018-.0567436.2368202-.0627022.329649-.0044327z" fill="#5b5e71"/></g><g><path d="m40.8751755 36.207634c.0856781.0537834.0909042.1464272.0009727.2032509l-.6383667.4033585c-.0851822.0538254-.2370453.0538368-.3227196.0000534l-.9496574-.5961456c-.0928268-.0582733-.0932922-.153904-.0081062-.2077293l.6383667-.4033585c.0899277-.0568237.2370262-.0538483.3298531.004425z" fill="#5b5e71"/></g><g><path d="m42.7578354 37.3894691c.0904388.0567741.0909004.1464272.0009689.2032509l-.6383629.4033585c-.085186.0538254-.2322845.0568275-.3227234.0000534l-1.3780708-.8650818c-.0904541-.0567818-.0861549-.1494255-.0009727-.2032509l.6383667-.4033623c.0899315-.0568237.2322655-.0568352.3227196-.0000496z" fill="#5b5e71"/></g><g><path d="m41.4572411 38.2112694c.0904388.0567703.0932121.1449661.0034103.2017097l-.8701859.549839c-.0898018.0567436-.2369003.059742-.3273392.0029678l-2.7061729-1.6987953c-.0928268-.0582695-.0861549-.1494217.0036469-.2061653l.870182-.549839c.0898018-.0567436.227459-.0567856.3202858.0014877z" fill="#5b5e71"/></g><g><path d="m37.515522 37.5210266c.090435.0567741.0980339.1509056.0082321.2076454l-.8678741.5483818c-.0922394.0582809-.2392883.0522652-.3297272-.004509l-.9520454-.5976448c-.0904388-.0567703-.0909538-.1433868.0012856-.2016678l.867878-.5483818c.0898018-.0567398.229763-.0582428.3202019-.0014687z" fill="#5b5e71"/></g><g><path d="m40.040802 39.106266c.0904388.0567741.0909004.1464272.0010986.2031708l-.8678741.548378c-.0922394.0582848-.2321548.0567436-.3225937-.0000267l-2.0706825-1.2998695c-.0904541-.0567818-.0933418-.144886-.0011024-.2031708l.867878-.548378c.0898018-.0567436.2321358-.0567551.3225899.0000267z" fill="#5b5e71"/></g><g><path d="m38.6220512 40.0027237c.0904388.0567741.0933418.144886.0011024.2031708l-.867878.548378c-.0898018.0567436-.232151.0567436-.3225899-.0000267l-3.2036095-2.0110626c-.0833015-.0522919-.0909004-.1464233-.0010986-.203167l.8678741-.548378c.0922394-.0582848.2392883-.0522652.3225937.0000267z" fill="#5b5e71"/></g><g><path d="m37.2103615 40.894722c.0904388.0567741.0861549.1494255-.0036469.2061691l-.8701859.549839c-.0898018.0567436-.2298431.0552864-.320282-.0014877l-3.8200493-2.3980293c-.0904579-.0567818-.0979767-.1479568-.0081711-.2047005l.870182-.549839c.0898018-.0567398.2416458-.0567627.3320999.0000191z" fill="#5b5e71"/></g><g><path d="m32.2448196 40.3927002c.0904388.0567703.0909042.1464233.0009727.2032471l-.1725502.1090279c-.0922394.0582848-.2393379.0612831-.3297749.0045128l-.9520321-.5976372c-.0904541-.0567818-.0837822-.147934.0084572-.2062187l.1725483-.1090279c.0899315-.0568237.2298946-.0583229.3203487-.0015411z" fill="#5b5e71"/></g><g><path d="m34.3680801 40.8498917c.0904388.0567703.0956497.1494026.0057182.2062263l-.1796074.1134872c-.0922394.0582848-.2370262.0538445-.3274651-.0029259l-.9520454-.5976448c-.0904388-.0567741-.0932121-.1449699-.0009727-.2032509l.1796036-.1134872c.0899315-.0568237.2322845-.0568237.3227234-.0000496z" fill="#5b5e71"/></g><g><path d="m33.6728821 41.2891617c.0904388.0567741.0956459.1494064.0057182.2062302l-.1725502.1090279c-.0922394.0582809-.2440834.0583038-.3345222.0015297l-.9520454-.5976448c-.0904388-.0567741-.0861549-.1494255.0060844-.2077065l.1725464-.1090279c.0899315-.0568237.2322845-.0568275.3227234-.0000534z" fill="#5b5e71"/></g><g><path d="m35.10569 42.1886063c.0904388.0567703.0909004.1464233.0009727.2032471l-.1725502.1090279c-.0922394.0582848-.2393379.0612831-.3297768.004509l-.9496574-.5961456c-.0928268-.0582695-.0932884-.1539001-.001049-.2121849l.1725464-.1090279c.0899315-.0568237.23703-.0538445.3298569.004425z" fill="#5b5e71"/></g></g></g></g><g><g><g><path d="m35.3398933 16.1143532c.2323341.1458473.4186058.496645.4178658.780798l-.002636 1.0095978-13.2126064-8.2941905.0026321-1.0095987c.000742-.284153.1882133-.4003344.4205456-.254488z" fill="#30596d"/></g><g><path d="m28.6206131 22.3126659-.0013008.4984646-5.3234291-3.3417721.0013008-.4984664z" fill="#bac1ce"/></g><g><path d="m35.7588501 17.9082222-.0316238 11.3449497-13.2108384-8.2912655.0237065-11.3537693z" fill="#e4e8f4"/></g><g><path d="m34.8082848 18.2204628c.095974.0602493.1664238.1991177.1661301.3127785l-.0085068 3.2626228c-.0002975.1133175-.0712395.1637707-.1672173.1035213l-2.6112175-1.6391869c-.0909042-.057066-.1664238-.1994591-.1661263-.3127785l.0085068-3.2626209c.0002937-.1136627.0763054-.1605892.1672134-.1035233z" fill="#576cfb"/></g><g><path d="m31.2856445 22.7216568-.0013008.4984646-7.9851703-5.0126763.0013008-.4984645z" fill="#bac1ce"/></g><g enable-background="new"><g><path d="m31.2889347 21.4594021-.0013008.4988079-7.9851704-5.0126762.0013008-.498808z" fill="#bac1ce"/></g><g><path d="m31.2989712 17.6103287-.0012989.4984665-7.9851704-5.0126763.0012989-.4984655z" fill="#bac1ce"/></g><g><path d="m31.3022614 16.348074-.001299.4988079-7.9851703-5.0126753.0013008-.4988079z" fill="#bac1ce"/></g></g><g><path d="m31.295681 18.872242-.0013008.4984646-7.9851685-5.0126753.0012989-.4984656z" fill="#bac1ce"/></g><g><path d="m34.7949562 23.331789c.0959778.0602493.1664276.1991177.1661301.3127785l-.0085068 3.2626228c-.0002975.1133175-.0712395.1637707-.1672134.1035213l-2.6112213-1.6391869c-.0909042-.057066-.1664238-.1994591-.1661263-.3127785l.0085068-3.2626209c.0002975-.1136608.0763092-.1605892.1672134-.1035233z" fill="#ed435c"/></g></g><g><g><path d="m23.6648159 9.2182331c.1533737.0962801.2788124.3325567.2783127.524085-.0004997.1916628-.1267586.2699366-.2801323.1736574-.1533718-.0962791-.2788048-.332552-.2783051-.5242147.0004998-.1915292.1267529-.2698068.2801247-.1735277z" fill="#75ca75"/></g><g><path d="m24.4533157 9.713212c.1533718.0962791.2788048.332552.2783051.5240812-.0004997.1916618-.1267529.2699394-.2801247.1736603-.1553402-.0975142-.2788124-.3325558-.2783127-.5242176.0004998-.1915293.1247921-.271038.2801323-.1735239z" fill="#f9bb4a"/></g><g><path d="m25.2398472 10.2069559c.1553383.0975142.2788048.332552.2783051.5240812-.0004997.1916618-.1247864.2711744-.2801247.1736603-.1533794-.096283-.2788124-.3325558-.2783127-.5242186.0004997-.1915283.1267528-.2698068.2801323-.1735229z" fill="#ed435c"/></g></g></g><g><g><path d="m42.8560982 20.690424-.0101204 4.1466255v.2977848c0 .099081-.0710068.1432381-.1470909.0936966l-5.4822083-3.440937c-.0862045-.0551949-.141983-.1763554-.141983-.270052l.0050774-1.6763134.005043-2.7737503c0-.1101208.0558128-.1432381.1470947-.0880432l5.4822044 3.4406681c.0760537.044157.1419831.1599312.1419831.2703209z" fill="#e4e8f4"/></g><g><path d="m43.8146057 20.3926411-.0101547 4.4444084c0 .1322002-.0456238.2258968-.1166306.270052l-.7150574.4520607c.0709763-.0438862.1166306-.1378517.1166306-.270052l.0101547-4.4444084c0-.2703209-.1724434-.5955677-.3854332-.727766l-5.4822044-3.4463234c-.1115875-.0662327-.2129936-.071888-.2840004-.0277309l.7150574-.4464073c.0710068-.0498104.1724434-.0441551.2839966.0274639l5.4822083 3.4406681c.2130202.1324672.3854331.457714.3854331.7280349z" fill="#ebc5b2"/></g><g><path d="m42.7123947 20.11446c.2136993.1341496.3879585.4622803.3872604.7293854l-.0115891 4.445734c-.0006981.267107-.1760979.3757401-.3897972.2415905l-5.4818192-3.4412022c-.2104721-.132122-.3944626-.466362-.3937645-.733469l.0115929-4.445734c.0006943-.2671051.1858253-.3696308.3962975-.2375088zm.1328316 5.0226784.0115891-4.445734c.0002861-.1092987-.0675087-.2248459-.1452141-.2736263l-5.4818192-3.4412022c-.0874367-.0548878-.1426582-.0165653-.1429443.0927353l-.0115891 4.445734c-.0002556.0972309.054554.2167149.1419945.2716026l5.4818192 3.4412022c.0777053.0487804.1459083.0065193.1461639-.0907116" fill="#ddaf9b"/></g><path d="m42.8516731 24.8370495v.2977848c0 .099081-.0710068.1432381-.1470909.0936966l-5.4822083-3.440937c-.0862045-.0551949-.141983-.1763554-.141983-.270052l.0050774-1.6763134c.1166306-.0826569.2434196-.1545448.3397751-.2261639.248497-.1930485.5020676-.3858261.7556381-.5734901.2434196-.170969.5426445-.3529778.8012924-.2205105.1977921.099081.2890739.3362865.3702049.5514126.1774864.4741383.3499298.9482765.5223694 1.4226837.1014061.270052.2586174.584528.5223427.584528.1267853 0 .2484932-.0772724.3702049-.0441551.1217384.0331173.1977921.1542759.2637215.270052.6085777 1.0807456 1.2120781 2.1561049 1.8206558 3.2314643z" fill="#37617b"/><g><g enable-background="new"><g><path d="m40.5323448 19.4348907c.255497.160387.4602127.5460262.4593773.8652172-.0008316.319191-.2069016.453083-.4623985.292696-.2554779-.1603756-.4651871-.555275-.4643555-.8744659.0008316-.3191891.2118988-.4438248.4673767-.2834473z" fill="#efac41"/></g></g></g></g><g><g><g enable-background="new"><g><path d="m17.4154644 10.7712917.5564957-.3516302-1.0574818 1.4685116-.5564957.3516302z" fill="#e5a03c"/></g><g><g><path d="m19.6787224 7.3553147-.0105057 3.4569516c0 .1886368-.0631638.3202639-.1631794.3834229l-.5917168.3531065c.0947456-.063158.1969242-.192975.1969242-.3818913l.0105057-3.4625411c0-.3834224-.2473869-.8414617-.552702-1.0359674l-4.3848372-2.7529855c-.1526413-.0913844-.2895079-.1031218-.3895226-.0399632l.5527345-.3549172c.0999832-.0628791.2421188-.0514212.3947926.0458317l4.3848047 2.7529857c.305315.1886368.552702.652545.552702 1.0359673z" fill="#fed57a"/></g></g><g><g><path d="m18.5673923 6.6492343c.3058357.191987.5537415.6547408.5527458 1.0367737l-.0090218 3.4599376c-.0009956.3820324-.2505016.5325365-.5563354.3405495l-1.1393166-.7152033-1.0574818 1.4685116-1.0463915-2.7892151-1.1393156-.7152033c-.3058348-.191987-.5503683-.6526232-.5493727-1.034656l.0090218-3.4599376c.0009956-.3820329.2471285-.5346539.5529633-.3426669z" fill="#f9bb4a"/></g></g></g></g><g><g><path d="m14.897213 6.2115431c.3056078.1918445.5471783.6536493.5462008 1.0286613-.0009956.3817978-.2441635.5325127-.5497704.3406682-.3003368-.1885357-.5419254-.6435547-.5409298-1.025353.0009775-.3750119.2441625-.5325122.5444994-.3439765z" fill="#fff"/></g><g><path d="m16.5200863 7.2302985c.3003368.1885357.5471592.6536384.5461826 1.0286498-.0009956.3817987-.2494164.5292158-.5497532.3406792-.3056068-.191844-.5471954-.646863-.5461998-1.0286608.0009775-.3750119.2441635-.5325126.5497704-.3406682z" fill="#fff"/></g><g><path d="m18.1376877 8.2457457c.3003368.1885357.5471611.6536379.5461826 1.0286503-.0009956.3817978-.2494164.5292149-.5497532.3406792-.3003368-.1885366-.5471954-.6468639-.5461998-1.0286617.0009785-.3750125.2494335-.5292035.5497704-.3406678z" fill="#fff"/></g></g></g><g><g><path d="m15.2902184 22.4183998c1.2059345.7570229 1.2123222 1.984169.0141754 2.7412357-1.1980677.7570171-3.1465368.7570038-4.3524723-.0000191s-1.2123222-1.984169-.0142546-2.7411861c1.1981468-.7570667 3.146616-.7570553 4.3525515-.0000305z" fill="#363a44"/></g><g><g enable-background="new"><g><path d="m15.8071041 21.6267014-.0052195 2.0014591c-.0011415.4381733-.2660351.8756924-.7952223 1.2100658-1.0651522.6730328-2.7974558.6730213-3.8696032-.0000153-.5395288-.3386898-.8089924-.7832203-.8078346-1.2270679l.0052147-2.0014534c-.0011539.4438438.2683096.8883743.8078384 1.2270641 1.0721474.6730385 2.804451.673048 3.8696032.0000153.5291873-.3343735.7940808-.7718925.7952233-1.2100677z" fill="#ed435c"/></g><g><path d="m14.9992781 20.3996506c1.0721464.6730385 1.0778265 1.7640419.0126028 2.4371185-1.0651522.6730328-2.7974558.6730232-3.8696032-.0000153s-1.0778255-1.7640438-.0126734-2.4370766c1.0652228-.6730766 2.7975264-.6730651 3.8696738-.0000266z" fill="#f25574"/></g><g><path d="m13.8611889 20.6455994c.0155001.0097313.0263662.0228443.0291338.0385818l.2681456 1.619503c.0060329.0399666-.046916.0734234-.1104555.0697937l-2.5711203-.1643353c-.0253172-.0017357-.0465546-.0086174-.0622625-.0184784-.0372772-.0234013-.0435963-.0634689-.0006371-.0906124l2.3017874-1.4544182c.0431461-.0272635.1078844-.02359.1454086-.0000342z" fill="#fff"/></g></g></g></g><g><g enable-background="new"><g><path d="m48.9969215 31.2919178-.0174446 5.9877415c0 .0899773-.0305023.1561279-.0784187.1894379l-.614296.3883553c.0479202-.0330734.0784187-.0994568.0784187-.1894341l.0174179-5.9877434z" fill="#6eba6e"/></g><g><path d="m41.1245689 27.1262226.6141282-.3880463 7.2573356 4.5557805-.6141281.3880462z" fill="#e4e8f4"/></g><g><path d="m48.3819046 31.682003-.0156021 5.9845619c-.0004921.1876068-.1204987.2620354-.2706985.1677513l-6.7149124-4.2152748c-.1502151-.0942993-.2722168-.3206482-.2717285-.508255l.0156059-5.9845638z" fill="#9ad898"/></g><g><g><path d="m43.7764931 30.2235432-.00914 3.5064563-.6497536-.4078788.0074501-2.8564263-.5595131-.3512325.0016937-.650032z" fill="#fff"/></g><g><path d="m46.5026245 33.9412575c.3430557.8981781-.0632477 1.5263596-1.0809822.8874817-.6018562-.3778152-1.178318-1.0656624-1.1763649-1.8151817.0004807-.184124.0369987-.3231583.1095505-.420578.0755692-.0918465.1811485-.1385078.3167419-.1399879-.105072-.148674-.1830139-.2993088-.2398605-.4554901-.291687-.8014984.0821724-1.3713074.9993896-.7955265.5531349.347229 1.085125.9880085 1.0833054 1.6850758-.0007019.2698631-.0849495.4775009-.3297691.5157661.1381454.1733206.2431373.3521651.3179893.5384406zm-.6940307.3961677c.0964966-.0297012.1449471-.1234512.1453514-.277607.0014076-.5399513-.6478996-1.025425-.9105148-.9367409-.2378883.0809097-.2198906.7352676.3797607 1.1116982.1624374.1019707.2919235.1344338.3854027.1026497m-.6952057-2.6196727c-.0784111.0298138-.1177979.1141567-.1181526.2495403-.0003548.1353951.0354691.2632599.1134796.3873863.0780106.1243401.1831856.231823.3185539.3167992.2324638.1459312.4395332.1405945.4403076-.1565742.0007858-.3013268-.1981468-.5649147-.4380341-.7155037-.1323585-.083088-.2377357-.1114579-.3161544-.0816479" fill="#fff"/></g></g></g><g enable-background="new"><g><path d="m48.9969215 30.3775768v.914341l-.6143227.3883572v-.9141102c.0043602-.4216652-.2657547-.9284496-.6012383-1.137085l-6.0472069-3.7991524c-.1698914-.1040859-.3223953-.1135712-.4313164-.0474167l.6143227-.3835011c.1089172-.0712414.2613945-.0615273.4313164.0425587l6.0472069 3.7991543c.3354531.2084027.6055985.7154198.6012383 1.1368542z" fill="#474b59"/></g><g><path d="m47.7826538 29.6280079c.3338013.2095451.6027412.7158585.6016426 1.1365128l-.0023918.9174824-7.2573357-4.5557804.0023918-.9174824c.0010948-.4206543.2717896-.5882149.6083679-.3769302z" fill="#5b5e71"/></g></g></g></g></g></g></svg>