<svg id="Layer_1" enable-background="new 0 0 50 50" height="512" viewBox="0 0 50 50" width="512" xmlns="http://www.w3.org/2000/svg"><g><g><g fill="#e4e8f4"><path d="m30.1550007 42.1894226v.6601563c0 .1499023-.1099854.2998047-.2999878.4101563l-9.5899658 5.5698242c-.3800049.2299805-1.0100098.2299805-1.4100342 0l-16.7399907-9.6699219c-.2000121-.1103516-.2899779-.2602539-.2899779-.4101563v-.6499023c0-.1499023.0999756-.300293.2899779-.4101563l5.9400029-3.449707-.8300176-.2299805c-.0700073-.0200195-.1300049-.0400391-.1799927-.0703125-.1699829-.1000977-.2299805-.2597656-.1199951-.3901367l1.1900029-1.5097656-2.1799932 1.2700195c-.2399902.1401367-.6199951.1401367-.8599854 0l-1.9899902-1.1499023c-.2300415-.1298828-.2300415-.3603516 0-.4902344l9.9499512-5.7900391c.2400513-.1298828.6199951-.1298828.8600464 0l.0599976.0400391h.1399536l.3000488-.0498047 1.9400024-.8100586c.2399902-.1098633.5699463-.0898438.7799683.0297852.0200195.0102539.0499878.0302734.0700073.0400391l8.3499756 6.6201172c.1900024.1499023.1300049.3701172-.1399536.4799805l-2.2600098.9599609c-.2399902.1098633-.5800171.090332-.7900391-.0297852-.0199585-.0200195-.039978-.0302734-.0599976-.0498047l-2.2099609-1.75 1.1199951 2.2695313c.0899658.1904297-.0900269.3803711-.4199829.4404297l-2.6900024.4399414c-.210022.0297852-.4400024 0-.5900269-.090332-.0700073-.0400391-.1300049-.0996094-.1599731-.159668l-1.0500488-2.1401367-.2199707 1.7001953 13.789978 7.9697266c.3400269.1899414.3800049.5.1300049.7202148.1099859-.0903321.1699835-.2001954.1699835-.3203126z"/><path d="m48.1750183 17.5595398-.0499878 18.4799805v2.2001953c0 .4199219-.1599731.7099609-.3900146.8496094l-1.8200073 1.0600586c-.25.1499023-.5899658.1401367-.9599609-.0795898l-9.3099977-5.3803712.4599609 1.3999023c.0400391.1303711.0599976.2802734.0599976.4404297 0 .9076653-.6323776 1.9346771-1.3699951 2.3696289l-3.5999737 2.0800781c-.0900269.050293-.1799927.050293-.2399902.0102539l-6.7300415-3.9003905c-.0599976-.0400391-.0899658-.1098633-.0899658-.2099609 0-.2099609.1400146-.4599609.3200073-.5595703l3.5999756-2.0800781c.210022-.1201172.3900146-.3203125.5200195-.550293s.2099609-.4897461.2099609-.699707c0-.090332-.0099487-.1699219-.039978-.2402344l-.3200073-.9599609-.5100098-1.5600586-8.0599976-4.6499023c-.7399902-.4301758-1.3299561-1.4501953-1.3299561-2.2998047l.0099487-2.2001953.0500488-18.4697266c0-.25.0999756-.4301758.25-.5l1.8099976-1.0605468c.1300049-.0795898.3200073-.0698242.5299683.050293l26.2600079 15.1601563c.4099732.2499997.7500001.8295896.7399903 1.2998044z"/><path d="m37.0950012 45.0492859-.0199585.050293c-.0100098.0297852-.0100098.0498047-.0200195.0800781l-.5999756 1.9799805c-.0500488.1796875-.1799927.3398438-.4000244.4599609-.4000244.2197266-1 .2299805-1.4000244 0-.2199707-.1201172-.3599854-.2900391-.3999634-.4702148l-.6000366-1.9897461c0-.0102539 0-.0200195-.0099487-.0302734l-.0100098-.0400391h.0100097c-.0700073-.2998047.0799561-.6196289.4799805-.8496094.6799927-.3901367 1.7799683-.3901367 2.460022 0 .3800049.2197266.5499878.5200195.5.8095703z"/><path d="m34.5150452 43.0492859-9.7700176 5.6503906c-.0900269.0498047-.210022.0498047-.3499756-.0302734-.0700073-.0400391-.1300049-.0996094-.1900024-.159668l-.5599976.3295899c-.1100464.0703125-.2600098.0302734-.3300171-.0898438-.0599976-.1098633-.0300293-.2597656.0899658-.3300781l.5600586-.3300781c-.0200195-.0795898-.0300293-.1499023-.0300293-.2294922 0-.1503906.0499878-.25.1400146-.300293l9.7699566-5.6601563h.0300293c.5700073-.2597656 1.8499756-.6298828 1.8099976-.1796875-.0300293.4399415-.8499756 1.1796875-1.1699829 1.3295899z"/></g><g><g><g><g><g><path d="m15.8848028 27.525547-9.9519157 5.784462c-.2344389.1387711-.617198.1387711-.8564262 0l-1.9903657-1.1482468c-.2344682-.1338654-.2344682-.3588448 0-.4927082l9.9518871-5.7846966c.2392282-.1385384.6219873-.1385384.8564262-.004673l1.9903946 1.1482487c.239228.1387711.239228.363514-.0000003.4976139z" fill="#cad0dd"/></g><g><g enable-background="new"><g><path d="m12.4587374 29.1653404-2.118455 1.2311116-2.2788629-1.3157025 2.1184549-1.2311115z" fill="#4562ef"/></g><g><path d="m14.8836155 27.756155-2.121418 1.2328339-2.278863-1.3157025 2.121419-1.2328338z" fill="#3c5dd6"/></g></g><g><path d="m10.0336943 30.5746212-2.1182905 1.2310162-2.2788624-1.3157025 2.1182904-1.2310161z" fill="#4562ef"/></g><g><path d="m7.6088157 31.9838066-2.11829 1.2310143-2.2788627-1.3157006 2.1182902-1.2310161z" fill="#748bfd"/></g></g></g><g><g><path d="m16.4398003 27.0900764-5.865881 7.4352303c-.1387415.1724129-.4975834.248806-.8038025.1675072l-2.5453916-.6793709c-.0669909-.0191574-.1291637-.0432205-.1770267-.0717239-.1770263-.1004562-.2344389-.2583847-.1244035-.3924828l5.8706694-7.4303246c.1339817-.1721783.4928236-.253479.7990141-.1721783l2.545392.6793709c.0669899.0191574.1291924.0429859.1770248.071722.1770268.1004563.2344399.2583848.124405.3922501z" fill="#d4dae8"/></g><g><path d="m11.3461962 32.9374428-1.2486239 1.5820427-2.9182219-.7778168 1.2486233-1.5820427z" fill="#4c7891"/></g><g><path d="m15.6394043 27.5087337-1.2548075 1.5820981-2.9182224-.7778149 1.2486229-1.5820446z" fill="#30596d"/></g><g><path d="m14.2063313 29.3182907-1.2486229 1.5820446-2.9183979-.7777271 1.2486238-1.5820427z" fill="#37617b"/></g><g><path d="m12.7792788 31.1278896-1.2515974 1.5837612-2.921443-.7794857 1.2548074-1.5820961z" fill="#416e84"/></g></g><g><g><path d="m17.023531 26.4107056-1.0573988 8.152916c-.0239172.1962395-.3157978.3396835-.6459045.3254318l-2.794198-.1291924c-.1531096-.0049057-.2870617-.042984-.3827591-.1004562-.124403-.0670471-.1913939-.1675072-.1770267-.2728691l1.0573702-8.1575871c.0239458-.1913357.3157978-.3350124.6507225-.3254356l2.7893801.1291943c.1531086.0095768.2870903.0478916.3827591.1004562.1196134.0719547.1913946.1724128.1770552.2775421z" fill="#cad0dd"/></g><g><path d="m16.0026913 30.9360275-.2246113 1.7371979-3.1978932-.1446152.2246113-1.7371998z" fill="#f9bb4a"/></g><g><path d="m15.7459564 32.9219208-.2247762 1.737297-3.1978941-.1446151.2247762-1.7372971z" fill="#fed57a"/></g><g><path d="m16.5192814 26.9624119-.2246113 1.7371998-3.1980581-.1445198.2247762-1.7372952z" fill="#e5a03c"/></g><g><path d="m16.2625561 28.9483128-.2247753 1.737297-3.2008582-.1428928.2246113-1.7372017z" fill="#efac41"/></g></g><g><g><path d="m20.7794018 34.0660057-2.6937103.4401436c-.215313.0383148-.4401722 0-.5884933-.0908775-.0717793-.0383148-.1291924-.0908775-.1578979-.1530228l-3.8850641-7.8707008c-.0909071-.18643.0909081-.3779984.416255-.430563l2.6937122-.4450493c.2153111-.0334072.4401703.0049057.5932808.0911121.0717793.0429859.124403.0955505.1531086.1530228l3.8850651 7.8704681c.090906.1866608-.0909082.3829041-.4162561.4354668z" fill="#d4dae8"/></g><g><path d="m18.1185551 28.2971668.8283901 1.6773319-3.0876398.5061722-.8283901-1.6773319z" fill="#6eba6e"/></g><g><path d="m19.0640221 30.2143421.8285656 1.6772423-3.0876389.5061703-.8285646-1.6772404z" fill="#75ca75"/></g><g><path d="m17.1729107 26.3800812.82551 1.675478-3.0845938.5079307-.8285551-1.6772365z" fill="#65aa65"/></g><g><path d="m20.0096664 32.1314278.8285542 1.6772346-3.0878048.5062676-.8283882-1.6773301z" fill="#9ad898"/></g></g><g><g><path d="m25.3965187 32.2334824-2.2631187.956913c-.2392292.1053619-.5741539.0862045-.7846756-.0334091-.0191288-.0142517-.043045-.0287361-.0621738-.042984l-8.3442793-6.6124172c-.1961832-.1576958-.1387711-.3780003.1339521-.4927082l2.2583294-.95224c.243988-.1051292.5741253-.0859737.784647.0336418.0191574.0142498.0430737.0285015.0622005.0429859l8.3490696 6.6121826c.1961842.1579284.1339817.3733272-.1339512.4880352z" fill="#e4e8f4"/></g><g><path d="m23.5158863 30.5775642 1.7799664 1.4074498-2.591034 1.0952282-1.7770023-1.4091721z" fill="#f76d8e"/></g><g enable-background="new"><g><path d="m17.420351 25.743269 1.7768383 1.4092674-2.5879039 1.0934086-1.7801323-1.4073544z" fill="#e63044"/></g><g><path d="m19.4512024 27.3552704 1.7768478 1.4092731-2.5879059 1.0934105-1.7770023-1.409172z" fill="#ed435c"/></g></g><g><path d="m21.4850254 28.9655571 1.7770042 1.4091721-2.5880699 1.0935039-1.7770042-1.409172z" fill="#f25574"/></g></g></g><g><g><g enable-background="new"><g><path d="m30.1519489 42.1937675v.6594505c0 .144928-.1045227.2977142-.2976151.4100456l-9.5881844 5.5666313c-.3860855.2250519-1.013525.2329102-1.4076633 0l-16.7471761-9.6686515c-.193043-.1127205-.2895646-.2576523-.2895646-.4104347v-.6515961c0 .144928.0965216.2977142.2976162.4104385l16.7391243 9.6686516c.3941383.2250519 1.0215778.2250519 1.4157143 0l9.5881844-5.5744896c.193043-.1127242.2895643-.2572593.2895643-.4100456z" fill="#474b59"/></g><g><path d="m29.8542786 41.7855415c.3954487.2283096.3923244.5930557.0045013.8184319l-9.5870304 5.571373c-.3878231.2253799-1.0175037.2283821-1.4129524.0000687l-16.7423308-9.6661912c-.390311-.2253456-.3923199-.5930519-.0044982-.8184319l9.5870323-5.571373c.3878212-.2253761 1.0226364-.2254143 1.4129467-.0000687z" fill="#5b5e71"/></g></g></g><g><g><path d="m29.5763378 42.7718468-.112112.0651512-3.1481743-1.8175964-13.8714876-8.008709.1121111-.0651512z" fill="#474b59"/></g><g enable-background="new"><g><path d="m27.2685547 42.8992462-1.0579567-.6108093-.0006199-.0888825.2807007-.163124.1484413.0029754 1.0579567.6108093.0004845.0830117-.2807007.1631241z" fill="#5b5e71"/></g><g><path d="m27.4168606 42.8963509.2807007-.1631241-.0004845-.0830116-1.0579567-.6108093-.1484413-.0029755-.2807007.1631241.0006199.0888824 1.0579567.6108093z" fill="#525566"/><path d="m27.749239 42.7700958-.2761726.1579857c-.0690594.0394936-.1874275.0394936-.256485 0l-1.0555019-.6117134c-.0690594-.0394936-.0690594-.1083717 0-.1478691l.2762337-.1579857c.0690575-.0394936.1874256-.0491295.256485 0l1.0554409.6117134c.0789317.0394936.0690573.1083717-.0000001.1478691z" fill="#474b59"/></g><g><path d="m26.5491142 43.3173409-1.0579567-.6108132.0046349-.0919304.2804108-.16296.1484432.0029754 1.0579548.6108094.0004844.0830116-.2804107.1629562z" fill="#5b5e71"/></g><g><path d="m26.7026749 43.3113899.2804108-.1629562-.0004845-.0830116-1.0579548-.6108093-.1484432-.0029755-.2804108.1629601-.0046349.0919304 1.0579567.6108131z" fill="#525566"/><path d="m27.0390282 43.1843262-.2762337.1579819c-.0788708.0394974-.1972389.0394974-.2662983 0l-1.0555019-.601593c-.0690575-.049614-.0690575-.1184883 0-.1579857l.286047-.157505c.0690594-.0394936.1775532-.0496101.256485 0l1.0555019.6112289c.0690593.0394973.0690593.1083755 0 .1478729z" fill="#474b59"/></g><g><path d="m25.8346386 43.7325478-1.0579548-.6108132-.000349-.089035.2754287-.1600609.1534424.0000649 1.0579548.6108131-.0045147.0859146-.2754288.1600609z" fill="#5b5e71"/></g><g><path d="m26.319355 43.4508591c.0718975.0415115.0672131.1096802-.0042152.1511879l-.2754288.1600609c-.0714111.0415001-.1840992.0415421-.2559948.0000305l-1.0579567-.6108093c-.0718784-.0415001-.0721951-.106781-.0007839-.1482811l.2754288-.1600647c.0714302-.0415077.1891155-.0444336.2609959-.0029335z" fill="#474b59"/></g><g><path d="m24.1782112 44.0823593c.2978725.171978.2942581.453701-.0016594.6256714-.2959175.1719666-.7770138.1719246-1.0748844-.0000496-.2978725-.171978-.3046551-.4536133-.0087376-.6255798.2959176-.1719704.7874108-.1720162 1.0852814-.000042z" fill="#5b5e71"/></g><g><path d="m24.5171375 44.9833603c-.4833469.2759933-1.2626762.2759933-1.7460232 0-.4833488-.276474-.4932232-.7302017-.0098743-1.0163078.483408-.2759933 1.2626762-.2658768 1.7460232.0101166.4833488.2759895.4833488.7297172.0098743 1.0061912z" fill="#474b59"/></g><g><path d="m21.3784676 45.0965614 1.0579547.6108132-.0044975.0859031-.2754288.1600609-.1485786.0030556-1.0579548-.6108131-.000349-.0890351.2754287-.1600609z" fill="#5b5e71"/></g><g><path d="m22.4926167 45.6747169c.0718975.0415115.0672131.1096764-.0041981.1511765l-.2754288.1600647c-.0714283.0415077-.1841164.0415497-.256012.0000381l-1.0579567-.6108093c-.0718784-.0415001-.0721951-.1067848-.0007668-.1482925l.2754288-.1600609c.071413-.0415001.1890984-.044426.2609787-.0029259z" fill="#474b59"/></g><g><path d="m12.556675 32.9455414-.1121111.0651512 13.8714876 8.008709-8.5005207 4.9399604-13.8714891-8.0087051-.1121113.0651512 13.8714883 8.008709-13.8714883-8.008709z" fill="#474b59"/></g><g><path d="m21.7713928 46.2423973-.2761726.1579819c-.0690575.0394974-.1874275.0394974-.256485 0l-1.0555019-.6117096c-.0789318-.0394974-.0690575-.1083717 0-.1478691l.2762337-.1579857c.0690575-.0394974.1874256-.0491295.256485 0l1.0653152.6117096c.0690574.0394974.0690574.1083755-.0098744.1478729z" fill="#474b59"/></g><g><path d="m19.9448414 45.9296951 1.0579548.6108132-.0045147.0859146-.2756996.1602173-.1483078.0028953-1.0579548-.6108093-.0006199-.0888786.2756996-.1602211z" fill="#5b5e71"/></g><g><path d="m21.0513096 46.6566238-.2761745.1579857c-.0690575.0496101-.1874256.0496101-.256485.0101166l-1.0555019-.6117134c-.0789318-.0394936-.0690575-.1088524 0-.1483498l.2761745-.1676178c.0690575-.0394974.1874256-.0394974.2663574 0l1.0555019.6117096c.0690594.0394974.0690594.1088562-.0098724.1478691z" fill="#474b59"/></g><g><path d="m20.9637032 47.7769623-.1121102.0651512-3.1481743-1.8175964-13.8714883-8.008709.1121113-.0651512 13.8714891 8.0087051z" fill="#474b59"/></g></g></g></g><g><g><g><g><g><g><g><g><g enable-background="new"><g><path d="m34.7916756 38.1552086-3.5961132 2.0757027c-.1823769.1043358-.3213863.3562698-.3213863.5649452 0 .0954285.0347805.1649857.0955372.1997643l-6.7404709-3.908802c-.0608101-.0347786-.0955887-.1043358-.0955887-.2086716 0-.208252.1390095-.460186.3213863-.5560379l3.6048069-2.08461c.2084618-.121727.3821964-.3210678.5125103-.5471306.1302624-.2345467.2171574-.4864807.2084618-.7036362 0-.0869484-.0086956-.1649895-.0347786-.2345467l-.3213863-.9640522-1.3984699-4.2650738c-.0260315-.0780411-.0260315-.1738949.0086937-.2693253.0260315-.1217251.0955372-.2345448.1910725-.3125839.0347786-.0347805.0695038-.0606518.0955887-.0780411.0955353-.0521679.1736813-.0610752.2344913-.0173893l6.6971016 3.8914127c-.0608101-.0089054-.1216202 0-.1824303.0347805-.0434189.0258713-.0694504.0517426-.104229.0780392-.0781479.0780411-.1476517.1908607-.1823769.2951965-.0434723.1043358-.0521164.2171555-.0260849.29562l1.3984718 4.2298698.3300781.9992561c.1545181.4120409-.2026024 1.209366-.6948852 1.4853136z" fill="#cad0dd"/></g><g><path d="m35.1564827 35.670639-6.7318287-3.8825054-1.3984699-4.2650738c-.0260315-.0780411-.0260315-.1738949.0086937-.2693253l6.749218 3.8914146c-.0434723.1043358-.0521164.2171555-.0260849.29562z" fill="#bac1ce"/></g><g><path d="m34.0650177 30.7771282c.1363373-.0787144.2642174-.0503597.3069153.0816193l1.7296181 5.2271748c.0440445.1319313.064846.280365.0653.440731.0024338.8587685-.6028175 1.9270744-1.3703575 2.3702126l-3.6012917 2.0792084c-.1773014.1023636-.3231087.0192032-.3236847-.1844673-.0005875-.2071152.1442795-.4546471.3215828-.5570145l3.6012917-2.0792046c.4192886-.2486229.7284546-.8102722.7271919-1.2561913-.0002365-.0835342-.0121078-.1636162-.0355988-.2337265l-1.7267113-5.2288513c-.0557709-.1618214.0366402-.4258976.207962-.5850677.0323868-.030859.0653229-.0556813.0977822-.0744229z" fill="#bac1ce"/></g></g></g><g><path d="m18.5306931 21.0792885 27.7625694 16.0287285-.0062332 2.1985207c-.0024033.8477554-.6032829 1.1837349-1.3353424.7610817l-25.1005593-14.4918156c-.7320576-.4226532-1.329071-1.4502373-1.3266678-2.2979927zm13.5405578 10.6389656c.4547501.2625484.8275452.0501041.8290443-.4788914.0014839-.5224018-.3688927-1.1639156-.8236427-1.426466-.4603157-.2657642-.833086-.0533047-.834568.4690971-.0014992.5289956.3688507 1.1704961.8291664 1.4362603" fill="#d4dae8"/></g><g><path d="m32.0766602 29.8128872c.4547577.2625561.8251228.904068.8236427 1.4264774-.001503.5289764-.3742867.7414341-.8290443.478878-.4603081-.2657585-.8306713-.9072723-.8291702-1.4362488.00148-.5224075.3742637-.7348651.8345718-.4691066z" fill="#cad0dd"/></g><g><path d="m48.1263924 36.0399284v2.2000427c0 .4206238-.1564217.7142487-.3910828.8507957l-1.8382606 1.0656472c.2444458-.1365471.3910828-.430172.3910828-.8503189l.0097847-2.2000427z" fill="#bac1ce"/></g><g><path d="m48.1780891 17.5645294-.0521126 18.4756279-1.8327827 1.0683899.0521164-18.4756298c0-.4775715-.3387756-1.0594826-.7556992-1.3029327l-26.249813-15.1572168c-.2084599-.121726-.3995323-.1306329-.5385418-.0521684l1.8414764-1.0683893c.1303139-.0780403.3213863-.0695577.5298481.0521683l26.2585068 15.1572161c.4169235.2434522.7556992.8253614.7470016 1.3029348z" fill="#525566"/></g><g><path d="m45.5938606 17.3316994c.4159355.2401428.7531319.8240738.7517738 1.3022137l-.052372 18.4741039-27.7625693-16.0287285.0523739-18.474102c.0013561-.4781396.3407516-.6714412.756691-.4312987zm-.3008003 2.2576561.0030708-1.0827847-25.6995334-14.8376326-.0475864 16.7855186 25.6995316 3.9829674" fill="#474b59"/></g><g><path d="m19.5926399 3.6647902-.0439319 16.7866582 25.7398967 14.921774.0109825-16.8632699z" fill="#e4e8f4"/></g></g></g></g></g></g></g></g><g><g><path d="m33.6363297 45.0892601.6194382 2.0625191c.0400124.1813393.1778984.349987.397583.4704514.4055672.2224274 1.002964.2215652 1.4045525 0 .2163773-.1193886.3520851-.2850227.3921242-.4633522l.6429672-2.1098671z" fill="#525566"/><path d="m36.5852013 44.2415009c.6834984.394619.6871834 1.0311508.0081177 1.4257813-.6763344.3930435-1.7781334.3946648-2.4616356.0000458-.6806908-.3929977-.6843071-1.0328331-.0079727-1.4258728.6790656-.3946306 1.780796-.3929521 2.4614906.0000457z" fill="#5b5e71"/><path d="m36.2660103 44.4271507c.5055046.2918549.5082283.7626228.0060043 1.0544815-.500206.2906876-1.3150749.2918892-1.8205795.0000343-.5034256-.2906532-.5060997-.7638626-.0058975-1.0545502.5022239-.2918586 1.3170433-.2906188 1.8204727.0000344z" fill="#474b59"/></g></g><g><g><path d="m34.5057068 43.0544434c.3019791-.1340942 1.1481018-.8854446 1.1833801-1.333313.0361633-.4590874-1.2963676-.064537-1.8445816.1869965s.6612015 1.1463165.6612015 1.1463165z" fill="#363a44"/><g><g><g enable-background="new"><g><path d="m24.070282 47.5635605c.0777817-.0471077.2022896-.0471077.3267021.0303879.2645893.1557541.4823589.513607.4823589.8099174 0 .1549911-.0622063.2484436-.1399879.2955513l9.7760334-5.6482048c.0933571-.0623016.1400833-.1557541.1400833-.2955513 0-.2955513-.217865-.6693573-.4667854-.8091545-.1400833-.0774956-.2490158-.0934525-.3423691-.0471077z" fill="#5b5e71"/></g><g><path d="m24.4018288 47.5963135c.2583084.1491356.4761887.5150032.4753475.8116646-.0008411.2966652-.2200794.4101601-.4783897.2610283-.2582741-.1491165-.4662495-.5092659-.4654083-.8059273s.2101745-.4158783.4684505-.2667656z" fill="#474b59"/></g></g></g><g><path d="m23.3189564 48.753994c.0682106.1149902.2117958.150753.3302708.0825615l.7969589-.4738083c.0035934 0 .0035934-.0036812.0071869-.0036812.03232-.0143738.0538597-.0538139.0538597-.1076279 0-.1078072-.0789909-.2405014-.1723347-.2943153-.0564537-.0394859-.125639-.0108681-.125639-.0108681l-.8041458.4774933c-.1184749.0681877-.1543655.21175-.0861568.330246z" fill="#363a44"/></g></g></g></g></g><g><g><path d="m37.3440819 14.99967-.0011063.3898459-1.8162384-1.0486059.0011063-.3898468z" fill="#75ca75"/></g><g><path d="m39.7484932 16.3878593-.0011025.3898449-1.8162422-1.0486059.0011063-.3898458z" fill="#e63044"/></g><g><path d="m42.1529083 17.7760468-.0011062.3898468-1.8162346-1.048605.0011024-.3898468z" fill="#4562ef"/></g><g><path d="m44.5573235 19.1642361-.0011063.3898468-1.8162384-1.048605.0011063-.3898468z" fill="#e5a03c"/></g></g><g><path d="m19.5926399 6.6068773-.0439319 7.276866 25.7398967 14.921772.0109825-7.3534756z" fill="#30596d"/></g><g><g><path d="m26.1554108 11.6587858c1.214922.7014351 2.1943779 2.3977423 2.1904202 3.793807-.0039463 1.3920555-.9898167 1.957922-2.2047367 1.2564869-1.2113495-.6993732-2.1943684-2.4019775-2.1904221-3.7940321.0039577-1.3960647.9933891-1.9556341 2.2047386-1.2562618z" fill="#6eba6e"/></g><g><path d="m32.2550316 15.1804047c1.21492.7014351 2.1979523 2.3998051 2.1939926 3.7958698-.0039444 1.3920555-.9933891 1.9558582-2.2083092 1.2544231-1.2113495-.6993732-2.1943645-2.4019756-2.1904182-3.7940292.0039577-1.3960657.9933872-1.955637 2.2047348-1.2562637z" fill="#f9bb4a"/></g><g><path d="m38.3582268 18.7040863c1.2113495.6993713 2.1943779 2.3977432 2.1904221 3.793808-.0039482 1.3920536-.9933929 1.9558563-2.2047386 1.256485-1.2149239-.701437-2.1943665-2.4019775-2.1904221-3.7940311.0039596-1.3960648.9898147-1.9576989 2.2047386-1.2562619z" fill="#e63044"/></g></g><g><g><g><path d="m26.3012619 20.387146-.0015793.5571651-5.0588035-2.9207019.0015812-.5571652z" fill="#cad0dd"/></g><g><path d="m26.3048077 19.1369896-.0015793.5571651-5.0588036-2.9207019.0015793-.5571652z" fill="#cad0dd"/></g><g><path d="m25.2311859 22.2737446-.0015793.5569858-3.3534469-1.9361152.0015793-.556984z" fill="#6eba6e"/></g><g><path d="m26.297718 21.6373043-.0015792.556984-5.0588036-2.920702.0015793-.556984z" fill="#cad0dd"/></g></g><g><g><path d="m34.2565384 24.9942017-.0015793.5571651-5.0588036-2.920702.0015793-.5571632z" fill="#cad0dd"/></g><g><path d="m34.2600822 23.7440453-.0015792.5571651-5.0588036-2.920702.0015793-.5571651z" fill="#cad0dd"/></g><g><path d="m33.1864624 26.8808002-.0015793.5569859-3.3534469-1.9361153.0015792-.5569839z" fill="#f9bb4a"/></g><g><path d="m34.2529945 26.24436-.0015792.5569839-5.0588036-2.9207001.0015793-.5569858z" fill="#cad0dd"/></g></g><g><g><path d="m42.2118149 29.6012592-.0015793.5571633-5.0588036-2.9207001.0015793-.5571651z" fill="#cad0dd"/></g><g><path d="m42.2153587 28.3511009-.0015793.5571652-5.0588035-2.920702.0015793-.5571652z" fill="#cad0dd"/></g><g><path d="m41.1417389 31.4878578-.0015793.556984-3.353447-1.9361134.0015793-.5569858z" fill="#e63044"/></g><g><path d="m42.208271 30.8514156-.0015793.5569859-5.0588035-2.920702.0015793-.5569858z" fill="#cad0dd"/></g></g></g></g></g></g></svg>