<svg height="512" viewBox="0 0 50 50" width="512" xmlns="http://www.w3.org/2000/svg"><g fill="#e4e8f4"><path d="M30.155 42.19v.66c0 .15-.11.3-.3.41l-9.59 5.57c-.38.23-1.01.23-1.41 0l-16.74-9.67c-.2-.11-.29-.26-.29-.41v-.65c0-.15.1-.3.29-.41l5.94-3.45-.83-.23a.74.74 0 01-.18-.07c-.17-.1-.23-.26-.12-.39l1.19-1.51-2.18 1.27c-.24.14-.62.14-.86 0l-1.99-1.15c-.23-.13-.23-.36 0-.49l9.95-5.79c.24-.13.62-.13.86 0l.06.04h.14l.3-.05 1.94-.81c.24-.11.57-.09.78.03.02.01.05.03.07.04l8.35 6.62c.19.15.13.37-.14.48l-2.26.96c-.24.11-.58.09-.79-.03-.02-.02-.04-.03-.06-.05l-2.21-1.75 1.12 2.27c.09.19-.09.38-.42.44l-2.69.44c-.21.03-.44 0-.59-.09a.408.408 0 01-.16-.16l-1.05-2.14-.22 1.7 13.79 7.97c.34.19.38.5.13.72.11-.09.17-.2.17-.32z"/><path d="M48.175 17.56l-.05 18.48v2.2c0 .42-.16.71-.39.85l-1.82 1.06c-.25.15-.59.14-.96-.08l-9.31-5.38.46 1.4c.04.13.06.28.06.44 0 .907-.632 1.934-1.37 2.37l-3.6 2.08c-.09.05-.18.05-.24.01l-6.73-3.9c-.06-.04-.09-.11-.09-.21 0-.21.14-.46.32-.56l3.6-2.08c.21-.12.39-.32.52-.55s.21-.49.21-.7c0-.09-.01-.17-.04-.24l-.32-.96-.51-1.56-8.06-4.65c-.74-.43-1.33-1.45-1.33-2.3l.01-2.2.05-18.47c0-.25.1-.43.25-.5l1.81-1.06c.13-.08.32-.07.53.05l26.26 15.16c.41.25.75.83.74 1.3zM37.095 45.05l-.02.05c-.01.03-.01.05-.02.08l-.6 1.98c-.05.18-.18.34-.4.46-.4.22-1 .23-1.4 0-.22-.12-.36-.29-.4-.47l-.6-1.99c0-.01 0-.02-.01-.03l-.01-.04h.01c-.07-.3.08-.62.48-.85.68-.39 1.78-.39 2.46 0 .38.22.55.52.5.81zM34.515 43.05l-9.77 5.65c-.09.05-.21.05-.35-.03a.947.947 0 01-.19-.16l-.56.33c-.11.07-.26.03-.33-.09a.246.246 0 01.09-.33l.56-.33a.903.903 0 01-.03-.23c0-.15.05-.25.14-.3l9.77-5.66h.03c.57-.26 1.85-.63 1.81-.18-.03.44-.85 1.18-1.17 1.33z"/></g><path d="M15.885 27.526L5.933 33.31a.933.933 0 01-.857 0l-1.99-1.148c-.234-.134-.234-.36 0-.493l9.952-5.785a.949.949 0 01.856-.004l1.99 1.148c.24.139.24.363 0 .498z" fill="#cad0dd"/><path d="M12.459 29.165l-2.119 1.231-2.279-1.315 2.119-1.231z" fill="#4562ef"/><path d="M14.884 27.756l-2.122 1.233-2.279-1.316 2.122-1.233z" fill="#3c5dd6"/><path d="M10.034 30.575l-2.119 1.23-2.278-1.315 2.118-1.231z" fill="#4562ef"/><path d="M7.609 31.984l-2.118 1.23L3.21 31.9l2.119-1.23z" fill="#748bfd"/><g><path d="M16.44 27.09l-5.866 7.435c-.139.173-.498.25-.804.168l-2.545-.68a.768.768 0 01-.177-.071c-.177-.1-.235-.259-.125-.393l5.871-7.43c.134-.172.493-.254.799-.172l2.545.68c.067.018.13.042.177.07.177.101.235.26.125.393z" fill="#d4dae8"/><path d="M11.346 32.937l-1.248 1.582-2.919-.777 1.249-1.582z" fill="#4c7891"/><path d="M15.64 27.509l-1.255 1.582-2.919-.778 1.249-1.582z" fill="#30596d"/><path d="M14.206 29.318L12.958 30.9l-2.919-.777 1.249-1.582z" fill="#37617b"/><path d="M12.78 31.128l-1.252 1.584-2.922-.78 1.255-1.582z" fill="#416e84"/></g><g><path d="M17.024 26.41l-1.058 8.154c-.024.196-.316.34-.646.325l-2.794-.13a.805.805 0 01-.383-.1c-.124-.067-.191-.167-.177-.272l1.058-8.158c.024-.191.315-.335.65-.325l2.79.129c.153.01.287.048.382.1.12.072.192.173.178.278z" fill="#cad0dd"/><path d="M16.003 30.936l-.225 1.737-3.198-.144.225-1.738z" fill="#f9bb4a"/><path d="M15.746 32.922l-.225 1.737-3.198-.144.225-1.738z" fill="#fed57a"/><path d="M16.52 26.962l-.225 1.738-3.198-.145.224-1.737z" fill="#e5a03c"/><path d="M16.263 28.948l-.225 1.738-3.201-.143.225-1.737z" fill="#efac41"/></g><g><path d="M20.78 34.066l-2.694.44a.88.88 0 01-.589-.09.35.35 0 01-.158-.154l-3.885-7.87c-.09-.187.091-.378.416-.431l2.694-.445a.962.962 0 01.593.091.39.39 0 01.154.153l3.885 7.87c.09.187-.091.383-.417.436z" fill="#d4dae8"/><path d="M18.119 28.297l.828 1.677-3.088.507-.828-1.678z" fill="#6eba6e"/><path d="M19.064 30.214l.829 1.678-3.088.506-.829-1.677z" fill="#75ca75"/><path d="M17.173 26.38l.825 1.676-3.084.507-.829-1.677z" fill="#65aa65"/><path d="M20.01 32.131l.828 1.678-3.088.506-.828-1.677z" fill="#9ad898"/></g><g><path d="M25.397 32.233l-2.264.957a.952.952 0 01-.784-.033l-.062-.043-8.345-6.612c-.196-.158-.138-.378.134-.493l2.259-.952a.952.952 0 01.784.033l.062.043 8.35 6.612c.196.158.133.374-.134.488z" fill="#e4e8f4"/><path d="M23.516 30.578l1.78 1.407-2.591 1.095-1.777-1.409z" fill="#f76d8e"/><path d="M17.42 25.743l1.777 1.41-2.588 1.093-1.78-1.407z" fill="#e63044"/><path d="M19.451 27.355l1.777 1.41-2.588 1.093-1.777-1.41z" fill="#ed435c"/><g><path d="M21.485 28.966l1.777 1.409-2.588 1.093-1.777-1.409z" fill="#f25574"/></g></g><g><path d="M30.152 42.194v.66c0 .144-.105.297-.298.41l-9.588 5.566c-.386.225-1.013.233-1.408 0L2.111 39.16c-.193-.112-.29-.257-.29-.41v-.652c0 .145.097.298.298.41l16.74 9.67c.394.224 1.021.224 1.415 0l9.588-5.575c.193-.113.29-.257.29-.41z" fill="#474b59"/><path d="M29.854 41.786c.396.228.393.593.005.818l-9.587 5.571c-.388.226-1.018.229-1.413 0L2.116 38.51c-.39-.225-.392-.593-.004-.818l9.587-5.572c.388-.225 1.023-.225 1.413 0z" fill="#5b5e71"/><g><path d="M29.576 42.772l-.112.065-3.148-1.818-13.871-8.008.112-.065z" fill="#474b59"/><path d="M27.269 42.9l-1.058-.612-.001-.088.28-.164.15.003 1.057.611v.083l-.28.163z" fill="#5b5e71"/><path d="M27.417 42.896l.28-.163v-.083l-1.058-.61-.148-.004-.281.164v.088l1.059.611z" fill="#525566"/><path d="M27.75 42.77l-.277.158a.292.292 0 01-.256 0l-1.056-.612c-.069-.04-.069-.108 0-.148l.276-.157c.07-.04.188-.05.257 0l1.055.611c.08.04.07.109 0 .148z" fill="#474b59"/><path d="M26.55 43.317l-1.059-.61.005-.092.28-.163.149.003 1.058.61v.083l-.28.163z" fill="#5b5e71"/><path d="M26.703 43.311l.28-.163v-.083l-1.058-.61-.149-.003-.28.163-.005.092 1.058.61z" fill="#525566"/><path d="M27.039 43.184l-.276.158a.314.314 0 01-.267 0l-1.055-.601c-.07-.05-.07-.119 0-.158l.286-.158c.07-.04.178-.05.257 0l1.055.611c.07.04.07.109 0 .148z" fill="#474b59"/><path d="M25.835 43.733l-1.058-.611v-.09l.275-.16h.153l1.058.612-.004.085-.276.16z" fill="#5b5e71"/><path d="M26.32 43.45c.071.042.067.11-.005.152l-.275.16a.279.279 0 01-.256 0l-1.058-.61c-.072-.042-.072-.107-.001-.149l.275-.16a.29.29 0 01.261-.003z" fill="#474b59"/><path d="M24.178 44.082c.298.172.294.454-.001.626-.296.172-.777.172-1.075 0-.298-.172-.305-.454-.01-.626.297-.172.788-.172 1.086 0z" fill="#5b5e71"/><path d="M24.517 44.983c-.483.276-1.263.276-1.746 0-.483-.276-.493-.73-.01-1.016.484-.276 1.263-.266 1.746.01.484.276.484.73.01 1.006z" fill="#474b59"/><path d="M21.378 45.097l1.058.61-.004.086-.276.16-.148.003-1.058-.61v-.09l.275-.16z" fill="#5b5e71"/><path d="M22.493 45.675c.072.041.067.11-.005.15l-.275.161a.279.279 0 01-.256 0l-1.058-.61c-.072-.042-.072-.108 0-.15l.275-.16a.29.29 0 01.26-.002zM12.557 32.946l-.112.065 13.871 8.008-8.5 4.94-13.872-8.008-.112.065 13.871 8.009-13.871-8.01zM21.771 46.242l-.276.158a.292.292 0 01-.256 0l-1.056-.611c-.079-.04-.069-.109 0-.148l.276-.158c.07-.04.188-.05.257 0l1.065.612c.07.039.07.108-.01.147z" fill="#474b59"/><path d="M19.945 45.93l1.058.61-.005.086-.275.16-.149.004-1.058-.611v-.09l.275-.16z" fill="#5b5e71"/><g><path d="M21.051 46.657l-.276.158a.263.263 0 01-.256.01l-1.056-.612c-.079-.04-.069-.109 0-.148l.276-.168c.07-.04.188-.04.267 0l1.055.612c.07.04.07.109-.01.148z" fill="#474b59"/></g><g><path d="M20.964 47.777l-.112.065-3.149-1.817-13.871-8.01.112-.064 13.872 8.008z" fill="#474b59"/></g></g></g><g><path d="M34.792 38.155l-3.596 2.076a.71.71 0 00-.322.565c0 .095.035.165.096.2l-6.74-3.91c-.062-.034-.096-.104-.096-.208 0-.208.139-.46.321-.556l3.605-2.085c.208-.121.382-.32.512-.547.13-.234.218-.486.209-.703a.665.665 0 00-.035-.235l-.321-.964-1.399-4.265a.412.412 0 01.009-.27.56.56 0 01.191-.312.63.63 0 01.096-.078c.095-.052.173-.061.234-.017l6.697 3.891a.276.276 0 00-.182.035c-.044.026-.07.052-.105.078a.8.8 0 00-.182.295.448.448 0 00-.026.296l1.398 4.23.33.999c.155.412-.202 1.21-.694 1.485z" fill="#cad0dd"/><path d="M35.156 35.67l-6.731-3.882-1.399-4.265a.412.412 0 01.009-.27l6.75 3.892a.448.448 0 00-.027.296z" fill="#bac1ce"/><path d="M34.065 30.777c.136-.079.264-.05.307.082l1.73 5.227c.044.132.064.28.065.44.002.86-.603 1.928-1.37 2.37l-3.602 2.08c-.177.102-.323.02-.323-.184-.001-.208.144-.455.321-.557l3.601-2.08c.42-.248.729-.81.728-1.256a.749.749 0 00-.036-.234l-1.727-5.228c-.055-.162.037-.426.208-.585a.52.52 0 01.098-.075z" fill="#bac1ce"/><path d="M18.53 21.08l27.763 16.028-.006 2.199c-.002.847-.603 1.183-1.335.76l-25.1-14.491c-.733-.423-1.33-1.45-1.328-2.298zm13.541 10.638c.455.263.828.05.83-.479 0-.522-.37-1.164-.824-1.426-.46-.266-.833-.053-.835.469-.001.529.369 1.17.83 1.436" fill="#d4dae8"/><path d="M32.077 29.813c.454.262.825.904.823 1.426-.001.53-.374.742-.829.48-.46-.267-.83-.908-.829-1.437.002-.522.374-.735.835-.47z" fill="#cad0dd"/><path d="M48.126 36.04v2.2c0 .42-.156.714-.39.85l-1.839 1.066c.244-.136.391-.43.391-.85l.01-2.2z" fill="#bac1ce"/><path d="M48.178 17.565l-.052 18.475-1.833 1.069.052-18.476c0-.478-.338-1.06-.755-1.303L19.34 2.173c-.209-.122-.4-.13-.539-.052l1.842-1.069c.13-.078.321-.07.53.052L47.43 16.262c.417.243.756.825.747 1.303z" fill="#525566"/><g><path d="M45.594 17.332c.416.24.753.824.752 1.302l-.053 18.474-27.762-16.029.052-18.474c.001-.478.34-.671.757-.431zm-.3 2.257l.002-1.082-25.7-14.838-.047 16.785 25.7 3.983" fill="#474b59"/></g><g><path d="M19.593 3.665l-.044 16.786 25.74 14.922.01-16.863z" fill="#e4e8f4"/></g></g><g><path d="M33.636 45.09l.62 2.062c.04.181.178.35.397.47.406.223 1.003.222 1.405 0 .216-.12.352-.285.392-.463l.643-2.11z" fill="#525566"/><path d="M36.585 44.242c.684.394.687 1.03.008 1.425-.676.393-1.778.395-2.461 0-.681-.393-.685-1.033-.008-1.426.679-.394 1.78-.392 2.461 0z" fill="#5b5e71"/><path d="M36.266 44.427c.506.292.508.763.006 1.055-.5.29-1.315.292-1.82 0-.504-.291-.507-.764-.006-1.055.502-.292 1.317-.29 1.82 0z" fill="#474b59"/></g><g><path d="M34.506 43.054c.302-.134 1.148-.885 1.183-1.333.036-.459-1.296-.064-1.844.187s.66 1.146.66 1.146z" fill="#363a44"/><path d="M24.07 47.564c.078-.048.203-.048.327.03.265.156.482.514.482.81 0 .155-.062.248-.14.295l9.776-5.648c.094-.062.14-.156.14-.295 0-.296-.217-.67-.466-.81-.14-.077-.25-.093-.343-.047z" fill="#5b5e71"/><path d="M24.402 47.596c.258.15.476.515.475.812 0 .297-.22.41-.478.261-.258-.15-.466-.51-.466-.806s.21-.416.469-.267z" fill="#474b59"/><g><path d="M23.319 48.754c.068.115.212.15.33.083l.797-.474c.004 0 .004-.004.007-.004.033-.014.054-.054.054-.108a.38.38 0 00-.172-.294c-.057-.04-.126-.01-.126-.01l-.804.477a.237.237 0 00-.086.33z" fill="#363a44"/></g></g><g><path d="M37.344 15l-.001.39-1.816-1.05v-.389z" fill="#75ca75"/><path d="M39.748 16.388v.39l-1.817-1.049.001-.39z" fill="#e63044"/><path d="M42.153 17.776l-.001.39-1.816-1.049v-.39z" fill="#4562ef"/><path d="M44.557 19.164v.39l-1.817-1.049.001-.39z" fill="#e5a03c"/></g><g><path d="M19.593 6.607l-.044 7.277 25.74 14.922.01-7.354z" fill="#30596d"/></g><g><path d="M26.155 11.659c1.215.701 2.195 2.398 2.19 3.794-.003 1.392-.989 1.958-2.204 1.256-1.211-.7-2.194-2.402-2.19-3.794.004-1.396.993-1.956 2.204-1.256z" fill="#6eba6e"/><path d="M32.255 15.18c1.215.702 2.198 2.4 2.194 3.796-.004 1.392-.993 1.956-2.208 1.255-1.212-.7-2.195-2.402-2.19-3.794.003-1.396.993-1.956 2.204-1.257z" fill="#f9bb4a"/><path d="M38.358 18.704c1.212.7 2.195 2.398 2.19 3.794-.003 1.392-.993 1.956-2.204 1.256-1.215-.701-2.194-2.402-2.19-3.794.003-1.396.99-1.957 2.204-1.256z" fill="#e63044"/></g><g><path d="M26.301 20.387l-.001.557-5.06-2.92.002-.558zM26.305 19.137l-.002.557-5.059-2.92.002-.558z" fill="#cad0dd"/><path d="M25.231 22.274l-.001.557-3.354-1.936.002-.557z" fill="#6eba6e"/><path d="M26.298 21.637l-.002.557-5.059-2.92.002-.557z" fill="#cad0dd"/><g><path d="M34.257 24.994l-.002.557-5.059-2.92.002-.557zM34.26 23.744l-.001.557-5.06-2.92.002-.558z" fill="#cad0dd"/><path d="M33.186 26.88l-.001.558-3.354-1.936.002-.557z" fill="#f9bb4a"/><path d="M34.253 26.244l-.002.557-5.058-2.92.001-.557z" fill="#cad0dd"/></g><g><path d="M42.212 29.601l-.002.557-5.059-2.92.002-.557zM42.215 28.351l-.001.557-5.059-2.92.002-.558z" fill="#cad0dd"/><path d="M41.142 31.488l-.002.557-3.353-1.936.001-.557z" fill="#e63044"/><path d="M42.208 30.851l-.001.557-5.06-2.92.002-.557z" fill="#cad0dd"/></g></g></svg>